<svg width="28" height="29" viewBox="0 0 28 29" fill="none" xmlns="http://www.w3.org/2000/svg">
<path d="M20.4167 28.4983V22.0817C20.4167 21.1534 20.0479 20.2632 19.3915 19.6068C18.7352 18.9504 17.8449 18.5817 16.9167 18.5817C15.75 18.5817 0.116667 20.3317 0.116667 20.3317M17.5 25.5817H0M28 25.5817H23.3333M11.0833 16.2483L14.4877 13.8158C14.7883 13.601 15.0065 13.2899 15.1062 12.9341C15.206 12.5783 15.1812 12.1991 15.036 11.8593L13.8868 9.17949C13.4563 8.92865 11.8183 8.08165 9.33333 8.08165C6.84833 8.08165 5.21033 8.92865 4.77983 9.17832L3.63067 11.8593C3.48519 12.1993 3.46025 12.5787 3.55997 12.9347C3.6597 13.2908 3.87811 13.6021 4.179 13.817L7.58333 16.2483M22.75 20.7983C22.75 20.7983 23.9167 22.665 25.375 22.665C25.9165 22.665 26.4358 22.4499 26.8187 22.067C27.2016 21.6841 27.4167 21.1648 27.4167 20.6233C27.4167 19.4963 26.502 18.5863 25.375 18.5863C23.9167 18.5863 22.75 20.4483 22.75 20.4483V20.7983ZM9.15833 5.74832C9.15833 5.74832 7.29167 4.58165 7.29167 3.12332C7.29167 2.58245 7.50652 2.06374 7.88897 1.68129C8.27142 1.29884 8.79014 1.08398 9.331 1.08398C9.87187 1.08398 10.3906 1.29884 10.773 1.68129C11.1555 2.06374 11.3703 2.58245 11.3703 3.12332C11.3703 4.58165 9.50833 5.74832 9.50833 5.74832H9.15833Z" stroke="black" stroke-width="1.16667"/>
</svg>
