<svg width="25" height="26" viewBox="0 0 25 26" fill="none" xmlns="http://www.w3.org/2000/svg">
<path d="M6.75 12.8076L11.6786 16.9148L18.25 8.70047M12.5 24.3076C10.9898 24.3076 9.49439 24.0102 8.09914 23.4322C6.7039 22.8543 5.43615 22.0072 4.36827 20.9393C3.3004 19.8715 2.45331 18.6037 1.87539 17.2085C1.29746 15.8132 1 14.3178 1 12.8076C1 11.2974 1.29746 9.802 1.87539 8.40676C2.45331 7.01151 3.3004 5.74376 4.36827 4.67589C5.43615 3.60802 6.7039 2.76093 8.09914 2.183C9.49439 1.60507 10.9898 1.30762 12.5 1.30762C15.55 1.30762 18.4751 2.51922 20.6317 4.67589C22.7884 6.83256 24 9.75763 24 12.8076C24 15.8576 22.7884 18.7827 20.6317 20.9393C18.4751 23.096 15.55 24.3076 12.5 24.3076Z" stroke="black" stroke-width="1.64286"/>
</svg>
