<svg width="22" height="22" viewBox="0 0 22 22" fill="none" xmlns="http://www.w3.org/2000/svg">
<path d="M8.25172 0.538086C7.9095 0.538097 7.57402 0.633194 7.2827 0.812768C6.99138 0.992342 6.75569 1.24933 6.60192 1.55505L5.87551 3.00048H3.79479C2.97846 3.00048 2.19556 3.32477 1.61832 3.902C1.04108 4.47924 0.716797 5.26214 0.716797 6.07847V15.9281C0.716797 16.7444 1.04108 17.5273 1.61832 18.1045C2.19556 18.6818 2.97846 19.006 3.79479 19.006H10.069C9.86789 18.6124 9.70583 18.2001 9.58511 17.7748H3.79602C3.30622 17.7748 2.83648 17.5803 2.49014 17.2339C2.1438 16.8876 1.94923 16.4179 1.94923 15.9281V6.07847C1.94923 5.58867 2.1438 5.11893 2.49014 4.77259C2.83648 4.42625 3.30622 4.23168 3.79602 4.23168H6.25595C6.36997 4.23145 6.48169 4.19955 6.57864 4.13955C6.6756 4.07955 6.75399 3.9938 6.80507 3.89187L7.70138 2.10786C7.75272 2.00597 7.83138 1.92035 7.92856 1.86056C8.02574 1.80077 8.13762 1.76917 8.25172 1.76928H12.8859C13.0004 1.76906 13.1126 1.80074 13.2101 1.86076C13.3075 1.92079 13.3863 2.00678 13.4375 2.10909L14.3277 3.89064C14.3789 3.99276 14.4574 4.07863 14.5546 4.13864C14.6518 4.19866 14.7638 4.23044 14.878 4.23045H17.3392C17.829 4.23045 18.2987 4.42502 18.6451 4.77136C18.9914 5.1177 19.186 5.58744 19.186 6.07724V9.89765C19.6276 10.1242 20.038 10.3946 20.4172 10.709V6.07724C20.4172 5.26091 20.0929 4.47801 19.5157 3.90077C18.9384 3.32354 18.1555 2.99925 17.3392 2.99925H15.2585L14.5382 1.55875C14.3848 1.25196 14.1489 0.993968 13.8571 0.813693C13.5652 0.633418 13.229 0.537983 12.8859 0.538086H8.25172ZM10.5614 5.46287C11.6609 5.46249 12.729 5.83005 13.5953 6.50701C14.4617 7.18396 15.0767 8.13137 15.3422 9.19833C14.9329 9.24432 14.5286 9.32757 14.1344 9.44703C13.9689 8.81847 13.6406 8.24467 13.1826 7.78354C12.7245 7.32242 12.1529 6.99029 11.5255 6.82067C10.898 6.65105 10.2369 6.64995 9.60892 6.81748C8.98091 6.985 8.40821 7.31523 7.94861 7.77483C7.48902 8.23442 7.15879 8.80713 6.99126 9.43513C6.82374 10.0631 6.82484 10.7242 6.99445 11.3517C7.16407 11.9791 7.4962 12.5507 7.95733 13.0088C8.41845 13.4668 8.99225 13.7952 9.62082 13.9606C9.50143 14.3544 9.41818 14.7583 9.37211 15.1672C8.20878 14.8732 7.19269 14.1648 6.51452 13.1749C5.83634 12.185 5.54269 10.9817 5.68866 9.79071C5.83462 8.59971 6.41017 7.5029 7.30732 6.70609C8.20447 5.90928 9.36155 5.46723 10.5614 5.46287ZM21.6422 15.9281C21.6422 17.3975 21.0585 18.8067 20.0195 19.8457C18.9805 20.8847 17.5712 21.4684 16.1018 21.4684C14.6324 21.4684 13.2232 20.8847 12.1842 19.8457C11.1452 18.8067 10.5614 17.3975 10.5614 15.9281C10.5614 14.4586 11.1452 13.0494 12.1842 12.0104C13.2232 10.9714 14.6324 10.3877 16.1018 10.3877C17.5712 10.3877 18.9805 10.9714 20.0195 12.0104C21.0585 13.0494 21.6422 14.4586 21.6422 15.9281ZM16.7174 13.4657C16.7174 13.3024 16.6526 13.1458 16.5371 13.0304C16.4217 12.9149 16.2651 12.8501 16.1018 12.8501C15.9386 12.8501 15.782 12.9149 15.6665 13.0304C15.5511 13.1458 15.4862 13.3024 15.4862 13.4657V15.3125H13.6394C13.4762 15.3125 13.3196 15.3773 13.2041 15.4928C13.0887 15.6082 13.0238 15.7648 13.0238 15.9281C13.0238 16.0913 13.0887 16.2479 13.2041 16.3633C13.3196 16.4788 13.4762 16.5436 13.6394 16.5436H15.4862V18.3904C15.4862 18.5537 15.5511 18.7103 15.6665 18.8257C15.782 18.9412 15.9386 19.006 16.1018 19.006C16.2651 19.006 16.4217 18.9412 16.5371 18.8257C16.6526 18.7103 16.7174 18.5537 16.7174 18.3904V16.5436H18.5642C18.7275 16.5436 18.8841 16.4788 18.9995 16.3633C19.115 16.2479 19.1798 16.0913 19.1798 15.9281C19.1798 15.7648 19.115 15.6082 18.9995 15.4928C18.8841 15.3773 18.7275 15.3125 18.5642 15.3125H16.7174V13.4657Z" fill="#512DC8"/>
</svg>
