<svg width="28" height="24" viewBox="0 0 28 24" fill="none" xmlns="http://www.w3.org/2000/svg">
<path d="M24.4913 3.07242L24.4905 3.07165C23.8398 2.44026 23.0712 1.9372 22.2262 1.59048L22.2249 1.58995C21.3482 1.22882 20.407 1.04264 19.4559 1.04261L19.4537 1.04261C18.1164 1.03952 16.8137 1.39723 15.6827 2.07341L15.6827 2.07343C15.4121 2.23518 15.1558 2.41242 14.9135 2.60513L14.2881 3.10254L13.665 2.60225C13.4236 2.40842 13.1682 2.23 12.8984 2.06701L12.8983 2.06699C11.7705 1.38559 10.4694 1.02187 9.13216 1.01879C8.16756 1.01656 7.23734 1.19603 6.35842 1.55334L6.35735 1.55378C5.50751 1.89813 4.74306 2.39345 4.08565 3.02486L4.08428 3.02618L4.08428 3.02618C3.43241 3.6499 2.91192 4.39279 2.55159 5.21232L24.4913 3.07242ZM24.4913 3.07242C25.1399 3.70031 25.6573 4.44594 26.0151 5.2672C26.3858 6.12153 26.573 7.02445 26.5682 7.95398L26.5682 7.95686C26.5661 8.8274 26.3836 9.75643 26.0048 10.7255L26.0039 10.7278M24.4913 3.07242L26.0039 10.7278M7.86171 17.6609L7.86182 17.661C9.25198 18.9317 10.6398 20.0098 11.6967 20.78C12.2243 21.1646 12.6675 21.471 12.9847 21.6848C13.1432 21.7916 13.27 21.8752 13.3597 21.9336C13.4046 21.9628 13.44 21.9855 13.4651 22.0016C13.4929 22.0193 13.5033 22.0257 13.5012 22.0244L13.5091 22.0292L13.5169 22.0342L14.2416 22.4944C14.2416 22.4944 14.2417 22.4944 14.2418 22.4944C14.2419 22.4944 14.242 22.4944 14.2421 22.4944L14.9689 22.0375L14.9691 22.0374C15.0696 21.9743 17.8426 20.2248 20.6445 17.6901C22.3297 16.1644 23.6637 14.6798 24.6209 13.2809L7.86171 17.6609ZM7.86171 17.6609C6.18318 16.1271 4.85593 14.6361 3.90506 13.2326C3.30544 12.3463 2.84722 11.4843 2.5331 10.6709C2.15894 9.70021 1.98074 8.77052 1.98275 7.90013C1.9849 6.9684 2.17672 6.06518 2.55156 5.2124L7.86171 17.6609ZM26.0039 10.7278C25.6902 11.5363 25.2262 12.3951 24.6213 13.2804L26.0039 10.7278Z" stroke="#656567" stroke-width="2"/>
</svg>
