<svg width="12" height="12" viewBox="0 0 12 12" fill="none" xmlns="http://www.w3.org/2000/svg">
<path d="M11.2343 5.98811L11.8961 4.8442C11.9757 4.70657 11.9973 4.54299 11.9563 4.38941C11.9153 4.23584 11.8149 4.10484 11.6773 4.02524L10.5322 3.36336V2.04439C10.5322 1.88538 10.469 1.73289 10.3566 1.62045C10.2442 1.50802 10.0917 1.44485 9.93268 1.44485H8.6143L7.95302 0.300349C7.87316 0.163006 7.74242 0.0626378 7.58911 0.0209671C7.51306 0.000352759 7.43369 -0.00496275 7.35557 0.00532869C7.27746 0.0156201 7.20217 0.0413139 7.13406 0.0809204L5.98896 0.742803L4.84385 0.0803208C4.70615 0.000821464 4.54251 -0.0207225 4.38893 0.0204281C4.23534 0.0615787 4.1044 0.162053 4.02489 0.299749L3.36301 1.44485H2.04464C1.88563 1.44485 1.73314 1.50802 1.6207 1.62045C1.50827 1.73289 1.44511 1.88538 1.44511 2.04439V3.36276L0.3 4.02464C0.231673 4.06394 0.171785 4.11636 0.123776 4.17888C0.0757683 4.24139 0.0405863 4.31278 0.0202519 4.38894C-8.24891e-05 4.4651 -0.00516857 4.54452 0.00528587 4.62265C0.0157403 4.70078 0.0415291 4.77607 0.0811709 4.8442L0.743054 5.98811L0.0811709 7.13201C0.00202597 7.26977 -0.0194473 7.43323 0.0214326 7.58675C0.0623125 7.74028 0.16223 7.87142 0.2994 7.95157L1.44451 8.61346V9.93182C1.44451 10.0908 1.50767 10.2433 1.6201 10.3558C1.73254 10.4682 1.88503 10.5314 2.04404 10.5314H3.36301L4.02489 11.6765C4.07797 11.7672 4.15375 11.8425 4.24479 11.8951C4.33582 11.9477 4.43897 11.9756 4.54408 11.9762C4.6484 11.9762 4.75212 11.9487 4.84445 11.8953L5.98836 11.2334L7.13346 11.8953C7.27113 11.9747 7.43466 11.9962 7.58819 11.9552C7.74171 11.9142 7.8727 11.8139 7.95242 11.6765L8.61371 10.5314H9.93208C10.0911 10.5314 10.2436 10.4682 10.356 10.3558C10.4684 10.2433 10.5316 10.0908 10.5316 9.93182V8.61346L11.6767 7.95157C11.7449 7.91216 11.8047 7.85968 11.8526 7.79715C11.9005 7.73462 11.9357 7.66326 11.956 7.58714C11.9763 7.51103 11.9814 7.43166 11.9711 7.35356C11.9607 7.27547 11.935 7.20018 11.8955 7.13201L11.2343 5.98811ZM4.48953 2.98445C4.72811 2.98453 4.9569 3.07939 5.12555 3.24815C5.2942 3.41691 5.3889 3.64576 5.38882 3.88435C5.38875 4.12294 5.29389 4.35172 5.12513 4.52037C4.95636 4.68902 4.72752 4.78373 4.48893 4.78365C4.25034 4.78357 4.02156 4.68871 3.8529 4.51995C3.68425 4.35119 3.58955 4.12234 3.58963 3.88375C3.58971 3.64516 3.68456 3.41638 3.85333 3.24773C4.02209 3.07908 4.25094 2.98437 4.48953 2.98445ZM4.66939 8.73996L3.71014 8.02112L7.30733 3.22486L8.26658 3.9437L4.66939 8.73996ZM7.48719 8.97977C7.36905 8.97973 7.25208 8.95642 7.14295 8.91118C7.03382 8.86593 6.93467 8.79963 6.85116 8.71607C6.76765 8.63251 6.70142 8.53332 6.65625 8.42416C6.61108 8.315 6.58785 8.19801 6.58789 8.07987C6.58793 7.96174 6.61124 7.84476 6.65648 7.73563C6.70173 7.62651 6.76802 7.52736 6.85159 7.44385C6.93515 7.36034 7.03434 7.29411 7.1435 7.24894C7.25266 7.20377 7.36965 7.18054 7.48778 7.18057C7.72637 7.18065 7.95516 7.27551 8.12381 7.44427C8.29246 7.61304 8.38716 7.84188 8.38708 8.08047C8.387 8.31906 8.29215 8.54784 8.12338 8.7165C7.95462 8.88515 7.72577 8.97985 7.48719 8.97977Z" fill="#512DC8"/>
</svg>
