<svg width="22" height="23" viewBox="0 0 22 23" fill="none" xmlns="http://www.w3.org/2000/svg">
<path d="M17.8374 15.8789C16.9824 15.8769 16.2167 16.2127 15.6304 16.7401L7.61998 12.0528C7.67683 11.7942 7.72242 11.5355 7.72305 11.2655C7.72367 10.9955 7.67927 10.7367 7.62361 10.4778L15.5655 5.87238C16.1717 6.43628 16.9697 6.78687 17.8584 6.78892C19.7259 6.79323 21.2369 5.28921 21.2412 3.42172C21.2455 1.55422 19.7415 0.0432476 17.874 0.0389384C16.0065 0.0346292 14.4955 1.53865 14.4912 3.40614C14.4906 3.67614 14.535 3.93499 14.5906 4.19387L6.64873 8.79931C6.04253 8.23541 5.24459 7.88482 4.35584 7.88277C2.48835 7.87846 0.977374 9.38247 0.973065 11.25C0.968755 13.1175 2.47277 14.6284 4.34027 14.6327C5.22902 14.6348 6.02857 14.2879 6.63736 13.7268L14.6365 18.4253C14.5797 18.6614 14.5454 18.9088 14.5449 19.1563C14.5407 20.9676 16.011 22.4447 17.8223 22.4489C19.6335 22.4531 21.1107 20.9827 21.1148 19.1715C21.119 17.3602 19.6487 15.8831 17.8374 15.8789ZM17.8688 2.28893C18.4875 2.29036 18.9926 2.79778 18.9912 3.41653C18.9898 4.03527 18.4823 4.54035 17.8636 4.53893C17.2448 4.5375 16.7398 4.03008 16.7412 3.41133C16.7426 2.79259 17.25 2.2875 17.8688 2.28893ZM4.34546 12.3828C3.72671 12.3813 3.22163 11.8739 3.22306 11.2552C3.22449 10.6364 3.7319 10.1313 4.35065 10.1328C4.9694 10.1342 5.47448 10.6416 5.47305 11.2604C5.47162 11.8791 4.96421 12.3842 4.34546 12.3828ZM17.8272 20.3114C17.2085 20.31 16.7034 19.8025 16.7048 19.1838C16.7062 18.565 17.2136 18.06 17.8324 18.0614C18.4511 18.0628 18.9562 18.5702 18.9548 19.189C18.9534 19.8077 18.4459 20.3128 17.8272 20.3114Z" fill="#656567"/>
</svg>
