<svg width="32" height="34" viewBox="0 0 32 34" fill="none" xmlns="http://www.w3.org/2000/svg">
<path d="M22.6622 27.6663L22.9146 26.6171L23.686 25.9231C24.3104 25.3613 25.0993 25.0247 25.9632 25.0267C27.8299 25.031 29.3477 26.5558 29.3434 28.4225C29.3391 30.2892 27.8143 31.807 25.9476 31.8027C24.0809 31.7984 22.5631 30.2736 22.5674 28.4069C22.5679 28.1726 22.6008 27.9218 22.6622 27.6663ZM9.36888 17.5526L9.15501 18.5256L8.35522 19.2627C7.70612 19.861 6.87407 20.2157 5.95755 20.2136C4.00746 20.2091 2.43973 18.6341 2.44423 16.684C2.44873 14.7339 4.02371 13.1662 5.9738 13.1707C6.89032 13.1728 7.72073 13.5313 8.36706 14.1326L9.16344 14.8734L9.37281 15.8473C9.44836 16.1987 9.48769 16.4597 9.48713 16.7002C9.48658 16.9407 9.44604 17.2016 9.36888 17.5526ZM23.6079 7.62146L22.8115 6.88065L22.6022 5.90671C22.5266 5.55531 22.4873 5.29427 22.4878 5.05378C22.4923 3.10369 24.0673 1.53595 26.0174 1.54045C27.9675 1.54495 29.5352 3.11994 29.5307 5.07003C29.5262 7.02012 27.9513 8.58785 26.0012 8.58335C25.0847 8.58124 24.2542 8.22269 23.6079 7.62146ZM29.1601 5.06917C29.1641 3.33286 27.7529 1.91514 26.0166 1.91113C24.2803 1.90712 22.8625 3.31832 22.8585 5.05463C22.8545 6.79094 24.2657 8.20867 26.002 8.21268C27.7383 8.21668 29.1561 6.80549 29.1601 5.06917ZM2.81491 16.6848C2.8109 18.4212 4.2221 19.8389 5.95841 19.8429C7.69472 19.8469 9.11244 18.4357 9.11645 16.6994C9.12046 14.9631 7.70926 13.5453 5.97295 13.5413C4.23664 13.5373 2.81891 14.9485 2.81491 16.6848ZM22.8046 28.4408C22.8006 30.1771 24.2117 31.5948 25.9481 31.5988C27.6844 31.6028 29.1021 30.1916 29.1061 28.4553C29.1101 26.719 27.6989 25.3013 25.9626 25.2973C24.2263 25.2933 22.8086 26.7045 22.8046 28.4408Z" fill="black" fill-opacity="0.82" stroke="white" stroke-width="2.96544"/>
</svg>
