<svg xmlns="http://www.w3.org/2000/svg" xmlns:xlink="http://www.w3.org/1999/xlink" width="1080" zoomAndPan="magnify" viewBox="0 0 810 809.999993" height="1080" preserveAspectRatio="xMidYMid meet" version="1.0"><defs><g/><clipPath id="b244bca3f7"><path d="M 250.726562 360.988281 L 273.714844 360.988281 L 273.714844 383.976562 L 250.726562 383.976562 Z M 250.726562 360.988281 " clip-rule="nonzero"/></clipPath><clipPath id="e30dcf6c49"><path d="M 262.261719 254.792969 L 383.5 254.792969 L 383.5 342 L 262.261719 342 Z M 262.261719 254.792969 " clip-rule="nonzero"/></clipPath><clipPath id="58a9bc9791"><path d="M 257.808594 406.203125 L 280.796875 406.203125 L 280.796875 429.191406 L 257.808594 429.191406 Z M 257.808594 406.203125 " clip-rule="nonzero"/></clipPath></defs><g fill="#000000" fill-opacity="1"><g transform="translate(417.937508, 270.512419)"><g><path d="M 5.429688 -3.027344 C 6.542969 -2.25 7.253906 -1.601562 7.558594 -1.0625 C 7.765625 -0.691406 7.792969 -0.308594 7.640625 0.0820312 C 7.488281 0.472656 7.277344 0.761719 7.023438 0.917969 C 6.371094 1.339844 5.503906 1.339844 4.441406 0.921875 C 2.960938 0.339844 2.320312 -0.492188 2.535156 -1.566406 L 1.390625 -2.019531 C 1.09375 -0.28125 1.996094 0.992188 4.089844 1.816406 C 5.027344 2.183594 5.886719 2.292969 6.679688 2.121094 C 7.625 1.929688 8.300781 1.355469 8.675781 0.40625 C 8.980469 -0.375 8.910156 -1.097656 8.460938 -1.757812 C 8.148438 -2.234375 7.558594 -2.789062 6.695312 -3.417969 C 5.816406 -4.050781 5.269531 -4.507812 5.035156 -4.777344 C 4.519531 -5.351562 4.375 -5.925781 4.617188 -6.503906 C 4.738281 -6.8125 4.898438 -7.054688 5.113281 -7.195312 C 5.691406 -7.597656 6.445312 -7.625 7.367188 -7.265625 C 8.664062 -6.753906 9.242188 -6.042969 9.117188 -5.15625 L 10.179688 -4.742188 C 10.367188 -6.246094 9.539062 -7.378906 7.695312 -8.101562 C 6.855469 -8.429688 6.027344 -8.5 5.238281 -8.292969 C 4.433594 -8.09375 3.855469 -7.5625 3.503906 -6.667969 C 3.027344 -5.453125 3.675781 -4.230469 5.429688 -3.027344 Z M 5.429688 -3.027344 "/></g></g></g><g fill="#000000" fill-opacity="1"><g transform="translate(436.01907, 278.707769)"><g><path d="M 5.015625 -7.785156 L 7.140625 -6.515625 L 2.398438 1.402344 L 3.296875 1.941406 L 8.042969 -5.972656 L 10.164062 -4.703125 L 10.667969 -5.539062 L 8.542969 -6.8125 L 7.640625 -7.351562 L 5.519531 -8.625 Z M 5.015625 -7.785156 "/></g></g></g><g fill="#000000" fill-opacity="1"><g transform="translate(450.884687, 288.583091)"><g><path d="M 8.65625 2.976562 L 13.101562 -2.207031 L 12.304688 -2.890625 L 7.761719 2.40625 C 7.488281 2.726562 7.207031 2.9375 6.90625 3.058594 C 6.027344 3.410156 5.117188 3.183594 4.171875 2.371094 C 3.558594 1.84375 3.183594 1.289062 3.054688 0.703125 C 2.898438 0.0351562 3.074219 -0.585938 3.582031 -1.179688 L 8.125 -6.472656 L 7.328125 -7.160156 L 2.882812 -1.976562 C 2.160156 -1.132812 1.867188 -0.238281 2 0.707031 C 2.125 1.605469 2.621094 2.425781 3.488281 3.171875 C 4.34375 3.902344 5.222656 4.261719 6.136719 4.253906 C 7.09375 4.246094 7.933594 3.820312 8.65625 2.976562 Z M 8.65625 2.976562 "/></g></g></g><g fill="#000000" fill-opacity="1"><g transform="translate(465.840351, 302.732186)"><g><path d="M 9.65625 3.832031 C 10.226562 3.371094 10.65625 2.828125 10.976562 2.222656 C 11.296875 1.617188 11.484375 0.984375 11.539062 0.339844 C 11.589844 -0.316406 11.507812 -0.964844 11.3125 -1.613281 C 11.105469 -2.277344 10.773438 -2.898438 10.324219 -3.457031 L 8.644531 -5.535156 L 0.707031 0.875 L 2.386719 2.953125 C 2.839844 3.511719 3.367188 3.976562 3.96875 4.316406 C 4.5625 4.644531 5.191406 4.851562 5.84375 4.941406 C 6.488281 5.023438 7.132812 4.984375 7.792969 4.796875 C 8.453125 4.613281 9.070312 4.304688 9.65625 3.832031 Z M 9.011719 3.039062 C 8.101562 3.773438 7.082031 4.058594 5.976562 3.910156 C 4.871094 3.761719 3.957031 3.226562 3.222656 2.316406 L 2.183594 1.03125 L 8.488281 -4.058594 L 9.523438 -2.777344 C 10.261719 -1.863281 10.578125 -0.847656 10.503906 0.253906 C 10.40625 1.371094 9.910156 2.3125 9.011719 3.039062 Z M 9.011719 3.039062 "/></g></g></g><g fill="#000000" fill-opacity="1"><g transform="translate(478.136674, 319.759687)"><g><path d="M 1.085938 1.886719 L 9.925781 -3.210938 L 9.402344 -4.121094 L 0.5625 0.976562 Z M 1.085938 1.886719 "/></g></g></g><g fill="#000000" fill-opacity="1"><g transform="translate(484.904709, 332.662316)"><g><path d="M 8.347656 7.675781 C 7.25 8.085938 6.175781 8.039062 5.132812 7.566406 C 4.070312 7.082031 3.34375 6.292969 2.941406 5.210938 C 2.535156 4.128906 2.570312 3.0625 3.058594 2.011719 C 3.527344 0.957031 4.316406 0.230469 5.410156 -0.179688 C 6.480469 -0.578125 7.550781 -0.546875 8.609375 -0.0625 C 9.652344 0.414062 10.394531 1.195312 10.796875 2.277344 C 11.203125 3.359375 11.15625 4.433594 10.683594 5.492188 C 10.195312 6.539062 9.414062 7.277344 8.347656 7.675781 Z M 8.714844 8.660156 C 9.390625 8.410156 9.96875 8.03125 10.480469 7.554688 C 10.976562 7.082031 11.363281 6.535156 11.644531 5.917969 C 11.914062 5.304688 12.070312 4.652344 12.101562 3.96875 C 12.128906 3.269531 12.035156 2.582031 11.78125 1.910156 C 11.53125 1.234375 11.148438 0.640625 10.675781 0.144531 C 10.199219 -0.351562 9.65625 -0.738281 9.050781 -1.027344 C 8.433594 -1.308594 7.78125 -1.464844 7.097656 -1.5 C 6.398438 -1.527344 5.71875 -1.414062 5.042969 -1.164062 C 4.367188 -0.910156 3.769531 -0.542969 3.273438 -0.0703125 C 2.765625 0.410156 2.375 0.953125 2.09375 1.574219 C 1.8125 2.191406 1.65625 2.839844 1.621094 3.527344 C 1.589844 4.210938 1.703125 4.90625 1.957031 5.582031 C 2.207031 6.253906 2.570312 6.839844 3.050781 7.351562 C 3.523438 7.847656 4.070312 8.234375 4.6875 8.515625 C 5.304688 8.796875 5.957031 8.953125 6.65625 8.980469 C 7.339844 9.015625 8.039062 8.914062 8.714844 8.660156 Z M 8.714844 8.660156 "/></g></g></g><g fill="#000000" fill-opacity="1"><g transform="translate(491.775081, 354.677847)"><g/></g></g><g fill="#000000" fill-opacity="1"><g transform="translate(493.975652, 369.871851)"><g><path d="M 0.0703125 2.175781 L 4.628906 2.027344 L 4.78125 6.660156 L 0.222656 6.808594 L 0.253906 7.859375 L 10.453125 7.527344 L 10.417969 6.476562 L 5.828125 6.625 L 5.679688 1.992188 L 10.269531 1.84375 L 10.234375 0.792969 L 0.0351562 1.125 Z M 0.0703125 2.175781 "/></g></g></g><g fill="#000000" fill-opacity="1"><g transform="translate(493.642654, 390.051517)"><g><path d="M 3.308594 3.292969 L 7.683594 5.816406 L 2.765625 6.960938 Z M -1.328125 9.011719 L 10.117188 6.175781 L -0.0234375 0.148438 L -0.1875 1.277344 L 2.398438 2.765625 L 1.746094 7.203125 L -1.160156 7.882812 Z M -1.328125 9.011719 "/></g></g></g><g fill="#000000" fill-opacity="1"><g transform="translate(489.563398, 410.191902)"><g><path d="M -0.644531 2.078125 L 9.101562 5.101562 L 9.414062 4.097656 L -0.332031 1.074219 Z M -0.644531 2.078125 "/></g></g></g><g fill="#000000" fill-opacity="1"><g transform="translate(484.597882, 423.956265)"><g><path d="M 3.589844 4.152344 L 7.332031 5.964844 L 6.300781 8.097656 C 6.03125 8.652344 5.640625 9.011719 5.125 9.179688 C 4.617188 9.335938 4.101562 9.300781 3.5625 9.039062 C 3.019531 8.777344 2.660156 8.386719 2.464844 7.859375 C 2.269531 7.332031 2.304688 6.816406 2.558594 6.289062 Z M 3.089844 9.980469 C 3.875 10.359375 4.691406 10.386719 5.492188 10.074219 C 6.273438 9.769531 6.878906 9.210938 7.269531 8.402344 L 8.695312 5.457031 L -0.488281 1.011719 L -0.949219 1.957031 L 2.6875 3.714844 L 2.15625 4.808594 L -2.785156 5.753906 L -3.398438 7.023438 L 1.609375 5.945312 C 1.300781 6.679688 1.265625 7.414062 1.496094 8.140625 C 1.746094 8.964844 2.28125 9.585938 3.089844 9.980469 Z M 3.089844 9.980469 "/></g></g></g><g fill="#000000" fill-opacity="1"><g transform="translate(475.212821, 441.00835)"><g/></g></g><g fill="#000000" fill-opacity="1"><g transform="translate(465.926796, 453.242974)"><g><path d="M 0.769531 6.167969 C -0.367188 6.910156 -1.238281 7.324219 -1.851562 7.40625 C -2.273438 7.457031 -2.636719 7.339844 -2.941406 7.050781 C -3.246094 6.761719 -3.4375 6.460938 -3.484375 6.164062 C -3.632812 5.402344 -3.304688 4.597656 -2.519531 3.773438 C -1.425781 2.617188 -0.414062 2.335938 0.503906 2.9375 L 1.351562 2.042969 C -0.152344 1.117188 -1.667969 1.476562 -3.21875 3.109375 C -3.910156 3.839844 -4.335938 4.59375 -4.472656 5.394531 C -4.648438 6.34375 -4.371094 7.1875 -3.632812 7.886719 C -3.019531 8.464844 -2.324219 8.671875 -1.546875 8.5 C -0.984375 8.390625 -0.25 8.050781 0.65625 7.488281 C 1.574219 6.910156 2.203125 6.574219 2.539062 6.460938 C 3.265625 6.195312 3.851562 6.277344 4.296875 6.71875 C 4.539062 6.949219 4.703125 7.1875 4.753906 7.441406 C 4.910156 8.125 4.652344 8.832031 3.96875 9.550781 C 3.011719 10.566406 2.136719 10.832031 1.359375 10.386719 L 0.574219 11.214844 C 1.902344 11.953125 3.261719 11.609375 4.625 10.171875 C 5.242188 9.519531 5.617188 8.777344 5.722656 7.964844 C 5.839844 7.144531 5.5625 6.410156 4.867188 5.75 C 3.917969 4.851562 2.542969 4.996094 0.769531 6.167969 Z M 0.769531 6.167969 "/></g></g></g><g fill="#000000" fill-opacity="1"><g transform="translate(451.558481, 466.94012)"><g><path d="M -1.738281 1.308594 L 1.136719 5.132812 L -4.488281 3.371094 L -5.566406 4.179688 L 0.496094 6.007812 L 0.5625 12.339844 L 1.640625 11.527344 L 1.503906 5.625 L 4.386719 9.464844 L 5.226562 8.835938 L -0.898438 0.675781 Z M -1.738281 1.308594 "/></g></g></g><g fill="#000000" fill-opacity="1"><g transform="translate(436.248456, 477.236055)"><g><path d="M -1.910156 1.039062 L 2.96875 10 L 3.894531 9.5 L -0.988281 0.539062 Z M -1.910156 1.039062 "/></g></g></g><g fill="#000000" fill-opacity="1"><g transform="translate(423.113535, 483.651281)"><g><path d="M 0.496094 7.808594 L -7.65625 2.082031 L -3.988281 12.277344 L -3 11.921875 L -5.539062 4.863281 L 2.613281 10.589844 L -1.058594 0.378906 L -2.046875 0.734375 Z M 0.496094 7.808594 "/></g></g></g><g fill="#000000" fill-opacity="1"><g transform="translate(403.657853, 489.499867)"><g/></g></g><g fill="#000000" fill-opacity="1"><g transform="translate(388.516541, 491.753689)"><g><path d="M -10.53125 0.214844 L -11.597656 0.234375 L -9.007812 11.0625 L -5.835938 2.265625 L -2.316406 10.929688 L -0.148438 0.00390625 L -1.230469 0.0234375 L -2.660156 7.316406 L -5.894531 -0.480469 L -8.792969 7.441406 Z M -10.53125 0.214844 "/></g></g></g><g fill="#000000" fill-opacity="1"><g transform="translate(365.644363, 491.038169)"><g><path d="M -3.371094 3.226562 L -6 7.542969 L -7.023438 2.601562 Z M -8.976562 -1.539062 L -6.414062 9.96875 L -0.148438 -0.0234375 L -1.273438 -0.21875 L -2.820312 2.332031 L -7.242188 1.574219 L -7.851562 -1.347656 Z M -8.976562 -1.539062 "/></g></g></g><g fill="#000000" fill-opacity="1"><g transform="translate(345.662421, 486.546806)"><g><path d="M -2.050781 -0.726562 L -3.648438 3.785156 L -5.289062 -1.875 L -6.5625 -2.324219 L -4.730469 3.734375 L -9.972656 7.292969 L -8.699219 7.742188 L -3.855469 4.363281 L -5.460938 8.890625 L -4.46875 9.242188 L -1.0625 -0.375 Z M -2.050781 -0.726562 "/></g></g></g><g fill="#000000" fill-opacity="1"><g transform="translate(328.671594, 479.581369)"><g><path d="M -6.28125 -3.492188 L -6.757812 -2.640625 L -2.375 -0.203125 L -4.140625 2.96875 L -8.390625 0.609375 L -8.871094 1.472656 L -4.621094 3.835938 L -6.382812 7.007812 L -10.765625 4.574219 L -11.238281 5.425781 L -5.941406 8.371094 L -0.984375 -0.546875 Z M -6.28125 -3.492188 "/></g></g></g><g fill="#000000" fill-opacity="1"><g transform="translate(312.087305, 469.290792)"><g><path d="M -8.730469 -2.757812 L -13.039062 2.539062 L -12.226562 3.199219 L -7.820312 -2.207031 C -7.554688 -2.535156 -7.277344 -2.753906 -6.980469 -2.882812 C -6.113281 -3.257812 -5.195312 -3.054688 -4.230469 -2.265625 C -3.601562 -1.753906 -3.214844 -1.207031 -3.070312 -0.625 C -2.898438 0.0390625 -3.058594 0.664062 -3.550781 1.269531 L -7.957031 6.679688 L -7.140625 7.34375 L -2.832031 2.050781 C -2.128906 1.1875 -1.859375 0.285156 -2.019531 -0.65625 C -2.164062 -1.550781 -2.683594 -2.359375 -3.566406 -3.082031 C -4.441406 -3.792969 -5.328125 -4.128906 -6.242188 -4.097656 C -7.199219 -4.0625 -8.027344 -3.617188 -8.730469 -2.757812 Z M -8.730469 -2.757812 "/></g></g></g><g fill="#000000" fill-opacity="1"><g transform="translate(296.783726, 455.472842)"><g><path d="M -5.25 1.660156 L -8.382812 4.367188 L -9.933594 2.570312 C -10.335938 2.105469 -10.511719 1.605469 -10.472656 1.074219 C -10.414062 0.546875 -10.175781 0.0859375 -9.722656 -0.304688 C -9.257812 -0.707031 -8.753906 -0.882812 -8.191406 -0.855469 C -7.644531 -0.8125 -7.179688 -0.578125 -6.796875 -0.136719 Z M -10.386719 -1.121094 C -11.066406 -0.53125 -11.410156 0.199219 -11.4375 1.058594 C -11.457031 1.90625 -11.183594 2.660156 -10.59375 3.34375 L -8.457031 5.816406 L -0.734375 -0.851562 L -1.421875 -1.648438 L -4.476562 0.992188 L -5.929688 -0.6875 C -6.515625 -1.371094 -7.234375 -1.761719 -8.066406 -1.855469 C -8.933594 -1.941406 -9.703125 -1.710938 -10.386719 -1.121094 Z M -10.386719 -1.121094 "/></g></g></g><g fill="#000000" fill-opacity="1"><g transform="translate(284.984025, 440.27212)"><g/></g></g><g fill="#000000" fill-opacity="1"><g transform="translate(308.414057, 423.335311)"><g><path d="M 6.726562 0 L 13.449219 0 C 13.449219 0 13.367188 -74.5625 13.367188 -77.082031 C 13.367188 -81.621094 14.792969 -82.378906 17.820312 -82.378906 L 37.996094 -82.378906 C 54.804688 -82.378906 63.632812 -73.804688 63.632812 -60.101562 C 63.632812 -46.402344 54.804688 -37.828125 37.996094 -37.828125 L 21.519531 -37.828125 L 21.519531 -36.144531 L 29 -36.144531 C 39.085938 -36.144531 52.535156 -7.144531 64.472656 0 L 73.972656 0 C 70.191406 -2.523438 63.632812 -8.574219 58.421875 -15.550781 C 52.285156 -23.789062 47.660156 -30.09375 42.953125 -33.792969 C 40.9375 -35.390625 40.433594 -36.144531 42.953125 -36.144531 L 45.390625 -36.144531 C 66.828125 -36.398438 71.617188 -51.695312 71.617188 -60.101562 C 71.617188 -68.507812 66.828125 -84.058594 45.390625 -84.058594 L 6.726562 -84.058594 Z M 6.726562 0 "/></g></g></g><g fill="#000000" fill-opacity="1"><g transform="translate(384.065945, 423.335311)"><g><path d="M 6.726562 0 L 13.449219 0 C 13.449219 0 13.367188 -20.257812 13.367188 -40.179688 C 13.367188 -42.785156 14.457031 -44.300781 17.148438 -44.382812 L 17.820312 -44.382812 C 30.34375 -44.382812 45.222656 -8.742188 58.589844 0 L 68.507812 0 C 64.222656 -3.027344 56.992188 -10.421875 51.023438 -18.996094 C 39.507812 -35.472656 33.121094 -45.8125 22.359375 -45.8125 L 20.59375 -45.8125 C 18.074219 -45.8125 17.738281 -46.90625 19.753906 -48.417969 L 65.902344 -84.058594 L 55.394531 -84.058594 C 44.382812 -73.46875 30.175781 -59.851562 16.558594 -47.996094 C 15.804688 -47.324219 15.214844 -47.074219 14.710938 -47.074219 C 13.871094 -47.074219 13.367188 -47.828125 13.367188 -49.425781 L 13.367188 -84.058594 L 6.726562 -84.058594 Z M 6.726562 0 "/></g></g></g><g clip-path="url(#b244bca3f7)"><path fill="#000000" d="M 262.261719 360.988281 C 262.261719 367.359375 257.097656 372.523438 250.726562 372.523438 C 257.097656 372.523438 262.261719 377.6875 262.261719 384.058594 C 262.261719 377.6875 267.429688 372.523438 273.796875 372.523438 C 267.429688 372.523438 262.261719 367.359375 262.261719 360.988281 Z M 262.261719 360.988281 " fill-opacity="1" fill-rule="nonzero"/></g><g clip-path="url(#e30dcf6c49)"><path fill="#000000" d="M 383.457031 256.625 C 348.648438 256.625 317.136719 270.734375 294.332031 293.539062 C 280.851562 307.019531 270.410156 323.539062 264.128906 341.980469 L 262.265625 341.980469 C 268.617188 323.050781 279.28125 306.101562 293.085938 292.296875 C 316.214844 269.171875 348.167969 254.863281 383.460938 254.863281 L 383.460938 256.625 Z M 383.457031 256.625 " fill-opacity="1" fill-rule="evenodd"/></g><g clip-path="url(#58a9bc9791)"><path fill="#000000" d="M 269.34375 406.203125 C 269.34375 412.574219 264.179688 417.738281 257.808594 417.738281 C 264.179688 417.738281 269.34375 422.902344 269.34375 429.273438 C 269.34375 422.902344 274.507812 417.738281 280.878906 417.738281 C 274.507812 417.738281 269.34375 412.574219 269.34375 406.203125 Z M 269.34375 406.203125 " fill-opacity="1" fill-rule="nonzero"/></g></svg>