<svg width="25" height="28" viewBox="0 0 25 28" fill="none" xmlns="http://www.w3.org/2000/svg">
<path d="M20.4394 19.2157C19.4047 19.2134 18.478 19.6196 17.7686 20.2579L8.07481 14.5856C8.1436 14.2727 8.19878 13.9597 8.19953 13.6329C8.20029 13.3062 8.14655 12.9929 8.07921 12.6797L17.69 7.10642C18.4236 7.78882 19.3893 8.21309 20.4648 8.21557C22.7247 8.22078 24.5532 6.40071 24.5584 4.14077C24.5636 1.88083 22.7436 0.0523358 20.4836 0.047121C18.2237 0.0419063 16.3952 1.86198 16.39 4.12192C16.3892 4.44866 16.443 4.76191 16.5103 5.07519L6.89946 10.6484C6.16587 9.96603 5.20025 9.54176 4.12473 9.53928C1.8648 9.53406 0.0363007 11.3541 0.031086 13.6141C0.0258712 15.874 1.84595 17.7025 4.10589 17.7077C5.1814 17.7102 6.14897 17.2904 6.8857 16.6114L16.5659 22.2972C16.4971 22.583 16.4556 22.8824 16.4549 23.1819C16.4498 25.3737 18.2292 27.1613 20.421 27.1664C22.6129 27.1714 24.4005 25.3921 24.4055 23.2002C24.4106 21.0084 22.6313 19.2208 20.4394 19.2157ZM20.4773 2.76994C21.2261 2.77166 21.8373 3.38571 21.8356 4.13449C21.8339 4.88326 21.2198 5.49448 20.4711 5.49275C19.7223 5.49102 19.1111 4.87698 19.1128 4.1282C19.1145 3.37943 19.7286 2.76821 20.4773 2.76994ZM4.11217 14.9849C3.36339 14.9832 2.75217 14.3691 2.7539 13.6204C2.75563 12.8716 3.36968 12.2604 4.11845 12.2621C4.86723 12.2638 5.47845 12.8779 5.47672 13.6266C5.47499 14.3754 4.86094 14.9866 4.11217 14.9849ZM20.427 24.5797C19.6782 24.578 19.067 23.9639 19.0687 23.2151C19.0705 22.4664 19.6845 21.8551 20.4333 21.8569C21.1821 21.8586 21.7933 22.4726 21.7916 23.2214C21.7898 23.9702 21.1758 24.5814 20.427 24.5797Z" fill="white"/>
</svg>
