<svg width="58" height="56" viewBox="0 0 58 56" fill="none" xmlns="http://www.w3.org/2000/svg">
<path fill-rule="evenodd" clip-rule="evenodd" d="M52.8336 27.0722V39.667C52.8336 41.3695 52.1417 42.9132 51.0274 44.0275C49.9131 45.1418 48.3694 45.8337 46.667 45.8337H9.33365C7.63119 45.8337 6.08747 45.1418 4.97316 44.0275C3.85886 42.9132 3.16699 41.3695 3.16699 39.667V16.3337C3.16699 14.6238 3.86493 13.074 4.98779 11.9586C6.10096 10.8529 7.63867 10.167 9.33365 10.167H35.9285C35.5479 11.1168 35.2761 12.122 35.1286 13.167H9.33365C9.06687 13.167 8.80801 13.1999 8.56077 13.2618L27.4467 30.168L27.448 30.1692C27.7632 30.4481 28.2369 30.4483 28.5522 30.1695L28.5539 30.168L37.2784 22.3538C37.8474 23.1818 38.5098 23.9406 39.2504 24.615L37.1482 26.4978L49.7324 40.4657C49.7985 40.2107 49.8336 39.9431 49.8336 39.667V27.8721C50.8787 27.7246 51.8838 27.4528 52.8336 27.0722ZM34.9135 28.4994L47.6793 42.6688C47.3616 42.7759 47.0213 42.8337 46.667 42.8337H9.33365C9.01627 42.8337 8.71011 42.7873 8.42135 42.7007L21.8962 29.2258L25.4496 32.4067L25.4536 32.4102C26.906 33.7012 29.0946 33.7012 30.547 32.4102L30.5512 32.4065L34.9135 28.4994ZM19.6576 27.2218L6.30003 40.5793C6.21342 40.2906 6.16699 39.9844 6.16699 39.667V16.3337C6.16699 15.9713 6.22753 15.6235 6.33931 15.2996L19.6576 27.2218Z" fill="white"/>
<path d="M48 23.5C52.6944 23.5 56.5 19.6944 56.5 15C56.5 10.3056 52.6944 6.5 48 6.5C43.3056 6.5 39.5 10.3056 39.5 15C39.5 19.6944 43.3056 23.5 48 23.5Z" fill="#7F56D9" stroke="white" stroke-width="3"/>
</svg>
