<svg width="32" height="32" viewBox="0 0 32 32" fill="none" xmlns="http://www.w3.org/2000/svg">
<path d="M16.1822 15.0127V17.8171H20.8246C20.6354 19.0209 19.4208 21.3462 16.1822 21.3462C13.3911 21.3462 11.1108 19.0342 11.1108 16.1817C11.1108 13.3292 13.3905 11.0172 16.1822 11.0172C17.7721 11.0172 18.8378 11.6912 19.4449 12.2772L21.6638 10.1386C20.2391 8.80953 18.3929 8 16.1822 8C11.6595 8 8 11.6569 8 16.1822C8 20.7075 11.6595 24.3644 16.1822 24.3644C20.9044 24.3644 24.0397 21.0455 24.0397 16.3689C24.0397 15.8309 23.9809 15.4208 23.9093 15.0132L16.1822 15.0127Z" fill="#5B5F62"/>
<circle cx="16" cy="16" r="15.5" stroke="#5B5F62"/>
</svg>
