<svg width="28" height="29" viewBox="0 0 28 29" fill="none" xmlns="http://www.w3.org/2000/svg">
<mask id="mask0_236_357" style="mask-type:alpha" maskUnits="userSpaceOnUse" x="0" y="0" width="28" height="29">
<rect x="0.78418" y="0.934082" width="27.0541" height="27.4368" fill="#D9D9D9"/>
</mask>
<g mask="url(#mask0_236_357)">
<path d="M14.315 14.3448C14.8168 14.3448 15.2451 14.1636 15.5999 13.8012C15.9547 13.4388 16.1321 13.0031 16.1321 12.4942C16.1321 11.9853 15.9534 11.5509 15.5961 11.1911C15.2387 10.8313 14.8092 10.6514 14.3073 10.6514C13.8055 10.6514 13.3772 10.8326 13.0224 11.195C12.6676 11.5574 12.4902 11.993 12.4902 12.502C12.4902 13.0109 12.6689 13.4453 13.0262 13.8051C13.3836 14.1649 13.8132 14.3448 14.315 14.3448ZM14.3112 23.4288C16.4298 21.5587 18.1048 19.6566 19.3361 17.7227C20.5674 15.7888 21.1831 14.1161 21.1831 12.7047C21.1831 10.6133 20.5302 8.88711 19.2245 7.52626C17.9187 6.16541 16.281 5.48499 14.3112 5.48499C12.3414 5.48499 10.7036 6.16541 9.39787 7.52626C8.09213 8.88711 7.43927 10.6133 7.43927 12.7047C7.43927 14.1161 8.05491 15.7888 9.28621 17.7227C10.5175 19.6566 12.1925 21.5587 14.3112 23.4288ZM14.3112 24.9633C11.6621 22.5875 9.66667 20.3719 8.32481 18.3163C6.98294 16.2607 6.31201 14.3902 6.31201 12.7047C6.31201 10.2864 7.08845 8.29168 8.64131 6.7205C10.1942 5.14935 12.0841 4.36377 14.3112 4.36377C16.5382 4.36377 18.4282 5.14935 19.981 6.7205C21.5339 8.29168 22.3103 10.2864 22.3103 12.7047C22.3103 14.3902 21.6394 16.2607 20.2975 18.3163C18.9557 20.3719 16.9602 22.5875 14.3112 24.9633Z" fill="#1C1B1F"/>
</g>
</svg>
