<svg width="34" height="30" viewBox="0 0 34 30" fill="none" xmlns="http://www.w3.org/2000/svg">
<path fill-rule="evenodd" clip-rule="evenodd" d="M6.23743 12.2664C6.23743 7.04011 10.4742 2.80335 15.7005 2.80335C20.9268 2.80335 25.1636 7.04011 25.1636 12.2664C25.1636 17.4927 20.9268 21.7295 15.7005 21.7295C10.4742 21.7295 6.23743 17.4927 6.23743 12.2664ZM15.7005 0.306152C9.09503 0.306152 3.74023 5.66095 3.74023 12.2664C3.74023 18.8719 9.09503 24.2267 15.7005 24.2267C18.5542 24.2267 21.1745 23.2273 23.2304 21.5594L31.3744 29.7034L33.1402 27.9376L24.9959 19.7933C26.6623 17.7378 27.6608 15.1187 27.6608 12.2664C27.6608 5.66095 22.306 0.306152 15.7005 0.306152Z" fill="black"/>
</svg>
