<svg xmlns="http://www.w3.org/2000/svg" xmlns:xlink="http://www.w3.org/1999/xlink" width="1080" zoomAndPan="magnify" viewBox="0 0 810 809.999993" height="1080" preserveAspectRatio="xMidYMid meet" version="1.0"><defs><g/></defs><g fill="#080808" fill-opacity="1"><g transform="translate(291.965337, 440.174804)"><g><path d="M 16.871094 -138.289062 L 72.472656 1.1875 L 79.125 1.1875 L 133.0625 -138.289062 C 139.953125 -156.347656 145.894531 -161.101562 152.308594 -163.238281 L 152.308594 -166.328125 L 125.695312 -166.328125 L 125.695312 -163.238281 C 133.777344 -161.578125 134.726562 -153.734375 128.785156 -138.054688 L 83.640625 -20.671875 L 37.78125 -138.289062 C 30.652344 -156.347656 28.988281 -161.101562 36.117188 -163.238281 L 36.117188 -166.328125 L -0.949219 -166.328125 L -0.949219 -163.238281 C 4.039062 -161.101562 9.742188 -156.347656 16.871094 -138.289062 Z M 16.871094 -138.289062 "/></g></g></g><g fill="#080808" fill-opacity="1"><g transform="translate(369.741714, 501.861979)"><g><path d="M 133.0625 1.664062 C 137.816406 1.664062 143.992188 1.1875 147.558594 0 L 147.558594 -2.851562 C 146.371094 -2.613281 145.179688 -2.613281 143.753906 -2.613281 C 135.675781 -2.613281 130.925781 -10.453125 119.519531 -38.96875 C 108.113281 -68.195312 103.597656 -82.6875 74.371094 -86.492188 C 105.261719 -90.054688 121.417969 -106.925781 121.417969 -129.261719 C 121.417969 -150.410156 107.164062 -166.328125 58.929688 -166.328125 L 12.117188 -166.328125 L 12.117188 -163.238281 C 19.484375 -161.101562 21.621094 -155.636719 21.621094 -136.152344 L 21.621094 -30.175781 C 21.621094 -10.691406 19.484375 -5.226562 12.117188 -3.089844 L 12.117188 0 L 50.613281 0 L 50.613281 -3.089844 C 43.246094 -5.226562 41.105469 -10.691406 41.105469 -30.175781 L 41.105469 -85.777344 L 56.3125 -85.777344 C 84.828125 -85.777344 86.726562 -69.144531 100.511719 -36.355469 C 110.964844 -11.644531 114.765625 1.664062 133.0625 1.664062 Z M 41.105469 -89.34375 L 41.105469 -162.289062 C 44.910156 -162.527344 48.710938 -162.765625 52.273438 -162.765625 C 87.441406 -162.765625 101.222656 -144.945312 101.222656 -123.796875 C 101.222656 -103.597656 88.390625 -89.34375 61.066406 -89.34375 Z M 41.105469 -89.34375 "/></g></g></g><g fill="#080808" fill-opacity="1"><g transform="translate(433.460334, 326.051879)"><g><path d="M 7.316406 -8.902344 C 9.761719 -8.316406 11.433594 -7.675781 12.324219 -6.953125 C 12.933594 -6.453125 13.242188 -5.8125 13.242188 -5.035156 C 13.242188 -4.253906 13.074219 -3.617188 12.738281 -3.171875 C 11.90625 -2.003906 10.402344 -1.417969 8.289062 -1.417969 C 5.339844 -1.417969 3.671875 -2.421875 3.308594 -4.421875 L 1.027344 -4.421875 C 1.695312 -1.222656 4.117188 0.363281 8.289062 0.363281 C 10.152344 0.363281 11.710938 -0.0273438 12.960938 -0.863281 C 14.464844 -1.835938 15.242188 -3.28125 15.242188 -5.171875 C 15.242188 -6.730469 14.632812 -7.925781 13.40625 -8.761719 C 12.546875 -9.375 11.152344 -9.929688 9.234375 -10.429688 C 7.289062 -10.933594 6.035156 -11.347656 5.453125 -11.65625 C 4.171875 -12.292969 3.53125 -13.183594 3.558594 -14.351562 C 3.558594 -14.964844 3.671875 -15.492188 3.949219 -15.882812 C 4.671875 -16.96875 5.953125 -17.523438 7.789062 -17.523438 C 10.375 -17.523438 11.847656 -16.691406 12.238281 -15.078125 L 14.351562 -15.078125 C 13.65625 -17.800781 11.460938 -19.191406 7.789062 -19.191406 C 6.121094 -19.191406 4.644531 -18.746094 3.421875 -17.859375 C 2.167969 -16.96875 1.53125 -15.660156 1.53125 -13.878906 C 1.53125 -11.460938 3.476562 -9.792969 7.316406 -8.902344 Z M 7.316406 -8.902344 "/></g></g></g><g fill="#080808" fill-opacity="1"><g transform="translate(453.87692, 326.051879)"><g><path d="M 5.144531 -6.953125 L 8.59375 -15.660156 L 12.015625 -6.953125 Z M 16.882812 0 L 8.59375 -20.222656 L 0.277344 0 L 2.390625 0 L 4.421875 -5.144531 L 12.738281 -5.144531 L 14.769531 0 Z M 16.882812 0 "/></g></g></g><g fill="#080808" fill-opacity="1"><g transform="translate(475.489548, 326.051879)"><g><path d="M 4.035156 -1.945312 L 4.035156 -18.914062 L 2.085938 -18.914062 L 2.085938 0 L 10.792969 0 L 10.792969 -1.945312 Z M 4.035156 -1.945312 "/></g></g></g><g fill="#080808" fill-opacity="1"><g transform="translate(491.288864, 326.051879)"><g><path d="M 18.746094 -9.511719 C 18.746094 -7.34375 17.96875 -5.507812 16.46875 -4.003906 C 14.9375 -2.476562 13.101562 -1.722656 10.960938 -1.722656 C 8.816406 -1.722656 6.980469 -2.476562 5.480469 -4.003906 C 3.949219 -5.507812 3.199219 -7.34375 3.199219 -9.511719 C 3.199219 -11.628906 3.949219 -13.464844 5.480469 -14.992188 C 6.980469 -16.496094 8.816406 -17.273438 10.960938 -17.273438 C 13.101562 -17.273438 14.9375 -16.496094 16.46875 -14.992188 C 17.96875 -13.464844 18.746094 -11.628906 18.746094 -9.511719 Z M 20.695312 -9.511719 C 20.695312 -10.847656 20.417969 -12.101562 19.917969 -13.296875 C 19.414062 -14.464844 18.71875 -15.492188 17.828125 -16.382812 C 16.941406 -17.246094 15.910156 -17.941406 14.742188 -18.441406 C 13.546875 -18.941406 12.292969 -19.222656 10.960938 -19.222656 C 9.625 -19.222656 8.34375 -18.941406 7.175781 -18.441406 C 6.007812 -17.941406 4.980469 -17.246094 4.089844 -16.382812 C 3.199219 -15.492188 2.503906 -14.464844 2.003906 -13.296875 C 1.503906 -12.101562 1.25 -10.847656 1.25 -9.511719 C 1.25 -8.179688 1.503906 -6.898438 2.003906 -5.730469 C 2.503906 -4.535156 3.199219 -3.503906 4.089844 -2.613281 C 4.980469 -1.722656 6.007812 -1.027344 7.175781 -0.527344 C 8.34375 -0.0273438 9.625 0.222656 10.960938 0.222656 C 12.292969 0.222656 13.546875 -0.0273438 14.742188 -0.527344 C 15.910156 -1.027344 16.941406 -1.722656 17.828125 -2.613281 C 18.71875 -3.503906 19.414062 -4.535156 19.917969 -5.730469 C 20.417969 -6.898438 20.695312 -8.179688 20.695312 -9.511719 Z M 20.695312 -9.511719 "/></g></g></g><g fill="#080808" fill-opacity="1"><g transform="translate(517.685657, 326.051879)"><g><path d="M 4.035156 -13.9375 L 14.660156 1.167969 L 14.660156 -18.914062 L 12.710938 -18.914062 L 12.710938 -5.007812 L 2.085938 -20.109375 L 2.085938 0 L 4.035156 0 Z M 4.035156 -13.9375 "/></g></g></g><g fill="#080808" fill-opacity="1"><g transform="translate(240.099827, 477.02913)"><g><path d="M 5.144531 -6.953125 L 8.59375 -15.660156 L 12.015625 -6.953125 Z M 16.882812 0 L 8.59375 -20.222656 L 0.277344 0 L 2.390625 0 L 4.421875 -5.144531 L 12.738281 -5.144531 L 14.769531 0 Z M 16.882812 0 "/></g></g></g><g fill="#080808" fill-opacity="1"><g transform="translate(261.712455, 477.02913)"><g><path d="M 19.441406 -5.785156 L 17.300781 -5.785156 C 16.632812 -4.5625 15.714844 -3.558594 14.546875 -2.835938 C 13.378906 -2.085938 12.070312 -1.722656 10.679688 -1.722656 C 8.59375 -1.722656 6.816406 -2.476562 5.339844 -4.035156 C 3.894531 -5.507812 3.199219 -7.316406 3.199219 -9.429688 C 3.199219 -11.542969 3.894531 -13.351562 5.339844 -14.855469 C 6.007812 -15.550781 6.816406 -16.105469 7.734375 -16.523438 C 8.621094 -16.941406 9.511719 -17.164062 10.402344 -17.164062 C 11.265625 -17.164062 12.015625 -17.050781 12.683594 -16.855469 C 14.714844 -16.246094 16.246094 -15.019531 17.273438 -13.15625 L 19.414062 -13.15625 C 18.691406 -14.9375 17.550781 -16.382812 15.964844 -17.496094 C 14.351562 -18.609375 12.601562 -19.164062 10.679688 -19.164062 C 8.039062 -19.164062 5.8125 -18.191406 3.976562 -16.273438 C 3.117188 -15.382812 2.449219 -14.324219 1.976562 -13.15625 C 1.472656 -11.988281 1.25 -10.738281 1.25 -9.429688 C 1.25 -6.757812 2.140625 -4.507812 3.976562 -2.613281 C 5.8125 -0.667969 8.039062 0.277344 10.679688 0.277344 C 12.601562 0.277344 14.351562 -0.277344 15.996094 -1.390625 C 17.578125 -2.503906 18.71875 -3.949219 19.441406 -5.785156 Z M 19.441406 -5.785156 "/></g></g></g><g fill="#080808" fill-opacity="1"><g transform="translate(286.440357, 477.02913)"><g><path d="M 5.144531 -6.953125 L 8.59375 -15.660156 L 12.015625 -6.953125 Z M 16.882812 0 L 8.59375 -20.222656 L 0.277344 0 L 2.390625 0 L 4.421875 -5.144531 L 12.738281 -5.144531 L 14.769531 0 Z M 16.882812 0 "/></g></g></g><g fill="#080808" fill-opacity="1"><g transform="translate(308.052987, 477.02913)"><g><path d="M 16.773438 -9.457031 C 16.773438 -10.820312 16.496094 -12.070312 15.996094 -13.242188 C 15.492188 -14.410156 14.796875 -15.410156 13.9375 -16.246094 C 13.046875 -17.078125 12.015625 -17.71875 10.847656 -18.191406 C 9.652344 -18.664062 8.371094 -18.914062 7.039062 -18.914062 L 2.085938 -18.914062 L 2.085938 0 L 7.039062 0 C 8.371094 0 9.652344 -0.222656 10.847656 -0.695312 C 12.015625 -1.167969 13.046875 -1.835938 13.9375 -2.671875 C 14.796875 -3.503906 15.492188 -4.476562 15.996094 -5.648438 C 16.496094 -6.816406 16.773438 -8.066406 16.773438 -9.457031 Z M 14.882812 -9.457031 C 14.882812 -7.289062 14.101562 -5.480469 12.601562 -4.0625 C 11.097656 -2.640625 9.261719 -1.945312 7.09375 -1.945312 L 4.035156 -1.945312 L 4.035156 -16.96875 L 7.09375 -16.96875 C 9.261719 -16.96875 11.097656 -16.246094 12.601562 -14.855469 C 14.101562 -13.40625 14.882812 -11.597656 14.882812 -9.457031 Z M 14.882812 -9.457031 "/></g></g></g><g fill="#080808" fill-opacity="1"><g transform="translate(330.527875, 477.02913)"><g><path d="M 13.324219 0 L 13.324219 -1.808594 L 4.035156 -1.808594 L 4.035156 -8.539062 L 13.046875 -8.539062 L 13.046875 -10.375 L 4.035156 -10.375 L 4.035156 -17.105469 L 13.324219 -17.105469 L 13.324219 -18.914062 L 2.085938 -18.914062 L 2.085938 0 Z M 13.324219 0 "/></g></g></g><g fill="#080808" fill-opacity="1"><g transform="translate(350.388162, 477.02913)"><g><path d="M 19.527344 0 L 21.5 0 L 17.105469 -20.167969 L 10.902344 -3.976562 L 4.699219 -20.167969 L 0.277344 0 L 2.28125 0 L 5.203125 -13.464844 L 10.902344 1.113281 L 16.578125 -13.464844 Z M 19.527344 0 "/></g></g></g><g fill="#080808" fill-opacity="1"><g transform="translate(376.618076, 477.02913)"><g><path d="M 9.402344 -8.902344 L 16.550781 -18.914062 L 14.074219 -18.914062 L 8.429688 -10.820312 L 2.78125 -18.914062 L 0.277344 -18.914062 L 7.453125 -8.875 L 7.453125 0 L 9.402344 0 Z M 9.402344 -8.902344 "/></g></g></g><g fill="#080808" fill-opacity="1"><g transform="translate(397.902671, 477.02913)"><g/></g></g></svg>