<svg width="13" height="13" viewBox="0 0 13 13" fill="none" xmlns="http://www.w3.org/2000/svg">
<g clip-path="url(#clip0_5_2916)">
<path d="M4.19035 10.6186L7.93679 6.81202C8.01895 6.72897 8.06504 6.61685 8.06504 6.50002C8.06504 6.38319 8.01895 6.27108 7.93679 6.18802L4.19116 2.38146C4.10942 2.29769 4.06367 2.18528 4.06367 2.06824C4.06367 1.9512 4.10942 1.83879 4.19116 1.75502C4.23128 1.71387 4.27923 1.68117 4.33219 1.65883C4.38514 1.6365 4.44204 1.625 4.49951 1.625C4.55698 1.625 4.61387 1.6365 4.66682 1.65883C4.71978 1.68117 4.76773 1.71387 4.80785 1.75502L8.55348 5.56077C8.7996 5.81145 8.9375 6.14872 8.9375 6.50002C8.9375 6.85133 8.7996 7.1886 8.55348 7.43927L4.80785 11.245C4.76772 11.2863 4.71972 11.3191 4.66669 11.3415C4.61366 11.3639 4.55667 11.3755 4.4991 11.3755C4.44153 11.3755 4.38455 11.3639 4.33151 11.3415C4.27848 11.3191 4.23048 11.2863 4.19035 11.245C4.10861 11.1613 4.06286 11.0488 4.06286 10.9318C4.06286 10.8148 4.10861 10.7024 4.19035 10.6186Z" fill="black"/>
<path d="M0.12785 10.6186L3.87429 6.81202C3.95645 6.72897 4.00254 6.61685 4.00254 6.50002C4.00254 6.38319 3.95645 6.27108 3.87429 6.18802L0.128663 2.38146C0.0469241 2.29769 0.00117111 2.18528 0.00117111 2.06824C0.00117111 1.9512 0.0469241 1.83879 0.128663 1.75502C0.168782 1.71387 0.216732 1.68117 0.269688 1.65883C0.322644 1.6365 0.379535 1.625 0.437007 1.625C0.494479 1.625 0.551369 1.6365 0.604325 1.65883C0.657281 1.68117 0.705232 1.71387 0.74535 1.75502L4.49098 5.56077C4.7371 5.81145 4.875 6.14872 4.875 6.50002C4.875 6.85133 4.7371 7.1886 4.49098 7.43927L0.74535 11.245C0.705219 11.2863 0.657218 11.3191 0.604187 11.3415C0.551156 11.3639 0.49417 11.3755 0.4366 11.3755C0.37903 11.3755 0.322045 11.3639 0.269014 11.3415C0.215983 11.3191 0.167982 11.2863 0.12785 11.245C0.0461116 11.1613 0.000358582 11.0488 0.000358582 10.9318C0.000358582 10.8148 0.0461116 10.7024 0.12785 10.6186Z" fill="black"/>
</g>
<defs>
<clipPath id="clip0_5_2916">
<rect width="13" height="13" fill="white" transform="matrix(-1 0 0 1 13 0)"/>
</clipPath>
</defs>
</svg>
