<svg width="32" height="32" viewBox="0 0 32 32" fill="none" xmlns="http://www.w3.org/2000/svg">
<path d="M16.6668 24C16.6668 24.3682 16.3684 24.6667 16.0002 24.6667C15.632 24.6667 15.3335 24.3682 15.3335 24C15.3335 23.6319 15.632 23.3334 16.0002 23.3334C16.3684 23.3334 16.6668 23.6319 16.6668 24Z" stroke="black"/>
<path d="M12.6665 19.417C13.6019 18.7355 14.7539 18.3334 15.9998 18.3334C17.2458 18.3334 18.3978 18.7355 19.3332 19.417" stroke="black" stroke-width="1.5" stroke-linecap="round" stroke-linejoin="round"/>
<path d="M22.2837 14.9701C20.5024 13.7282 18.3364 13 16.0003 13C13.6641 13 11.4981 13.7282 9.7168 14.9701" stroke="black" stroke-width="1.5" stroke-linecap="round" stroke-linejoin="round"/>
<path d="M6.6665 10.5942C9.31212 8.74886 12.5296 7.66663 15.9998 7.66663C19.4701 7.66663 22.6876 8.74886 25.3332 10.5942" stroke="black" stroke-width="1.5" stroke-linecap="round" stroke-linejoin="round"/>
</svg>
