<svg xmlns="http://www.w3.org/2000/svg" xmlns:xlink="http://www.w3.org/1999/xlink" width="1080" zoomAndPan="magnify" viewBox="0 0 810 809.999993" height="1080" preserveAspectRatio="xMidYMid meet" version="1.0"><defs><g/><clipPath id="21bbbb0608"><path d="M 221.871094 216 L 587.808594 216 L 587.808594 594 L 221.871094 594 Z M 221.871094 216 " clip-rule="nonzero"/></clipPath></defs><g clip-path="url(#21bbbb0608)"><path fill="#3d3b3a" d="M 358.953125 221.746094 C 361.921875 221.003906 364.902344 220.332031 367.902344 219.730469 C 370.902344 219.132812 373.914062 218.605469 376.9375 218.152344 C 379.964844 217.699219 383 217.320312 386.042969 217.015625 C 389.085938 216.710938 392.132812 216.480469 395.1875 216.320312 C 398.242188 216.164062 401.300781 216.082031 404.359375 216.074219 C 407.417969 216.0625 410.472656 216.128906 413.53125 216.269531 C 416.585938 216.410156 419.636719 216.621094 422.679688 216.910156 C 425.726562 217.199219 428.761719 217.5625 431.789062 217.996094 C 434.816406 218.433594 437.832031 218.941406 440.835938 219.523438 C 443.835938 220.105469 446.824219 220.757812 449.796875 221.488281 C 452.765625 222.214844 455.71875 223.011719 458.648438 223.882812 C 461.582031 224.753906 464.492188 225.695312 467.378906 226.707031 C 470.265625 227.71875 473.125 228.800781 475.957031 229.949219 C 478.792969 231.101562 481.597656 232.320312 484.371094 233.609375 C 487.144531 234.894531 489.886719 236.25 492.597656 237.667969 C 495.304688 239.089844 497.976562 240.574219 500.613281 242.125 C 503.25 243.675781 505.847656 245.289062 508.40625 246.964844 C 510.964844 248.640625 513.480469 250.378906 515.957031 252.179688 C 518.429688 253.976562 520.859375 255.835938 523.242188 257.753906 C 525.625 259.667969 527.960938 261.640625 530.25 263.671875 C 532.535156 265.703125 534.773438 267.789062 536.960938 269.925781 C 539.148438 272.066406 541.28125 274.257812 543.359375 276.5 C 545.441406 278.742188 547.464844 281.03125 549.433594 283.375 C 551.402344 285.714844 553.3125 288.101562 555.164062 290.535156 C 557.015625 292.96875 558.808594 295.445312 560.542969 297.96875 C 562.273438 300.488281 563.945312 303.050781 565.550781 305.652344 C 567.160156 308.253906 568.703125 310.894531 570.183594 313.570312 C 571.660156 316.25 573.074219 318.960938 574.421875 321.707031 C 575.769531 324.449219 577.050781 327.226562 578.265625 330.035156 C 579.476562 332.84375 580.621094 335.679688 581.695312 338.542969 C 582.769531 341.40625 583.777344 344.292969 584.710938 347.207031 C 585.644531 350.121094 586.507812 353.050781 587.300781 356.007812 C 587.59375 357.097656 587.882812 358.207031 588.160156 359.34375 L 585.273438 360.347656 C 584.980469 359.164062 584.675781 357.976562 584.359375 356.792969 C 583.574219 353.863281 582.71875 350.957031 581.792969 348.070312 C 580.863281 345.183594 579.867188 342.320312 578.800781 339.484375 C 577.734375 336.644531 576.597656 333.835938 575.394531 331.054688 C 574.1875 328.273438 572.917969 325.519531 571.578125 322.800781 C 570.238281 320.082031 568.832031 317.398438 567.363281 314.746094 C 565.894531 312.09375 564.359375 309.480469 562.757812 306.90625 C 561.160156 304.328125 559.5 301.792969 557.777344 299.300781 C 556.054688 296.804688 554.273438 294.355469 552.429688 291.949219 C 550.585938 289.539062 548.683594 287.179688 546.726562 284.867188 C 544.769531 282.550781 542.753906 280.289062 540.6875 278.070312 C 538.617188 275.855469 536.492188 273.691406 534.320312 271.582031 C 532.144531 269.46875 529.917969 267.414062 527.640625 265.410156 C 525.367188 263.40625 523.042969 261.460938 520.671875 259.574219 C 518.300781 257.683594 515.882812 255.855469 513.421875 254.082031 C 510.960938 252.3125 508.460938 250.605469 505.914062 248.957031 C 503.371094 247.308594 500.789062 245.722656 498.164062 244.203125 C 495.542969 242.679688 492.886719 241.222656 490.191406 239.832031 C 487.5 238.441406 484.773438 237.117188 482.015625 235.859375 C 479.257812 234.601562 476.46875 233.410156 473.652344 232.289062 C 470.835938 231.167969 467.996094 230.117188 465.125 229.132812 C 462.257812 228.152344 459.367188 227.238281 456.457031 226.398438 C 453.542969 225.558594 450.609375 224.789062 447.660156 224.09375 C 444.710938 223.394531 441.746094 222.769531 438.765625 222.21875 C 435.785156 221.667969 432.789062 221.1875 429.785156 220.78125 C 426.78125 220.378906 423.769531 220.046875 420.75 219.789062 C 417.730469 219.53125 414.703125 219.34375 411.675781 219.234375 C 408.644531 219.125 405.613281 219.089844 402.582031 219.128906 C 399.550781 219.167969 396.523438 219.28125 393.496094 219.46875 C 390.472656 219.652344 387.453125 219.914062 384.4375 220.25 C 381.425781 220.582031 378.421875 220.992188 375.429688 221.472656 C 372.4375 221.957031 369.457031 222.511719 366.492188 223.136719 C 363.527344 223.765625 360.578125 224.464844 357.644531 225.238281 C 358.101562 224.085938 358.542969 222.933594 358.953125 221.753906 Z M 224.757812 450.039062 C 225.003906 451.011719 225.25 451.976562 225.511719 452.949219 C 226.296875 455.882812 227.15625 458.796875 228.085938 461.691406 C 229.015625 464.585938 230.015625 467.453125 231.085938 470.296875 C 232.15625 473.140625 233.296875 475.957031 234.503906 478.746094 C 235.714844 481.535156 236.988281 484.292969 238.332031 487.019531 C 239.675781 489.746094 241.085938 492.4375 242.5625 495.09375 C 244.039062 497.75 245.582031 500.367188 247.183594 502.949219 C 248.789062 505.53125 250.457031 508.070312 252.1875 510.570312 C 253.914062 513.066406 255.707031 515.523438 257.554688 517.933594 C 259.40625 520.347656 261.3125 522.710938 263.277344 525.027344 C 265.246094 527.347656 267.265625 529.613281 269.34375 531.832031 C 271.421875 534.050781 273.550781 536.21875 275.734375 538.332031 C 277.917969 540.445312 280.152344 542.503906 282.4375 544.507812 C 284.722656 546.511719 287.054688 548.460938 289.433594 550.347656 C 291.8125 552.238281 294.238281 554.070312 296.710938 555.839844 C 299.179688 557.609375 301.691406 559.320312 304.246094 560.96875 C 306.800781 562.613281 309.390625 564.199219 312.023438 565.71875 C 314.65625 567.238281 317.324219 568.695312 320.027344 570.082031 C 322.730469 571.472656 325.464844 572.792969 328.230469 574.050781 C 331 575.304688 333.796875 576.492188 336.625 577.609375 C 339.449219 578.726562 342.300781 579.773438 345.179688 580.753906 C 348.058594 581.730469 350.957031 582.636719 353.878906 583.472656 C 356.800781 584.308594 359.742188 585.070312 362.699219 585.761719 C 365.660156 586.453125 368.636719 587.070312 371.625 587.617188 C 374.613281 588.160156 377.617188 588.632812 380.628906 589.03125 C 383.644531 589.429688 386.664062 589.75 389.691406 590 C 392.722656 590.25 395.753906 590.425781 398.792969 590.527344 C 401.828125 590.628906 404.867188 590.652344 407.90625 590.605469 C 410.945312 590.554688 413.980469 590.433594 417.015625 590.234375 C 420.046875 590.039062 423.074219 589.765625 426.09375 589.421875 C 429.113281 589.074219 432.121094 588.65625 435.121094 588.160156 C 438.117188 587.667969 441.101562 587.101562 444.074219 586.460938 C 447.046875 585.820312 450 585.105469 452.933594 584.320312 C 452.460938 585.476562 452.003906 586.636719 451.578125 587.8125 C 448.605469 588.570312 445.621094 589.253906 442.613281 589.863281 C 439.609375 590.476562 436.59375 591.015625 433.5625 591.476562 C 430.53125 591.941406 427.492188 592.332031 424.445312 592.648438 C 421.394531 592.964844 418.339844 593.207031 415.277344 593.375 C 412.21875 593.542969 409.152344 593.632812 406.085938 593.652344 C 403.023438 593.671875 399.957031 593.613281 396.894531 593.484375 C 393.832031 593.351562 390.773438 593.148438 387.722656 592.867188 C 384.667969 592.585938 381.625 592.234375 378.589844 591.804688 C 375.554688 591.375 372.53125 590.875 369.519531 590.300781 C 366.507812 589.722656 363.511719 589.074219 360.53125 588.355469 C 357.550781 587.632812 354.59375 586.839844 351.652344 585.972656 C 348.710938 585.109375 345.792969 584.171875 342.894531 583.164062 C 340 582.15625 337.132812 581.078125 334.289062 579.929688 C 331.445312 578.785156 328.632812 577.566406 325.847656 576.285156 C 323.066406 575 320.316406 573.648438 317.597656 572.230469 C 314.878906 570.8125 312.195312 569.328125 309.550781 567.777344 C 306.90625 566.230469 304.300781 564.617188 301.734375 562.941406 C 299.164062 561.265625 296.640625 559.527344 294.15625 557.730469 C 291.675781 555.929688 289.238281 554.074219 286.847656 552.15625 C 284.453125 550.238281 282.109375 548.261719 279.816406 546.230469 C 277.519531 544.199219 275.273438 542.113281 273.078125 539.972656 C 270.886719 537.832031 268.746094 535.636719 266.65625 533.390625 C 264.570312 531.148438 262.539062 528.851562 260.5625 526.507812 C 258.585938 524.164062 256.667969 521.773438 254.808594 519.335938 C 252.953125 516.898438 251.152344 514.417969 249.414062 511.890625 C 247.675781 509.367188 246 506.800781 244.386719 504.191406 C 242.773438 501.585938 241.222656 498.941406 239.738281 496.257812 C 238.253906 493.578125 236.835938 490.859375 235.484375 488.109375 C 234.132812 485.359375 232.847656 482.574219 231.632812 479.761719 C 230.414062 476.945312 229.265625 474.105469 228.1875 471.234375 C 227.109375 468.367188 226.101562 465.472656 225.164062 462.550781 C 224.226562 459.632812 223.363281 456.695312 222.566406 453.734375 C 222.332031 452.839844 222.101562 451.941406 221.871094 451.050781 Z M 224.757812 450.039062 " fill-opacity="1" fill-rule="evenodd"/></g><g fill="#000000" fill-opacity="1"><g transform="translate(173.598407, 416.074678)"><g><path d="M 14.671875 -7.453125 C 14.671875 -4.441406 14.066406 -1.835938 12.859375 0.359375 C 11.660156 2.554688 9.972656 4.25 7.796875 5.4375 C 5.617188 6.625 3.097656 7.265625 0.234375 7.359375 L 0.234375 0.578125 C 5.179688 0.316406 7.65625 -2.410156 7.65625 -7.609375 L 7.65625 -35.421875 L 14.671875 -35.421875 Z M 14.671875 -7.453125 "/></g></g></g><g fill="#000000" fill-opacity="1"><g transform="translate(231.336632, 416.074678)"><g><path d="M 22.09375 -6.9375 L 10.34375 -6.9375 L 7.453125 0 L 0.578125 0 L 16.5625 -36.8125 L 16.9375 -36.8125 L 32.921875 0 L 24.828125 0 Z M 19.78125 -12.796875 L 16.359375 -21.421875 L 12.796875 -12.796875 Z M 19.78125 -12.796875 "/></g></g></g><g fill="#000000" fill-opacity="1"><g transform="translate(303.314407, 416.074678)"><g><path d="M 11.546875 -35.421875 L 11.546875 0 L 4.578125 0 L 4.578125 -35.421875 Z M 11.546875 -35.421875 "/></g></g></g><g fill="#000000" fill-opacity="1"><g transform="translate(357.925697, 416.074678)"><g><path d="M 36.484375 -35.421875 L 36.484375 1.4375 L 36.28125 1.4375 L 11.5 -20.9375 L 11.640625 0 L 4.578125 0 L 4.578125 -36.8125 L 4.859375 -36.8125 L 29.59375 -14.09375 L 29.453125 -35.421875 Z M 36.484375 -35.421875 "/></g></g></g><g fill="#000000" fill-opacity="1"><g transform="translate(437.456196, 416.074678)"><g><path d="M 11.546875 -35.421875 L 11.546875 0 L 4.578125 0 L 4.578125 -35.421875 Z M 11.546875 -35.421875 "/></g></g></g><g fill="#000000" fill-opacity="1"><g transform="translate(492.067466, 416.074678)"><g><path d="M 11.546875 -35.421875 L 11.546875 -6.734375 L 28.203125 -6.734375 L 28.203125 0 L 4.578125 0 L 4.578125 -35.421875 Z M 11.546875 -35.421875 "/></g></g></g><g fill="#000000" fill-opacity="1"><g transform="translate(561.399398, 416.074678)"><g><path d="M 7.125 -23.140625 L 1.34375 -23.140625 L 1.34375 -35.328125 L 7.3125 -35.328125 Z M 7.125 -23.140625 "/></g></g></g><g fill="#000000" fill-opacity="1"><g transform="translate(608.313639, 416.074678)"><g><path d="M 23.484375 -26.859375 C 20.398438 -28.554688 17.722656 -29.40625 15.453125 -29.40625 C 13.910156 -29.40625 12.710938 -29.097656 11.859375 -28.484375 C 11.015625 -27.878906 10.59375 -26.96875 10.59375 -25.75 C 10.59375 -24.625 11.207031 -23.632812 12.4375 -22.78125 C 13.675781 -21.9375 15.320312 -21.128906 17.375 -20.359375 C 19.039062 -19.742188 20.46875 -19.039062 21.65625 -18.25 C 22.84375 -17.46875 23.828125 -16.390625 24.609375 -15.015625 C 25.398438 -13.640625 25.796875 -11.890625 25.796875 -9.765625 C 25.796875 -7.941406 25.320312 -6.25 24.375 -4.6875 C 23.425781 -3.132812 22.035156 -1.898438 20.203125 -0.984375 C 18.378906 -0.0664062 16.203125 0.390625 13.671875 0.390625 C 11.546875 0.390625 9.441406 0.078125 7.359375 -0.546875 C 5.273438 -1.171875 3.335938 -2.128906 1.546875 -3.421875 L 4.625 -8.859375 C 5.84375 -7.953125 7.238281 -7.210938 8.8125 -6.640625 C 10.382812 -6.066406 11.796875 -5.78125 13.046875 -5.78125 C 14.515625 -5.78125 15.796875 -6.09375 16.890625 -6.71875 C 17.984375 -7.34375 18.53125 -8.359375 18.53125 -9.765625 C 18.53125 -11.597656 16.8125 -13.1875 13.375 -14.53125 C 11.351562 -15.332031 9.664062 -16.101562 8.3125 -16.84375 C 6.96875 -17.582031 5.804688 -18.640625 4.828125 -20.015625 C 3.859375 -21.398438 3.375 -23.132812 3.375 -25.21875 C 3.375 -28.269531 4.375 -30.722656 6.375 -32.578125 C 8.382812 -34.441406 11.054688 -35.453125 14.390625 -35.609375 C 17.015625 -35.609375 19.207031 -35.3125 20.96875 -34.71875 C 22.738281 -34.125 24.457031 -33.285156 26.125 -32.203125 Z M 23.484375 -26.859375 "/></g></g></g><g fill="#000000" fill-opacity="1"><g transform="translate(304.117113, 469.627751)"><g><path d="M 8.125 -6.9375 C 8.863281 -6.632812 9.441406 -6.210938 9.859375 -5.671875 C 10.285156 -5.140625 10.5 -4.519531 10.5 -3.8125 C 10.5 -2.519531 10.0625 -1.5625 9.1875 -0.9375 C 8.320312 -0.3125 7.25 0 5.96875 0 L 1.828125 0 L 1.828125 -13.28125 L 5.453125 -13.28125 C 6.835938 -13.28125 7.914062 -13 8.6875 -12.4375 C 9.457031 -11.875 9.84375 -11.046875 9.84375 -9.953125 C 9.84375 -9.253906 9.691406 -8.648438 9.390625 -8.140625 C 9.085938 -7.640625 8.664062 -7.238281 8.125 -6.9375 Z M 3.953125 -7.625 L 5.796875 -7.625 C 6.410156 -7.625 6.867188 -7.800781 7.171875 -8.15625 C 7.484375 -8.507812 7.640625 -8.953125 7.640625 -9.484375 C 7.640625 -10.066406 7.453125 -10.503906 7.078125 -10.796875 C 6.710938 -11.085938 6.203125 -11.234375 5.546875 -11.234375 L 3.953125 -11.234375 Z M 5.875 -1.96875 C 6.59375 -1.96875 7.175781 -2.125 7.625 -2.4375 C 8.070312 -2.75 8.296875 -3.203125 8.296875 -3.796875 C 8.296875 -4.429688 8.050781 -4.882812 7.5625 -5.15625 C 7.070312 -5.4375 6.460938 -5.578125 5.734375 -5.578125 L 3.953125 -5.578125 L 3.953125 -1.96875 Z M 5.875 -1.96875 "/></g></g></g><g fill="#000000" fill-opacity="1"><g transform="translate(322.909646, 469.627751)"><g><path d="M 10.640625 -13.28125 L 10.640625 -11.234375 L 3.953125 -11.234375 L 3.953125 -7.703125 L 9.90625 -7.703125 L 9.90625 -5.65625 L 3.953125 -5.65625 L 3.953125 -2.046875 L 10.890625 -2.046875 L 10.890625 0 L 1.828125 0 L 1.828125 -13.28125 Z M 10.640625 -13.28125 "/></g></g></g><g fill="#000000" fill-opacity="1"><g transform="translate(342.213038, 469.627751)"><g><path d="M 8.65625 -3.125 L 3.8125 -3.125 L 2.53125 0 L 0.4375 0 L 6.3125 -13.828125 L 6.4375 -13.828125 L 12.3125 0 L 9.875 0 Z M 7.9375 -4.953125 L 6.28125 -9.140625 L 4.5625 -4.953125 Z M 7.9375 -4.953125 "/></g></g></g><g fill="#000000" fill-opacity="1"><g transform="translate(362.264488, 469.627751)"><g><path d="M 3.734375 -4.78125 C 3.734375 -4.269531 3.867188 -3.796875 4.140625 -3.359375 C 4.410156 -2.921875 4.773438 -2.570312 5.234375 -2.3125 C 5.703125 -2.050781 6.207031 -1.921875 6.75 -1.921875 C 7.320312 -1.921875 7.84375 -2.046875 8.3125 -2.296875 C 8.78125 -2.554688 9.144531 -2.90625 9.40625 -3.34375 C 9.675781 -3.78125 9.8125 -4.257812 9.8125 -4.78125 L 9.8125 -13.28125 L 11.921875 -13.28125 L 11.921875 -4.734375 C 11.921875 -3.773438 11.691406 -2.925781 11.234375 -2.1875 C 10.773438 -1.457031 10.148438 -0.882812 9.359375 -0.46875 C 8.566406 -0.0625 7.695312 0.140625 6.75 0.140625 C 5.800781 0.140625 4.929688 -0.0625 4.140625 -0.46875 C 3.359375 -0.882812 2.742188 -1.457031 2.296875 -2.1875 C 1.847656 -2.925781 1.625 -3.773438 1.625 -4.734375 L 1.625 -13.28125 L 3.734375 -13.28125 Z M 3.734375 -4.78125 "/></g></g></g><g fill="#000000" fill-opacity="1"><g transform="translate(383.082225, 469.627751)"><g><path d="M 9.765625 -13.28125 L 9.765625 -11.234375 L 6.328125 -11.234375 L 6.328125 0 L 4.21875 0 L 4.21875 -11.234375 L 0.875 -11.234375 L 0.875 -13.28125 Z M 9.765625 -13.28125 "/></g></g></g><g fill="#000000" fill-opacity="1"><g transform="translate(401.01722, 469.627751)"><g><path d="M 12.421875 -13.28125 L 7.453125 -4.3125 L 7.453125 0 L 5.328125 0 L 5.328125 -4.3125 L 0.421875 -13.28125 L 3.03125 -13.28125 L 6.453125 -6.734375 L 9.8125 -13.28125 Z M 12.421875 -13.28125 "/></g></g></g><g fill="#000000" fill-opacity="1"><g transform="translate(421.159894, 469.627751)"><g/></g></g><g fill="#000000" fill-opacity="1"><g transform="translate(434.296405, 469.627751)"><g><path d="M 11.6875 -1.046875 C 11.289062 -0.765625 10.75 -0.492188 10.0625 -0.234375 C 9.375 0.015625 8.625 0.140625 7.8125 0.140625 C 6.4375 0.140625 5.234375 -0.15625 4.203125 -0.75 C 3.179688 -1.351562 2.390625 -2.160156 1.828125 -3.171875 C 1.273438 -4.191406 1 -5.3125 1 -6.53125 C 1 -7.851562 1.273438 -9.035156 1.828125 -10.078125 C 2.390625 -11.128906 3.164062 -11.953125 4.15625 -12.546875 C 5.144531 -13.140625 6.269531 -13.4375 7.53125 -13.4375 C 8.3125 -13.4375 9.03125 -13.332031 9.6875 -13.125 C 10.351562 -12.914062 10.945312 -12.65625 11.46875 -12.34375 L 10.625 -10.34375 C 9.632812 -11.039062 8.628906 -11.390625 7.609375 -11.390625 C 6.828125 -11.390625 6.097656 -11.175781 5.421875 -10.75 C 4.753906 -10.332031 4.21875 -9.757812 3.8125 -9.03125 C 3.414062 -8.3125 3.21875 -7.519531 3.21875 -6.65625 C 3.21875 -5.75 3.398438 -4.929688 3.765625 -4.203125 C 4.140625 -3.484375 4.671875 -2.914062 5.359375 -2.5 C 6.046875 -2.09375 6.835938 -1.890625 7.734375 -1.890625 C 8.378906 -1.890625 8.957031 -1.988281 9.46875 -2.1875 C 9.988281 -2.382812 10.425781 -2.632812 10.78125 -2.9375 Z M 11.6875 -1.046875 "/></g></g></g><g fill="#000000" fill-opacity="1"><g transform="translate(454.27487, 469.627751)"><g><path d="M 8.65625 -3.125 L 3.8125 -3.125 L 2.53125 0 L 0.4375 0 L 6.3125 -13.828125 L 6.4375 -13.828125 L 12.3125 0 L 9.875 0 Z M 7.9375 -4.953125 L 6.28125 -9.140625 L 4.5625 -4.953125 Z M 7.9375 -4.953125 "/></g></g></g><g fill="#000000" fill-opacity="1"><g transform="translate(474.326323, 469.627751)"><g><path d="M 9.09375 0 L 6.09375 -4.625 L 3.953125 -4.625 L 3.953125 0 L 1.828125 0 L 1.828125 -13.28125 L 5.5625 -13.28125 C 7.050781 -13.28125 8.238281 -12.898438 9.125 -12.140625 C 10.019531 -11.390625 10.46875 -10.347656 10.46875 -9.015625 C 10.46875 -8.203125 10.296875 -7.441406 9.953125 -6.734375 C 9.609375 -6.035156 9.066406 -5.5 8.328125 -5.125 L 11.546875 0 Z M 3.953125 -6.65625 L 5.859375 -6.65625 C 6.710938 -6.65625 7.328125 -6.890625 7.703125 -7.359375 C 8.085938 -7.828125 8.28125 -8.351562 8.28125 -8.9375 C 8.28125 -9.28125 8.207031 -9.625 8.0625 -9.96875 C 7.914062 -10.320312 7.664062 -10.617188 7.3125 -10.859375 C 6.957031 -11.109375 6.5 -11.234375 5.9375 -11.234375 L 3.953125 -11.234375 Z M 3.953125 -6.65625 "/></g></g></g><g fill="#000000" fill-opacity="1"><g transform="translate(493.848657, 469.627751)"><g><path d="M 10.640625 -13.28125 L 10.640625 -11.234375 L 3.953125 -11.234375 L 3.953125 -7.703125 L 9.90625 -7.703125 L 9.90625 -5.65625 L 3.953125 -5.65625 L 3.953125 -2.046875 L 10.890625 -2.046875 L 10.890625 0 L 1.828125 0 L 1.828125 -13.28125 Z M 10.640625 -13.28125 "/></g></g></g><g fill="#3d3b3a" fill-opacity="1"><g transform="translate(372.260521, 399.454871)"><g><path d="M 90.511719 -95.128906 C 89.507812 -95.527344 87.902344 -95.730469 83.285156 -96.128906 C 79.070312 -96.53125 47.964844 -97.734375 44.152344 -97.734375 L 38.53125 -97.9375 L 34.71875 -97.9375 C 35.320312 -98.738281 37.128906 -100.746094 38.332031 -101.75 C 39.132812 -102.351562 39.9375 -103.15625 40.738281 -104.15625 C 41.542969 -105.160156 44.351562 -107.769531 45.757812 -108.976562 L 47.765625 -110.582031 L 48.566406 -111.582031 C 49.167969 -112.1875 49.167969 -112.386719 48.769531 -112.988281 C 48.566406 -113.390625 48.164062 -113.589844 47.964844 -113.589844 C 47.5625 -113.589844 45.15625 -111.785156 44.953125 -111.183594 L 43.148438 -109.578125 C 40.941406 -107.769531 40.539062 -107.570312 40.136719 -106.96875 C 39.738281 -106.566406 34.519531 -101.550781 33.714844 -100.945312 L 33.113281 -100.34375 L 31.507812 -98.539062 L 30.707031 -97.734375 L 2.410156 -97.132812 L -2.007812 -96.734375 C -5.417969 -96.53125 -15.050781 -95.730469 -16.65625 -95.328125 C -18.261719 -94.925781 -19.066406 -94.125 -18.464844 -93.523438 C -18.261719 -93.121094 -14.25 -93.523438 -11.4375 -94.125 C -10.835938 -94.324219 -6.019531 -94.925781 -1.203125 -95.128906 L 3.8125 -95.527344 L 9.230469 -95.730469 L 15.855469 -96.128906 C 17.660156 -96.332031 24.484375 -96.332031 28.898438 -96.332031 C 28.699219 -95.929688 28.296875 -95.730469 28.097656 -95.328125 L 27.496094 -94.925781 L 26.890625 -94.125 L 24.484375 -91.515625 C 21.675781 -88.503906 12.84375 -78.871094 11.039062 -76.261719 C 11.039062 -76.261719 7.828125 -72.449219 7.828125 -72.648438 C 7.828125 -72.449219 7.023438 -71.644531 6.222656 -70.84375 C 5.21875 -69.839844 3.613281 -68.035156 -0.601562 -63.015625 L -2.207031 -61.210938 L -3.8125 -59.203125 C -4.214844 -58.601562 -4.414062 -58.199219 -4.617188 -58.199219 C -5.015625 -58.199219 -6.019531 -56.996094 -9.230469 -52.78125 C -10.4375 -51.375 -11.4375 -50.171875 -11.839844 -49.972656 C -12.042969 -49.570312 -14.046875 -47.164062 -16.257812 -44.554688 L -21.273438 -38.332031 L -29.5 -27.292969 C -31.507812 -24.484375 -32.710938 -22.878906 -33.113281 -23.078125 L -33.113281 -22.679688 C -33.113281 -22.476562 -33.113281 -22.074219 -33.316406 -21.675781 C -33.515625 -21.074219 -33.714844 -20.871094 -33.917969 -21.074219 C -33.917969 -20.871094 -34.117188 -20.671875 -34.117188 -20.671875 C -34.117188 -20.269531 -34.117188 -20.070312 -34.316406 -20.070312 C -34.316406 -20.269531 -34.921875 -19.066406 -35.320312 -17.660156 C -36.125 -15.652344 -36.324219 -14.851562 -36.125 -13.847656 C -35.722656 -12.644531 -35.523438 -12.441406 -34.921875 -12.242188 C -34.117188 -12.242188 -33.714844 -12.242188 -33.515625 -12.644531 C -33.113281 -13.246094 -33.113281 -13.246094 -33.917969 -13.445312 C -34.71875 -13.445312 -34.71875 -13.648438 -34.71875 -14.449219 C -34.519531 -15.453125 -32.914062 -18.863281 -31.507812 -21.074219 C -27.695312 -26.691406 -17.660156 -39.535156 -11.238281 -46.960938 L -8.027344 -50.773438 L -1.40625 -58.402344 L 4.015625 -64.421875 L 5.820312 -66.628906 L 8.226562 -69.238281 C 10.035156 -71.246094 11.640625 -73.25 15.050781 -77.265625 C 16.257812 -78.671875 17.660156 -80.074219 18.261719 -80.675781 C 18.863281 -81.28125 19.867188 -82.484375 20.46875 -83.285156 L 23.882812 -86.898438 C 26.089844 -89.308594 27.496094 -90.511719 28.699219 -92.117188 L 30.503906 -93.921875 C 31.105469 -94.726562 31.710938 -95.128906 32.109375 -95.730469 L 33.113281 -96.332031 C 34.71875 -96.53125 35.921875 -96.332031 36.527344 -96.332031 L 37.328125 -96.332031 C 48.96875 -96.128906 76.863281 -95.328125 80.878906 -94.726562 C 82.082031 -94.324219 84.089844 -94.324219 85.09375 -94.125 C 87.097656 -94.125 87.097656 -94.125 86.699219 -93.320312 C 86.296875 -92.917969 86.496094 -92.519531 86.699219 -92.316406 C 87.097656 -91.917969 87.300781 -91.714844 87.5 -91.917969 L 89.507812 -92.71875 C 91.714844 -93.722656 91.917969 -94.324219 90.511719 -95.128906 Z M 90.511719 -95.128906 "/></g></g></g><g fill="#3d3b3a" fill-opacity="1"><g transform="translate(392.730679, 399.454871)"><g><path d="M 72.25 -110.378906 C 71.847656 -110.980469 69.839844 -110.980469 67.832031 -110.582031 L 65.625 -110.179688 C 64.421875 -109.976562 62.414062 -109.375 61.613281 -108.976562 L 60.007812 -108.574219 C 55.792969 -107.371094 50.171875 -104.960938 45.957031 -102.550781 L 43.75 -101.347656 L 41.945312 -100.144531 L 38.53125 -97.9375 C 36.125 -96.332031 33.316406 -94.324219 33.113281 -94.125 L 26.691406 -89.105469 L 22.476562 -85.492188 L 15.652344 -79.472656 C 14.648438 -78.46875 13.445312 -77.265625 12.84375 -76.863281 L 11.039062 -76.261719 C 10.035156 -75.859375 9.230469 -75.660156 9.230469 -75.460938 C 9.230469 -75.460938 9.03125 -75.257812 8.832031 -75.257812 C 8.628906 -75.257812 8.027344 -75.058594 7.226562 -74.65625 C 6.621094 -74.457031 6.222656 -74.253906 6.019531 -74.054688 L 4.015625 -73.25 L -2.207031 -71.042969 C -2.808594 -70.84375 -3.613281 -70.441406 -3.8125 -70.242188 C -4.214844 -69.4375 -4.015625 -69.039062 -3.210938 -69.039062 C -2.808594 -69.039062 -2.007812 -69.238281 -1.203125 -69.4375 L 0.804688 -70.441406 C 1.40625 -70.84375 2.207031 -71.042969 3.011719 -71.246094 L 6.621094 -72.449219 C 6.824219 -72.648438 7.226562 -72.648438 7.625 -72.851562 C 7.625 -73.050781 9.03125 -73.453125 9.230469 -73.25 C 9.230469 -73.25 7.828125 -71.644531 5.820312 -69.839844 L -1.203125 -62.414062 L -2.007812 -61.613281 L -3.8125 -59.402344 L -5.621094 -57.398438 C -6.222656 -56.796875 -7.023438 -55.992188 -7.023438 -55.191406 C -7.023438 -54.585938 -6.222656 -54.1875 -5.820312 -53.984375 C -5.21875 -53.785156 -5.015625 -53.984375 -4.816406 -54.1875 L -4.214844 -54.585938 L -3.210938 -55.390625 L -2.609375 -55.992188 L -2.007812 -56.394531 L -1.605469 -56.59375 L 0.804688 -59.003906 L 2.007812 -59.605469 L 2.207031 -59.605469 L 3.410156 -60.40625 C 3.8125 -60.808594 4.816406 -61.210938 5.621094 -61.410156 L 7.828125 -62.214844 C 8.429688 -62.414062 8.832031 -62.617188 8.832031 -62.414062 C 8.832031 -62.214844 8.832031 -62.214844 8.628906 -62.214844 C 8.429688 -62.214844 7.023438 -60.40625 6.421875 -59.203125 L 5.820312 -58 C 5.015625 -56.191406 5.015625 -55.390625 6.019531 -54.585938 C 6.621094 -54.1875 7.023438 -53.984375 7.625 -54.1875 L 8.027344 -54.386719 C 9.632812 -54.585938 15.050781 -56.996094 15.855469 -57.398438 C 17.058594 -57.796875 16.65625 -58 19.46875 -59.203125 C 19.867188 -59.203125 20.671875 -60.007812 21.675781 -60.40625 C 25.890625 -62.414062 22.277344 -61.011719 26.089844 -62.414062 C 27.894531 -63.617188 26.492188 -63.617188 25.6875 -63.617188 L 20.671875 -61.410156 C 18.0625 -60.207031 11.039062 -57.195312 9.03125 -56.394531 L 8.226562 -56.191406 L 7.828125 -56.191406 C 7.625 -56.191406 7.828125 -56.996094 8.429688 -58.199219 L 8.628906 -58.800781 C 9.03125 -59.605469 10.234375 -61.011719 12.042969 -62.816406 C 12.84375 -63.820312 13.042969 -64.019531 12.84375 -64.421875 C 12.441406 -65.023438 11.640625 -65.023438 9.03125 -64.222656 C 5.820312 -63.015625 4.015625 -62.414062 2.410156 -61.613281 C 2.207031 -61.613281 2.207031 -61.410156 2.007812 -61.410156 C 1.605469 -61.210938 1.203125 -61.011719 1.003906 -61.210938 L 1.003906 -61.613281 C 1.605469 -62.617188 7.023438 -68.035156 10.835938 -71.847656 L 14.25 -75.257812 L 15.253906 -75.859375 L 22.878906 -79.273438 C 25.488281 -80.476562 27.09375 -81.078125 27.496094 -81.28125 L 30.90625 -82.683594 C 32.511719 -83.488281 34.117188 -84.089844 34.316406 -84.089844 C 34.71875 -84.089844 35.722656 -84.492188 36.527344 -84.890625 C 40.738281 -86.898438 49.972656 -91.113281 52.179688 -92.519531 L 53.382812 -92.917969 C 53.984375 -93.121094 54.386719 -93.523438 54.386719 -93.722656 C 54.585938 -93.921875 54.988281 -94.125 55.390625 -94.324219 C 55.792969 -94.324219 56.59375 -94.726562 57.195312 -95.128906 L 60.207031 -96.933594 C 61.210938 -97.734375 63.21875 -98.941406 64.421875 -99.945312 L 67.433594 -102.152344 C 68.433594 -102.753906 71.042969 -105.363281 71.847656 -106.765625 C 72.851562 -108.171875 72.851562 -109.578125 72.25 -110.378906 Z M 70.242188 -107.371094 L 69.039062 -105.964844 C 68.636719 -105.363281 68.035156 -104.558594 67.832031 -104.558594 L 65.828125 -102.953125 C 64.621094 -101.75 61.613281 -99.742188 59.003906 -98.136719 L 52.179688 -94.324219 L 49.769531 -93.121094 L 47.5625 -91.917969 L 43.75 -90.109375 C 42.546875 -89.308594 41.140625 -88.703125 40.539062 -88.503906 L 37.730469 -87.5 L 33.714844 -85.695312 L 29.300781 -83.886719 C 28.296875 -83.488281 27.292969 -83.085938 27.09375 -83.085938 C 26.890625 -83.085938 26.089844 -82.683594 25.085938 -82.28125 C 24.285156 -81.882812 23.28125 -81.480469 23.078125 -81.480469 C 22.878906 -81.480469 21.875 -80.878906 20.671875 -80.277344 C 19.265625 -79.675781 18.664062 -79.472656 18.664062 -79.675781 C 18.664062 -79.875 18.664062 -80.277344 18.863281 -80.277344 L 21.273438 -82.28125 C 25.285156 -85.894531 32.710938 -92.117188 33.113281 -92.117188 L 34.71875 -93.320312 C 37.730469 -95.730469 44.152344 -99.945312 49.167969 -102.550781 C 52.980469 -104.359375 58.199219 -106.367188 61.8125 -107.371094 L 65.023438 -108.371094 C 65.625 -108.574219 69.039062 -108.976562 69.640625 -108.773438 C 70.039062 -108.574219 70.242188 -108.371094 70.441406 -107.972656 C 70.441406 -107.769531 70.242188 -107.371094 70.242188 -107.371094 Z M 70.242188 -107.371094 "/></g></g></g><g fill="#3d3b3a" fill-opacity="1"><g transform="translate(421.629684, 399.454871)"><g><path d="M -2.007812 -54.789062 C 0.199219 -55.191406 1.605469 -55.589844 5.21875 -57.398438 L 14.25 -61.410156 L 16.859375 -62.617188 C 17.058594 -62.816406 17.058594 -63.417969 16.65625 -63.617188 L 16.457031 -63.820312 L 15.855469 -63.820312 L 15.453125 -63.617188 C 4.414062 -58.800781 -2.207031 -56.394531 -3.410156 -56.796875 C -3.8125 -56.996094 -3.8125 -57.195312 -3.210938 -57.796875 C -2.808594 -58.601562 -2.410156 -58.800781 -1.003906 -59.203125 C 1.203125 -59.804688 3.210938 -60.808594 6.621094 -63.21875 C 9.832031 -65.425781 11.238281 -66.628906 11.039062 -67.230469 C 10.636719 -68.433594 8.832031 -68.234375 5.621094 -67.03125 C 1.605469 -65.625 -3.011719 -62.011719 -5.015625 -58.800781 C -6.019531 -57.195312 -6.222656 -56.59375 -5.820312 -55.792969 C -5.621094 -54.386719 -5.21875 -54.386719 -2.007812 -54.789062 Z M -0.402344 -61.410156 C -0.199219 -62.011719 3.210938 -64.421875 4.617188 -64.824219 C 5.820312 -65.425781 7.828125 -66.226562 7.828125 -65.828125 C 7.625 -65.625 4.617188 -63.617188 2.808594 -62.617188 C 0.601562 -61.410156 -0.804688 -61.011719 -0.402344 -61.410156 Z M -0.402344 -61.410156 "/></g></g></g><g fill="#000000" fill-opacity="1"><g transform="translate(354.247822, 508.056139)"><g><path d="M 7.0625 -8.8125 L 7.0625 -7.453125 L 2.625 -7.453125 L 2.625 -5.109375 L 6.578125 -5.109375 L 6.578125 -3.75 L 2.625 -3.75 L 2.625 -1.359375 L 7.234375 -1.359375 L 7.234375 0 L 1.203125 0 L 1.203125 -8.8125 Z M 7.0625 -8.8125 "/></g></g></g><g fill="#000000" fill-opacity="1"><g transform="translate(367.067193, 508.056139)"><g><path d="M 5.84375 -7.015625 C 5.082031 -7.410156 4.40625 -7.609375 3.8125 -7.609375 C 3.375 -7.609375 3.023438 -7.507812 2.765625 -7.3125 C 2.515625 -7.125 2.390625 -6.863281 2.390625 -6.53125 C 2.390625 -6.195312 2.550781 -5.914062 2.875 -5.6875 C 3.195312 -5.46875 3.644531 -5.25 4.21875 -5.03125 C 4.65625 -4.882812 5.023438 -4.710938 5.328125 -4.515625 C 5.640625 -4.316406 5.894531 -4.046875 6.09375 -3.703125 C 6.300781 -3.367188 6.40625 -2.941406 6.40625 -2.421875 C 6.40625 -1.953125 6.285156 -1.523438 6.046875 -1.140625 C 5.816406 -0.765625 5.476562 -0.460938 5.03125 -0.234375 C 4.59375 -0.015625 4.070312 0.09375 3.46875 0.09375 C 2.925781 0.09375 2.394531 0.0078125 1.875 -0.15625 C 1.363281 -0.320312 0.910156 -0.546875 0.515625 -0.828125 L 1.140625 -1.9375 C 1.441406 -1.707031 1.796875 -1.519531 2.203125 -1.375 C 2.609375 -1.226562 2.984375 -1.15625 3.328125 -1.15625 C 3.753906 -1.15625 4.128906 -1.253906 4.453125 -1.453125 C 4.773438 -1.660156 4.9375 -1.976562 4.9375 -2.40625 C 4.9375 -2.75 4.800781 -3.03125 4.53125 -3.25 C 4.257812 -3.476562 3.882812 -3.6875 3.40625 -3.875 C 2.90625 -4.0625 2.488281 -4.242188 2.15625 -4.421875 C 1.820312 -4.609375 1.535156 -4.863281 1.296875 -5.1875 C 1.054688 -5.507812 0.9375 -5.921875 0.9375 -6.421875 C 0.9375 -7.140625 1.179688 -7.71875 1.671875 -8.15625 C 2.160156 -8.59375 2.804688 -8.828125 3.609375 -8.859375 C 4.191406 -8.859375 4.703125 -8.789062 5.140625 -8.65625 C 5.578125 -8.53125 5.988281 -8.34375 6.375 -8.09375 Z M 5.84375 -7.015625 "/></g></g></g><g fill="#000000" fill-opacity="1"><g transform="translate(378.965703, 508.056139)"><g><path d="M 6.484375 -8.8125 L 6.484375 -7.453125 L 4.203125 -7.453125 L 4.203125 0 L 2.796875 0 L 2.796875 -7.453125 L 0.578125 -7.453125 L 0.578125 -8.8125 Z M 6.484375 -8.8125 "/></g></g></g><g fill="#000000" fill-opacity="1"><g transform="translate(390.876324, 508.056139)"><g><path d="M 1.203125 -8.8125 L 3.71875 -8.8125 C 4.820312 -8.8125 5.734375 -8.59375 6.453125 -8.15625 C 7.179688 -7.71875 7.707031 -7.15625 8.03125 -6.46875 C 8.363281 -5.789062 8.53125 -5.0625 8.53125 -4.28125 C 8.53125 -3.425781 8.332031 -2.671875 7.9375 -2.015625 C 7.539062 -1.367188 7.003906 -0.867188 6.328125 -0.515625 C 5.660156 -0.171875 4.929688 0 4.140625 0 L 1.203125 0 Z M 3.890625 -1.359375 C 4.515625 -1.359375 5.066406 -1.472656 5.546875 -1.703125 C 6.023438 -1.941406 6.398438 -2.285156 6.671875 -2.734375 C 6.941406 -3.191406 7.078125 -3.742188 7.078125 -4.390625 C 7.078125 -5.078125 6.929688 -5.648438 6.640625 -6.109375 C 6.347656 -6.578125 5.972656 -6.921875 5.515625 -7.140625 C 5.054688 -7.359375 4.585938 -7.46875 4.109375 -7.46875 L 2.625 -7.46875 L 2.625 -1.359375 Z M 3.890625 -1.359375 "/></g></g></g><g fill="#000000" fill-opacity="1"><g transform="translate(404.943706, 508.056139)"><g/></g></g><g fill="#000000" fill-opacity="1"><g transform="translate(413.667651, 508.056139)"><g><path d="M 6.21875 -1.359375 L 6.21875 0 L 0.65625 0 L 1.09375 -0.4375 C 1.882812 -1.238281 2.507812 -1.890625 2.96875 -2.390625 C 3.425781 -2.890625 3.804688 -3.394531 4.109375 -3.90625 C 4.410156 -4.425781 4.5625 -4.914062 4.5625 -5.375 C 4.5625 -5.8125 4.425781 -6.144531 4.15625 -6.375 C 3.894531 -6.613281 3.566406 -6.734375 3.171875 -6.734375 C 2.742188 -6.734375 2.410156 -6.609375 2.171875 -6.359375 C 1.941406 -6.117188 1.828125 -5.851562 1.828125 -5.5625 C 1.828125 -5.0625 1.984375 -4.644531 2.296875 -4.3125 L 1.4375 -3.53125 C 1.144531 -3.6875 0.90625 -3.972656 0.71875 -4.390625 C 0.539062 -4.804688 0.453125 -5.179688 0.453125 -5.515625 C 0.453125 -5.960938 0.566406 -6.382812 0.796875 -6.78125 C 1.035156 -7.175781 1.378906 -7.492188 1.828125 -7.734375 C 2.273438 -7.972656 2.804688 -8.09375 3.421875 -8.09375 C 3.921875 -8.09375 4.367188 -7.972656 4.765625 -7.734375 C 5.171875 -7.492188 5.484375 -7.175781 5.703125 -6.78125 C 5.921875 -6.382812 6.03125 -5.957031 6.03125 -5.5 C 6.03125 -5.039062 5.925781 -4.582031 5.71875 -4.125 C 5.507812 -3.675781 5.253906 -3.253906 4.953125 -2.859375 C 4.660156 -2.472656 4.25 -1.972656 3.71875 -1.359375 Z M 6.21875 -1.359375 "/></g></g></g><g fill="#000000" fill-opacity="1"><g transform="translate(425.299592, 508.056139)"><g><path d="M 3.796875 0.03125 C 3.148438 0.03125 2.570312 -0.125 2.0625 -0.4375 C 1.550781 -0.757812 1.148438 -1.226562 0.859375 -1.84375 C 0.566406 -2.457031 0.421875 -3.1875 0.421875 -4.03125 C 0.421875 -5.40625 0.722656 -6.425781 1.328125 -7.09375 C 1.929688 -7.757812 2.753906 -8.085938 3.796875 -8.078125 C 4.441406 -8.085938 5.015625 -7.929688 5.515625 -7.609375 C 6.023438 -7.285156 6.421875 -6.816406 6.703125 -6.203125 C 6.992188 -5.597656 7.140625 -4.875 7.140625 -4.03125 C 7.140625 -3.15625 6.992188 -2.410156 6.703125 -1.796875 C 6.410156 -1.191406 6.015625 -0.734375 5.515625 -0.421875 C 5.015625 -0.117188 4.441406 0.03125 3.796875 0.03125 Z M 3.78125 -1.3125 C 4.414062 -1.3125 4.890625 -1.5625 5.203125 -2.0625 C 5.515625 -2.5625 5.671875 -3.226562 5.671875 -4.0625 C 5.671875 -4.882812 5.515625 -5.535156 5.203125 -6.015625 C 4.890625 -6.492188 4.414062 -6.726562 3.78125 -6.71875 C 3.144531 -6.726562 2.671875 -6.488281 2.359375 -6 C 2.046875 -5.507812 1.890625 -4.851562 1.890625 -4.03125 C 1.890625 -3.207031 2.046875 -2.546875 2.359375 -2.046875 C 2.671875 -1.554688 3.144531 -1.3125 3.78125 -1.3125 Z M 3.78125 -1.3125 "/></g></g></g><g fill="#000000" fill-opacity="1"><g transform="translate(437.719108, 508.056139)"><g><path d="M 6.21875 -1.359375 L 6.21875 0 L 0.65625 0 L 1.09375 -0.4375 C 1.882812 -1.238281 2.507812 -1.890625 2.96875 -2.390625 C 3.425781 -2.890625 3.804688 -3.394531 4.109375 -3.90625 C 4.410156 -4.425781 4.5625 -4.914062 4.5625 -5.375 C 4.5625 -5.8125 4.425781 -6.144531 4.15625 -6.375 C 3.894531 -6.613281 3.566406 -6.734375 3.171875 -6.734375 C 2.742188 -6.734375 2.410156 -6.609375 2.171875 -6.359375 C 1.941406 -6.117188 1.828125 -5.851562 1.828125 -5.5625 C 1.828125 -5.0625 1.984375 -4.644531 2.296875 -4.3125 L 1.4375 -3.53125 C 1.144531 -3.6875 0.90625 -3.972656 0.71875 -4.390625 C 0.539062 -4.804688 0.453125 -5.179688 0.453125 -5.515625 C 0.453125 -5.960938 0.566406 -6.382812 0.796875 -6.78125 C 1.035156 -7.175781 1.378906 -7.492188 1.828125 -7.734375 C 2.273438 -7.972656 2.804688 -8.09375 3.421875 -8.09375 C 3.921875 -8.09375 4.367188 -7.972656 4.765625 -7.734375 C 5.171875 -7.492188 5.484375 -7.175781 5.703125 -6.78125 C 5.921875 -6.382812 6.03125 -5.957031 6.03125 -5.5 C 6.03125 -5.039062 5.925781 -4.582031 5.71875 -4.125 C 5.507812 -3.675781 5.253906 -3.253906 4.953125 -2.859375 C 4.660156 -2.472656 4.25 -1.972656 3.71875 -1.359375 Z M 6.21875 -1.359375 "/></g></g></g><g fill="#000000" fill-opacity="1"><g transform="translate(449.351049, 508.056139)"><g><path d="M 3.6875 -5.0625 C 4.25 -5 4.707031 -4.769531 5.0625 -4.375 C 5.425781 -3.988281 5.609375 -3.414062 5.609375 -2.65625 C 5.609375 -2.101562 5.476562 -1.617188 5.21875 -1.203125 C 4.957031 -0.785156 4.609375 -0.460938 4.171875 -0.234375 C 3.742188 -0.015625 3.273438 0.09375 2.765625 0.09375 C 2.367188 0.09375 1.960938 0.015625 1.546875 -0.140625 C 1.140625 -0.304688 0.816406 -0.519531 0.578125 -0.78125 L 1.296875 -1.953125 C 1.453125 -1.765625 1.660156 -1.601562 1.921875 -1.46875 C 2.179688 -1.332031 2.445312 -1.265625 2.71875 -1.265625 C 3.113281 -1.265625 3.453125 -1.398438 3.734375 -1.671875 C 4.015625 -1.941406 4.15625 -2.300781 4.15625 -2.75 C 4.15625 -3.15625 4.03125 -3.484375 3.78125 -3.734375 C 3.539062 -3.984375 3.207031 -4.109375 2.78125 -4.109375 C 2.570312 -4.109375 2.398438 -4.09375 2.265625 -4.0625 C 2.128906 -4.039062 1.972656 -4.003906 1.796875 -3.953125 L 1.765625 -4 L 3.359375 -6.640625 L 1.125 -6.640625 L 1.125 -7.984375 L 5.390625 -7.984375 Z M 3.6875 -5.0625 "/></g></g></g></svg>