<svg width="20" height="21" viewBox="0 0 20 21" fill="none" xmlns="http://www.w3.org/2000/svg">
<path d="M18.9999 1.32254L13.9667 6.49684M18.9999 13.7409V17.8079C19.003 18.1069 18.943 18.403 18.8241 18.6759C18.7052 18.9488 18.5301 19.1919 18.3111 19.3886C18.092 19.5853 17.8341 19.7309 17.555 19.8153C17.276 19.8997 16.9825 19.921 16.6947 19.8776C12.7053 19.3508 8.99986 17.4743 6.16217 14.544C3.32447 11.6136 1.51585 7.79589 1.02128 3.69237C0.979226 3.39738 0.999659 3.09654 1.08118 2.81042C1.1627 2.5243 1.30339 2.25967 1.49362 2.03463C1.68385 1.80959 1.91912 1.62945 2.18334 1.50655C2.44756 1.38365 2.73449 1.32088 3.0245 1.32254H6.9202C7.16905 1.32099 7.40965 1.41426 7.59555 1.58435C7.78144 1.75443 7.89947 1.98928 7.92684 2.24357C8.02673 3.59983 8.36793 4.92572 8.93348 6.15534C9.03046 6.38821 9.04098 6.64956 8.96306 6.88988C8.88514 7.13019 8.72419 7.33278 8.51069 7.45926L7.64498 7.96634C7.5202 8.0369 7.41139 8.13387 7.32576 8.25085C7.24013 8.36783 7.17962 8.50216 7.14822 8.64496C7.11682 8.78776 7.11526 8.93578 7.14362 9.07925C7.17199 9.22272 7.22965 9.35837 7.31279 9.47724C8.30868 10.9769 9.56849 12.2721 11.0273 13.2959C11.1429 13.3813 11.2749 13.4406 11.4144 13.4698C11.554 13.4989 11.698 13.4973 11.8369 13.4651C11.9758 13.4328 12.1065 13.3706 12.2202 13.2825C12.334 13.1945 12.4284 13.0827 12.497 12.9544L12.9902 12.0644C13.1206 11.842 13.3275 11.6782 13.5699 11.6053C13.8123 11.5325 14.0725 11.556 14.2989 11.6711C15.495 12.2525 16.7847 12.6033 18.104 12.706C18.3513 12.7341 18.5798 12.8555 18.7452 13.0466C18.9107 13.2377 19.0014 13.485 18.9999 13.7409Z" stroke="black" stroke-linecap="round" stroke-linejoin="round"/>
<path d="M18.9995 6.49681V1.32251H13.9663" stroke="black" stroke-linecap="round" stroke-linejoin="round"/>
</svg>
