<?xml version="1.0" encoding="UTF-8"?>
<!DOCTYPE svg PUBLIC "-//W3C//DTD SVG 1.1//EN" "http://www.w3.org/Graphics/SVG/1.1/DTD/svg11.dtd">
<svg xmlns="http://www.w3.org/2000/svg" version="1.1" width="512px" height="512px" style="shape-rendering:geometricPrecision; text-rendering:geometricPrecision; image-rendering:optimizeQuality; fill-rule:evenodd; clip-rule:evenodd" xmlns:xlink="http://www.w3.org/1999/xlink">
<g><path style="opacity:1" fill="#93a4b0" d="M 63.5,111.5 C 191.5,111.5 319.5,111.5 447.5,111.5C 447.5,122.167 447.5,132.833 447.5,143.5C 319.5,143.5 191.5,143.5 63.5,143.5C 63.5,132.833 63.5,122.167 63.5,111.5 Z"/></g>
<g><path style="opacity:1" fill="#93a4b0" d="M 63.5,239.5 C 191.5,239.5 319.5,239.5 447.5,239.5C 447.5,250.167 447.5,260.833 447.5,271.5C 319.5,271.5 191.5,271.5 63.5,271.5C 63.5,260.833 63.5,250.167 63.5,239.5 Z"/></g>
<g><path style="opacity:1" fill="#93a4b0" d="M 63.5,367.5 C 191.5,367.5 319.5,367.5 447.5,367.5C 447.5,378.167 447.5,388.833 447.5,399.5C 319.5,399.5 191.5,399.5 63.5,399.5C 63.5,388.833 63.5,378.167 63.5,367.5 Z"/></g>
</svg>
