<svg width="26" height="26" viewBox="0 0 26 26" fill="none" xmlns="http://www.w3.org/2000/svg">
<path d="M9.64167 0C12.1988 0 14.6512 1.01582 16.4594 2.82398C18.2675 4.63214 19.2833 7.08454 19.2833 9.64167C19.2833 11.8898 18.5078 13.967 17.2166 15.6135C17.0804 15.7872 17.0896 16.0365 17.2457 16.1926C17.3252 16.272 17.433 16.3167 17.5453 16.3167H17.9557C18.3309 16.3167 18.6907 16.4657 18.956 16.731L24.8458 22.6208C25.4602 23.2352 25.4603 24.2314 24.8458 24.8458C24.2314 25.4603 23.2353 25.4603 22.6208 24.8458L16.731 18.956C16.4657 18.6907 16.3167 18.3309 16.3167 17.9557V17.5451C16.3167 17.4329 16.2721 17.3252 16.1927 17.2459C16.0366 17.0897 15.7872 17.0807 15.6136 17.2172C13.9138 18.5532 11.8113 19.2832 9.64167 19.2833C7.08454 19.2833 4.63214 18.2675 2.82398 16.4594C1.01582 14.6512 0 12.1988 0 9.64167C0 7.08454 1.01582 4.63214 2.82398 2.82398C4.63214 1.01582 7.08454 0 9.64167 0ZM9.64167 2.96667C5.93333 2.96667 2.96667 5.93333 2.96667 9.64167C2.96667 13.35 5.93333 16.3167 9.64167 16.3167C13.35 16.3167 16.3167 13.35 16.3167 9.64167C16.3167 5.93333 13.35 2.96667 9.64167 2.96667Z" fill="#6D6969"/>
</svg>
