<svg width="49" height="51" viewBox="0 0 49 51" fill="none" xmlns="http://www.w3.org/2000/svg">
<ellipse cx="24.5" cy="25.5" rx="24.5" ry="24.75" fill="#521DC8"/>
<path fill-rule="evenodd" clip-rule="evenodd" d="M29.2639 21.75C29.6359 21.75 29.9028 21.451 29.9028 21.125C29.9028 20.799 29.6359 20.5 29.2639 20.5C28.892 20.5 28.625 20.799 28.625 21.125C28.625 21.451 28.892 21.75 29.2639 21.75ZM16.3334 22.125H26.0534C26.4758 23.4915 27.7415 24.5 29.2639 24.5C31.1393 24.5 32.625 22.9698 32.625 21.125C32.625 19.2802 31.1393 17.75 29.2639 17.75C27.7415 17.75 26.4758 18.7585 26.0534 20.125H16.3334V22.125ZM21.0973 28.75C20.7253 28.75 20.4584 29.049 20.4584 29.375C20.4584 29.701 20.7253 30 21.0973 30C21.4692 30 21.7362 29.701 21.7362 29.375C21.7362 29.049 21.4692 28.75 21.0973 28.75ZM34.0278 28.375L24.3078 28.375C23.8854 27.0085 22.6197 26 21.0973 26C19.2219 26 17.7362 27.5302 17.7362 29.375C17.7362 31.2198 19.2219 32.75 21.0973 32.75C22.6197 32.75 23.8854 31.7415 24.3078 30.375L34.0278 30.375V28.375Z" fill="white"/>
</svg>
