<svg width="26" height="21" viewBox="0 0 26 21" fill="none" xmlns="http://www.w3.org/2000/svg">
<path stroke-width="0.3" stroke="black" d="M25.3924 9.51248L16.0174 0.137479C15.9518 0.0718482 15.8683 0.0271447 15.7773 0.00902731C15.6863 -0.00909006 15.592 0.000193357 15.5063 0.0357023C15.4206 0.0712113 15.3474 0.131349 15.2959 0.208503C15.2444 0.285656 15.2169 0.376356 15.217 0.469119V5.63592C8.88886 5.92185 1.10409 11.9113 0.224015 19.5812C0.199369 19.7771 0.238207 19.9757 0.334819 20.1478C0.43143 20.3199 0.580718 20.4565 0.760734 20.5375C0.885656 20.5966 1.02212 20.6275 1.16034 20.6277C1.28793 20.6273 1.41406 20.6006 1.53082 20.5492C1.64758 20.4978 1.75246 20.4228 1.83886 20.3289C3.19003 18.891 8.08378 14.2668 15.217 14.0711V19.2191C15.2169 19.3119 15.2444 19.4026 15.2959 19.4797C15.3474 19.5569 15.4206 19.617 15.5063 19.6525C15.592 19.688 15.6863 19.6973 15.7773 19.6792C15.8683 19.6611 15.9518 19.6164 16.0174 19.5508L25.3924 10.1758C25.436 10.1322 25.4705 10.0805 25.4941 10.0236C25.5177 9.96672 25.5299 9.90572 25.5299 9.84412C25.5299 9.78252 25.5177 9.72152 25.4941 9.66462C25.4705 9.60771 25.436 9.55601 25.3924 9.51248ZM16.1545 18.0859V13.5941C16.1545 13.4698 16.1051 13.3506 16.0172 13.2627C15.9293 13.1748 15.8101 13.1254 15.6857 13.1254C12.476 13.1254 9.34824 13.9656 6.38808 15.6215C4.45036 16.7081 2.68627 18.0788 1.15448 19.6879C1.54823 16.2648 3.4455 12.9519 6.49823 10.3633C9.30253 7.98201 12.7361 6.56287 15.6857 6.56287C15.8101 6.56287 15.9293 6.51348 16.0172 6.42558C16.1051 6.33767 16.1545 6.21844 16.1545 6.09412V1.60115L24.3975 9.84412L16.1545 18.0859Z" fill="black"/>
</svg>
