<svg width="16" height="15" viewBox="0 0 16 15" fill="none" xmlns="http://www.w3.org/2000/svg">
<path d="M2.60938 7.44604V1M13.89 13.8921V11.4748M2.60938 13.8921V10.6691M13.89 8.2518V1M8.24966 3.41727V1M8.24966 13.8921V6.64029" stroke="black" stroke-linecap="round"/>
<path d="M2.61151 10.6683C3.50152 10.6683 4.22302 9.94684 4.22302 9.05682C4.22302 8.16681 3.50152 7.44531 2.61151 7.44531C1.7215 7.44531 1 8.16681 1 9.05682C1 9.94684 1.7215 10.6683 2.61151 10.6683Z" stroke="black" stroke-linecap="round"/>
<path d="M8.25214 6.64099C9.14215 6.64099 9.86365 5.91949 9.86365 5.02948C9.86365 4.13947 9.14215 3.41797 8.25214 3.41797C7.36212 3.41797 6.64062 4.13947 6.64062 5.02948C6.64062 5.91949 7.36212 6.64099 8.25214 6.64099Z" stroke="black" stroke-linecap="round"/>
<path d="M13.8928 11.475C14.7828 11.475 15.5043 10.7535 15.5043 9.86346C15.5043 8.97345 14.7828 8.25195 13.8928 8.25195C13.0027 8.25195 12.2812 8.97345 12.2812 9.86346C12.2812 10.7535 13.0027 11.475 13.8928 11.475Z" stroke="black" stroke-linecap="round"/>
</svg>
