<svg width="12" height="13" viewBox="0 0 12 13" fill="none" xmlns="http://www.w3.org/2000/svg">
<path d="M10.2382 10.7059C10.4636 10.706 10.6803 10.8195 10.8434 11.0228C11.0065 11.2261 11.1035 11.5036 11.1143 11.7978C11.1252 12.0921 11.049 12.3805 10.9016 12.6033C10.7541 12.8261 10.5468 12.9662 10.3225 12.9946L10.2382 13H0.877562C0.652194 12.9999 0.435508 12.8864 0.272403 12.6831C0.109298 12.4798 0.0122788 12.2023 0.00144841 11.9081C-0.00938202 11.6138 0.0668069 11.3254 0.214228 11.1026C0.361649 10.8798 0.569 10.7397 0.793316 10.7112L0.877562 10.7059H10.2382ZM10.2382 5.35294C10.471 5.35294 10.6942 5.47379 10.8588 5.68891C11.0233 5.90402 11.1158 6.19578 11.1158 6.5C11.1158 6.80422 11.0233 7.09598 10.8588 7.31109C10.6942 7.52621 10.471 7.64706 10.2382 7.64706H0.877562C0.644818 7.64706 0.421607 7.52621 0.257032 7.31109C0.0924572 7.09598 0 6.80422 0 6.5C0 6.19578 0.0924572 5.90402 0.257032 5.68891C0.421607 5.47379 0.644818 5.35294 0.877562 5.35294H10.2382ZM10.2382 0C10.471 0 10.6942 0.120851 10.8588 0.335966C11.0233 0.551081 11.1158 0.84284 11.1158 1.14706C11.1158 1.45128 11.0233 1.74304 10.8588 1.95815C10.6942 2.17327 10.471 2.29412 10.2382 2.29412H0.877562C0.644818 2.29412 0.421607 2.17327 0.257032 1.95815C0.0924572 1.74304 0 1.45128 0 1.14706C0 0.84284 0.0924572 0.551081 0.257032 0.335966C0.421607 0.120851 0.644818 0 0.877562 0H10.2382Z" fill="#B7BABE"/>
</svg>
