<svg width="29" height="29" viewBox="0 0 29 29" fill="none" xmlns="http://www.w3.org/2000/svg">
<g clip-path="url(#clip0_5_2928)">
<path d="M14.4759 9.54584C15.0988 9.54584 15.6037 9.04092 15.6037 8.41806C15.6037 7.79521 15.0988 7.29028 14.4759 7.29028C13.8531 7.29028 13.3481 7.79521 13.3481 8.41806C13.3481 9.04092 13.8531 9.54584 14.4759 9.54584Z" fill="#F5F5F5"/>
<path d="M16.9167 20.1388H15.3056V11.3583H12.8889C12.6753 11.3583 12.4704 11.4431 12.3193 11.5942C12.1683 11.7453 12.0834 11.9502 12.0834 12.1638C12.0834 12.3775 12.1683 12.5824 12.3193 12.7334C12.4704 12.8845 12.6753 12.9694 12.8889 12.9694H13.6945V20.1388H12.0834C11.8697 20.1388 11.6648 20.2237 11.5138 20.3748C11.3627 20.5258 11.2778 20.7307 11.2778 20.9444C11.2778 21.158 11.3627 21.3629 11.5138 21.514C11.6648 21.6651 11.8697 21.7499 12.0834 21.7499H16.9167C17.1304 21.7499 17.3353 21.6651 17.4863 21.514C17.6374 21.3629 17.7223 21.158 17.7223 20.9444C17.7223 20.7307 17.6374 20.5258 17.4863 20.3748C17.3353 20.2237 17.1304 20.1388 16.9167 20.1388Z" fill="#F5F5F5"/>
<path d="M14.5002 27.3889C11.951 27.3889 9.45911 26.6329 7.33954 25.2167C5.21997 23.8005 3.56797 21.7875 2.59244 19.4323C1.61691 17.0772 1.36167 14.4857 1.85899 11.9855C2.35631 9.48528 3.58386 7.1887 5.3864 5.38616C7.18895 3.58361 9.48553 2.35607 11.9857 1.85875C14.4859 1.36143 17.0775 1.61667 19.4326 2.5922C21.7877 3.56773 23.8007 5.21973 25.2169 7.3393C26.6332 9.45886 27.3891 11.9508 27.3891 14.5C27.3891 17.9183 26.0312 21.1967 23.614 23.6138C21.1969 26.0309 17.9186 27.3889 14.5002 27.3889ZM14.5002 3.2222C12.2697 3.2222 10.0892 3.88363 8.23463 5.12285C6.38 6.36207 4.9345 8.12342 4.08091 10.1842C3.22733 12.2449 3.00399 14.5125 3.43914 16.7002C3.8743 18.8878 4.9484 20.8973 6.52563 22.4746C8.10286 24.0518 10.1124 25.1259 12.3 25.5611C14.4877 25.9962 16.7553 25.7729 18.816 24.9193C20.8768 24.0657 22.6381 22.6202 23.8774 20.7656C25.1166 18.911 25.778 16.7305 25.778 14.5C25.778 11.5089 24.5898 8.64038 22.4748 6.52539C20.3598 4.41039 17.4913 3.2222 14.5002 3.2222Z" fill="#F5F5F5"/>
</g>
<defs>
<clipPath id="clip0_5_2928">
<rect width="29" height="29" fill="white"/>
</clipPath>
</defs>
</svg>
