<svg width="6" height="23" viewBox="0 0 6 23" fill="none" xmlns="http://www.w3.org/2000/svg">
<path d="M3.19038 17.5C3.8604 17.5 4.50298 17.7634 4.97675 18.2322C5.45053 18.7011 5.71669 19.337 5.71669 20C5.71669 20.663 5.45053 21.2989 4.97675 21.7678C4.50298 22.2366 3.8604 22.5 3.19038 22.5C2.52036 22.5 1.87778 22.2366 1.404 21.7678C0.930228 21.2989 0.664063 20.663 0.664063 20C0.664063 19.337 0.930228 18.7011 1.404 18.2322C1.87778 17.7634 2.52036 17.5 3.19038 17.5ZM3.19038 8.75C3.8604 8.75 4.50298 9.01339 4.97675 9.48223C5.45053 9.95107 5.71669 10.587 5.71669 11.25C5.71669 11.913 5.45053 12.5489 4.97675 13.0178C4.50298 13.4866 3.8604 13.75 3.19038 13.75C2.52036 13.75 1.87778 13.4866 1.404 13.0178C0.930228 12.5489 0.664063 11.913 0.664063 11.25C0.664063 10.587 0.930228 9.95107 1.404 9.48223C1.87778 9.01339 2.52036 8.75 3.19038 8.75ZM3.19038 0C3.8604 0 4.50298 0.263393 4.97675 0.732233C5.45053 1.20107 5.71669 1.83696 5.71669 2.5C5.71669 3.16304 5.45053 3.79893 4.97675 4.26777C4.50298 4.73661 3.8604 5 3.19038 5C2.52036 5 1.87778 4.73661 1.404 4.26777C0.930228 3.79893 0.664063 3.16304 0.664063 2.5C0.664063 1.83696 0.930228 1.20107 1.404 0.732233C1.87778 0.263393 2.52036 0 3.19038 0Z" fill="black"/>
</svg>
