<svg xmlns:xlink="http://www.w3.org/1999/xlink" fill="currentColor" xmlns="http://www.w3.org/2000/svg" viewBox="0 0 24 24" width="24"  height="24" ><path fill-rule="evenodd" d="M12 3.75a8.25 8.25 0 1 0 0 16.5 8.25 8.25 0 0 0 0-16.5M2.25 12c0-5.385 4.365-9.75 9.75-9.75s9.75 4.365 9.75 9.75-4.365 9.75-9.75 9.75S2.25 17.385 2.25 12M12 7.5a.75.75 0 0 1 .75.75v3h3a.75.75 0 0 1 0 1.5h-3v3a.75.75 0 0 1-1.5 0v-3h-3a.75.75 0 0 1 0-1.5h3v-3A.75.75 0 0 1 12 7.5" clip-rule="evenodd" fill="#6950F3"></path></svg>