<svg width="23" height="19" viewBox="0 0 23 19" fill="none" xmlns="http://www.w3.org/2000/svg">
<path d="M10.0629 0.340624C10.2004 0.476855 10.2777 0.661521 10.2777 0.854061C10.2777 1.0466 10.2004 1.23127 10.0629 1.3675L2.50668 8.84625L22.2704 8.84625C22.4651 8.84625 22.6519 8.9228 22.7896 9.05905C22.9273 9.19531 23.0046 9.38012 23.0046 9.57281C23.0046 9.76551 22.9273 9.95031 22.7896 10.0866C22.6519 10.2228 22.4651 10.2994 22.2704 10.2994L2.50668 10.2994L10.0629 17.7781C10.1926 17.9159 10.2632 18.098 10.2599 18.2863C10.2565 18.4745 10.1795 18.6541 10.0449 18.7872C9.91042 18.9203 9.72894 18.9966 9.53873 18.9999C9.34852 19.0032 9.16443 18.9333 9.02525 18.805L0.214722 10.0862C0.0772285 9.95002 0 9.76535 0 9.57281C0 9.38027 0.0772285 9.1956 0.214722 9.05937L9.02525 0.340624C9.16291 0.204562 9.34952 0.128138 9.54409 0.128138C9.73866 0.128138 9.92527 0.204562 10.0629 0.340624Z" fill="#6F6F6F"/>
</svg>
