<svg width="28" height="29" viewBox="0 0 28 29" fill="none" xmlns="http://www.w3.org/2000/svg">
<rect x="0.0703125" y="0.75" width="27.6699" height="27.6699" rx="7.90569" fill="#E63644"/>
<path d="M7.58596 22.0964C7.58418 22.3042 7.67518 22.5041 7.83898 22.6523C8.00279 22.8006 8.22603 22.885 8.45975 22.8871H18.5707C18.8044 22.885 19.0277 22.8006 19.1915 22.6523C19.3553 22.5041 19.4463 22.3042 19.4445 22.0964V11.5547H7.58596V22.0964ZM8.77182 12.6089H18.2586V21.8329H8.77182V12.6089Z" fill="white"/>
<path d="M11.4359 13.666H10.25V20.2546H11.4359V13.666Z" fill="white"/>
<path d="M13.9124 13.4023H12.7266V19.9909H13.9124V13.4023Z" fill="white"/>
<path d="M16.7718 13.666H15.5859V20.2546H16.7718V13.666Z" fill="white"/>
<path d="M16.1817 9.44806V7.8668C16.1817 7.42346 15.8301 7.07617 15.3813 7.07617H11.6458C11.197 7.07617 10.8454 7.42346 10.8454 7.8668V9.44806H6.39844V10.5022H20.6287V9.44806H16.1817ZM12.0312 8.13035H14.9959V9.44806H12.0312V8.13035Z" fill="white"/>
</svg>
