<svg width="25" height="23" viewBox="0 0 25 23" fill="none" xmlns="http://www.w3.org/2000/svg">
<path d="M11.5698 0L13.8638 0.00575C14.7679 0.11385 15.5605 0.53475 16.2136 1.24545C16.747 1.82505 17.027 2.49895 17.0433 3.23265H23.4058C23.6183 3.23387 23.8216 3.31848 23.9711 3.4679C24.1205 3.61733 24.204 3.81935 24.203 4.0296C24.2035 4.13365 24.1832 4.23677 24.1434 4.33308C24.1036 4.42939 24.045 4.51699 23.971 4.59089C23.897 4.66478 23.8089 4.72353 23.712 4.76377C23.615 4.804 23.511 4.82495 23.4058 4.8254L21.2722 4.82425V18.1953C21.2722 21.1197 20.1694 23 17.7382 23H7.25838C4.82726 23 3.74186 21.1301 3.74186 18.1953V4.82425H1.75814C1.54619 4.82334 1.34325 4.73929 1.19381 4.59055C1.04437 4.44181 0.960629 4.2405 0.960938 4.03075C0.960938 3.5903 1.3177 3.23495 1.75814 3.23495H8.11486C8.13113 2.64385 8.35309 2.0447 8.75866 1.45245C9.36296 0.56925 10.3066 0.0851 11.5698 0ZM19.6778 4.82425H5.3351V18.1953C5.3351 20.3665 5.9394 21.4084 7.25838 21.4084H17.7382C19.0619 21.4084 19.679 20.3573 19.679 18.1953L19.6778 4.82425ZM8.76564 7.291C9.20491 7.291 9.56168 7.6475 9.56168 8.0868V17.3443C9.56214 17.4483 9.54188 17.5515 9.50206 17.6478C9.46225 17.7441 9.40365 17.8317 9.32963 17.9056C9.2556 17.9795 9.16759 18.0382 9.07062 18.0785C8.97365 18.1187 8.86962 18.1396 8.76447 18.1401C8.55232 18.1389 8.34932 18.0544 8.20007 17.9052C8.05082 17.756 7.9675 17.5542 7.96843 17.3443V8.0868C7.96843 7.6475 8.32636 7.291 8.76564 7.291ZM11.9324 7.291C12.374 7.291 12.7296 7.6475 12.7296 8.0868V17.3443C12.73 17.4483 12.7098 17.5515 12.67 17.6478C12.6301 17.7441 12.5716 17.8317 12.4975 17.9056C12.4235 17.9795 12.3355 18.0382 12.2385 18.0785C12.1415 18.1187 12.0375 18.1396 11.9324 18.1401C11.7202 18.1389 11.5172 18.0544 11.368 17.9052C11.2187 17.756 11.1354 17.5542 11.1363 17.3443V8.0868C11.1363 7.6475 11.4931 7.291 11.9324 7.291ZM15.1026 7.291C15.5419 7.291 15.8986 7.6475 15.8986 8.0868V17.3443C15.8996 17.5542 15.8162 17.756 15.667 17.9052C15.5177 18.0544 15.3147 18.1389 15.1026 18.1401C14.9974 18.1396 14.8934 18.1187 14.7964 18.0785C14.6995 18.0382 14.6115 17.9795 14.5374 17.9056C14.4634 17.8317 14.4048 17.7441 14.365 17.6478C14.3252 17.5515 14.3049 17.4483 14.3054 17.3443V8.0868C14.3048 7.87674 14.3883 7.67502 14.5378 7.52584C14.6872 7.37667 14.8903 7.29221 15.1026 7.291ZM11.6244 1.5893C10.8783 1.64105 10.3868 1.8929 10.0742 2.3506C9.84407 2.68525 9.72902 2.97505 9.71043 3.2338L15.4489 3.23265C15.4326 2.898 15.299 2.6036 15.0398 2.32185C14.6378 1.88485 14.1915 1.64795 13.7697 1.5916L11.6244 1.5893Z" fill="black"/>
</svg>
