<svg width="28" height="29" viewBox="0 0 28 29" fill="none" xmlns="http://www.w3.org/2000/svg">
<rect x="0.257812" y="0.75" width="27.6699" height="27.6699" rx="7.90569" fill="#512DC8"/>
<path d="M6.04207 21.8466L6.04497 21.8495C6.12198 21.9271 6.21357 21.9887 6.31446 22.0307C6.41535 22.0728 6.52357 22.0945 6.63288 22.0946C6.72485 22.0945 6.8162 22.0793 6.90326 22.0497L11.6435 20.4416L20.7398 11.3453C21.2959 10.7891 21.6083 10.0349 21.6082 9.24842C21.6082 8.46196 21.2958 7.70773 20.7396 7.15164C20.1835 6.59555 19.4293 6.28317 18.6428 6.2832C17.8564 6.28324 17.1021 6.59569 16.5461 7.15182L7.44977 16.2482L5.84188 20.9884C5.79123 21.1358 5.78315 21.2945 5.81856 21.4463C5.85396 21.5981 5.93143 21.7368 6.04207 21.8466ZM17.3014 7.90714C17.6577 7.55361 18.1395 7.35565 18.6414 7.35662C19.1433 7.35758 19.6243 7.55739 19.9792 7.91228C20.3341 8.26718 20.5339 8.74824 20.5348 9.25014C20.5358 9.75203 20.3378 10.2338 19.9843 10.5901L18.7881 11.7863L16.1052 9.10332L17.3014 7.90714ZM8.38143 16.8272L15.3499 9.85864L18.0328 12.5416L11.0643 19.5101L7.00407 20.8875L8.38143 16.8272Z" fill="white"/>
</svg>
