<svg width="16" height="16" viewBox="0 0 16 16" fill="none" xmlns="http://www.w3.org/2000/svg">
<path d="M7.99885 1.50217C6.60547 1.5025 5.24908 1.95057 4.12969 2.78031C3.01031 3.61006 2.18718 4.77754 1.7817 6.11061C1.37621 7.44369 1.40984 8.87177 1.87761 10.1843C2.34538 11.4968 3.22253 12.6243 4.37973 13.4004C5.53692 14.1765 6.9129 14.5603 8.30474 14.495C9.69659 14.4298 11.0306 13.919 12.1101 13.038C13.1897 12.157 13.9575 10.9525 14.3004 9.60195C14.6434 8.25143 14.5433 6.82646 14.0148 5.53717C13.9393 5.35311 13.9399 5.14656 14.0166 4.96296C14.0933 4.77936 14.2398 4.63376 14.4238 4.55817C14.6079 4.48258 14.8145 4.48321 14.9981 4.55991C15.1817 4.63661 15.3273 4.78311 15.4028 4.96717C16.1035 6.67739 16.1904 8.57746 15.6488 10.3445C15.1071 12.1115 13.9704 13.6365 12.4317 14.6603C10.893 15.6842 9.04728 16.1437 7.20817 15.9607C5.36906 15.7778 3.65002 14.9637 2.34316 13.6569C1.03629 12.35 0.222231 10.631 0.0392973 8.79184C-0.143636 6.95274 0.315846 5.10702 1.33967 3.56832C2.36348 2.02963 3.88848 0.892886 5.65552 0.351254C7.42255 -0.190378 9.32262 -0.103485 11.0328 0.597169C11.124 0.63453 11.207 0.689489 11.277 0.758908C11.3469 0.828327 11.4025 0.910847 11.4406 1.00176C11.4787 1.09266 11.4985 1.19018 11.4989 1.28874C11.4992 1.3873 11.4802 1.48497 11.4428 1.57617C11.4055 1.66737 11.3505 1.75032 11.2811 1.82029C11.2117 1.89025 11.1292 1.94585 11.0383 1.98393C10.9473 2.022 10.8498 2.04179 10.7513 2.04218C10.6527 2.04256 10.555 2.02353 10.4638 1.98617C9.68167 1.66542 8.84423 1.50099 7.99885 1.50217ZM14.2788 1.72217C14.4193 1.86279 14.4982 2.05342 14.4982 2.25217C14.4982 2.45092 14.4193 2.64154 14.2788 2.78217L10.2158 6.84617C10.4922 7.37575 10.5697 7.98677 10.4345 8.5686C10.2993 9.15042 9.96017 9.6646 9.47862 10.018C8.99706 10.3715 8.40488 10.5408 7.80927 10.4954C7.21367 10.4499 6.65401 10.1928 6.23163 9.77038C5.80925 9.348 5.55207 8.78835 5.50664 8.19274C5.46121 7.59714 5.63054 7.00495 5.98398 6.5234C6.33741 6.04185 6.85159 5.70276 7.43342 5.56752C8.01524 5.43229 8.62626 5.50985 9.15584 5.78617L13.2188 1.72217C13.3595 1.58172 13.5501 1.50283 13.7488 1.50283C13.9476 1.50283 14.1382 1.58172 14.2788 1.72217ZM6.99885 8.00217C6.99885 8.26739 7.1042 8.52174 7.29174 8.70928C7.47927 8.89681 7.73363 9.00217 7.99885 9.00217C8.26406 9.00217 8.51842 8.89681 8.70595 8.70928C8.89349 8.52174 8.99885 8.26739 8.99885 8.00217C8.99885 7.73695 8.89349 7.4826 8.70595 7.29506C8.51842 7.10753 8.26406 7.00217 7.99885 7.00217C7.73363 7.00217 7.47927 7.10753 7.29174 7.29506C7.1042 7.4826 6.99885 7.73695 6.99885 8.00217Z" fill="white"/>
</svg>
