<svg xmlns="http://www.w3.org/2000/svg" xmlns:xlink="http://www.w3.org/1999/xlink" width="300" zoomAndPan="magnify" viewBox="0 0 224.87999 112.499997" height="150" preserveAspectRatio="xMidYMid meet" version="1.0"><defs><g/></defs><path fill="#111111" d="M 12.6875 75.253906 C 11.445312 74.75 9.035156 73.34375 7.75 74.46875 C 5.984375 76.015625 8.34375 77.257812 9.792969 77.417969 C 11.976562 77.660156 15.453125 77.003906 17.394531 75.996094 C 15.96875 75.929688 14.027344 75.800781 12.6875 75.253906 Z M 12.6875 75.253906 " fill-opacity="1" fill-rule="nonzero"/><path fill="#111111" d="M 63.789062 74.75 C 65.03125 74.242188 67.441406 72.835938 68.726562 73.960938 C 70.492188 75.511719 68.132812 76.75 66.683594 76.910156 C 64.5 77.152344 61.023438 76.496094 59.082031 75.488281 C 60.511719 75.421875 62.453125 75.292969 63.789062 74.75 Z M 63.789062 74.75 " fill-opacity="1" fill-rule="nonzero"/><path fill="#111111" d="M 72.507812 66.382812 C 72.117188 65.679688 68.449219 66.589844 67.617188 66.5625 C 65.535156 66.492188 62.226562 66.210938 60.425781 65.195312 C 62.90625 61.980469 65.210938 57.558594 66.9375 53.867188 C 67.617188 52.410156 67.851562 51.421875 66.011719 51.335938 C 63.59375 51.226562 60.40625 53.765625 57.890625 52.984375 C 56.386719 52.515625 57.105469 49.925781 57.078125 48.335938 C 57.054688 47.074219 57.179688 42.558594 55.832031 41.753906 C 54.296875 40.84375 49.054688 47.0625 46.789062 47.292969 C 45.449219 47.425781 46.242188 47.539062 45.378906 46.875 C 44.363281 46.097656 43.195312 43.835938 42.421875 42.757812 C 41.277344 41.144531 40.433594 38.328125 38.945312 37.054688 C 37.300781 35.648438 36.535156 36.855469 35.566406 38.480469 C 34.171875 40.820312 32.726562 42.976562 31.140625 45.191406 C 29.613281 47.320312 29.773438 48.152344 27.121094 46.648438 C 25.429688 45.6875 23.695312 44.429688 22.148438 43.15625 C 20.070312 41.441406 19.449219 41.175781 18.808594 43.925781 C 18.21875 46.460938 18.757812 49.003906 18.347656 51.507812 C 18.050781 53.304688 18.519531 52.851562 16.894531 52.894531 C 15.496094 52.929688 13.867188 52.542969 12.496094 52.257812 C 10.804688 51.902344 7.273438 49.964844 8.035156 53.222656 C 8.40625 54.816406 10.21875 56.863281 11.042969 58.359375 C 12.316406 60.667969 13.351562 63.09375 14.972656 65.195312 C 12.011719 66.867188 7.742188 66.414062 4.492188 66.351562 C 0.445312 66.277344 5.851562 68.867188 7.226562 69.660156 C 10.074219 71.296875 12.699219 72.683594 15.839844 73.691406 C 17.609375 74.257812 19.847656 74.410156 21.511719 75.117188 C 20.296875 75.789062 16.304688 77.292969 16.484375 78.335938 C 16.765625 79.953125 21.4375 80.132812 22.648438 80.269531 C 25.433594 80.578125 28.792969 80.199219 31.347656 79.019531 C 32.402344 78.53125 33.429688 77.878906 34.425781 77.277344 C 35.023438 76.914062 37.148438 74.980469 37.695312 74.980469 C 38.179688 74.980469 40.070312 76.699219 40.59375 77.015625 C 41.589844 77.621094 42.585938 78.3125 43.636719 78.824219 C 46.210938 80.082031 49.445312 80.507812 52.289062 80.320312 C 53.515625 80.238281 58.023438 79.976562 58.738281 78.695312 C 59.652344 77.050781 57.566406 77.261719 56.554688 76.824219 C 55.601562 76.410156 54.804688 75.625 53.886719 75.113281 C 56.609375 73.953125 59.933594 73.605469 62.746094 72.472656 C 63.984375 71.980469 73.207031 67.644531 72.507812 66.382812 Z M 64.21875 54.519531 C 62.800781 56.929688 61.261719 63.566406 58.113281 64.472656 C 56.671875 64.886719 54.113281 64.078125 52.523438 64.277344 C 50.832031 64.492188 49.296875 65.125 47.613281 65.390625 C 48.855469 63.523438 51.871094 62.003906 53.832031 61.027344 C 56.246094 59.820312 63.253906 54.457031 64.21875 54.519531 Z M 61.582031 54.65625 C 61.402344 54.335938 49.3125 62.59375 48.101562 62.644531 C 48.046875 60.667969 47.9375 58.265625 49.648438 57.09375 C 51.722656 55.671875 61.476562 54.476562 61.582031 54.65625 Z M 54.847656 47.019531 C 55.542969 48.210938 55.574219 51.445312 55.039062 52.5625 C 54.390625 53.917969 53.601562 53.640625 52.164062 54.050781 C 50.808594 54.433594 49.652344 55.054688 48.394531 55.75 C 48.125 54.625 54.566406 47.207031 54.847656 47.019531 Z M 47.117188 48.785156 C 48.414062 48.253906 49.710938 47.714844 50.925781 47.003906 C 51.40625 46.722656 53.113281 45.132812 53.554688 45.289062 C 53.371094 48.003906 49.996094 51.359375 48.082031 53.222656 C 47.929688 52.734375 46.492188 49.042969 47.117188 48.785156 Z M 21.847656 45.289062 C 22.152344 45.175781 26.804688 48.019531 27.46875 48.460938 C 29.0625 49.519531 27.550781 52.484375 27.316406 53.222656 C 25.445312 51.398438 22.027344 47.980469 21.847656 45.289062 Z M 20.550781 47.019531 C 22.121094 48.304688 26.570312 54.625 27.007812 55.75 C 25.933594 55.15625 24.835938 54.449219 23.660156 54.09375 C 22.875 53.859375 21.367188 54.085938 20.773438 53.511719 C 19.414062 52.207031 20.417969 47.253906 20.550781 47.019531 Z M 13.820312 54.65625 C 14.175781 54.023438 21.519531 55.863281 22.3125 56.050781 C 26.566406 57.035156 27.421875 58.253906 27.300781 62.644531 C 26.113281 62.59375 14 54.339844 13.820312 54.65625 Z M 14.835938 61.925781 C 13.410156 59.5625 12.582031 56.902344 11.179688 54.519531 C 11.871094 54.472656 17.480469 59.101562 19.410156 59.996094 C 22.089844 61.242188 26.089844 62.84375 27.789062 65.390625 C 25.425781 65.015625 23.367188 64.121094 20.925781 64.121094 C 17.867188 64.117188 16.671875 64.964844 14.835938 61.925781 Z M 20.636719 73.207031 C 18.242188 72.773438 15.703125 72.019531 13.515625 71.023438 C 12.097656 70.378906 9.070312 69.691406 8.289062 68.355469 C 9.5625 67.652344 12.351562 67.675781 13.855469 67.324219 C 16.65625 66.671875 19.492188 65.707031 22.40625 65.945312 C 25.292969 66.179688 28.128906 66.976562 30.652344 68.371094 C 31.832031 69.019531 35.15625 70.882812 35.019531 72.359375 C 33.722656 72.492188 34.195312 71.65625 33.234375 70.890625 C 32.578125 70.371094 31.070312 70.238281 30.269531 70.015625 C 28.148438 69.421875 26.082031 68.96875 23.867188 68.945312 C 21.277344 68.921875 18.652344 69.066406 16.0625 68.878906 C 15.246094 68.820312 11.386719 67.542969 11.617188 68.765625 C 12.121094 71.507812 20.136719 70.707031 22.308594 70.699219 C 24.167969 70.691406 25.78125 70.621094 27.609375 71.015625 C 28.148438 71.132812 32.292969 72.121094 32.34375 72.695312 C 28.347656 73.289062 24.695312 73.945312 20.636719 73.207031 Z M 36.09375 74.167969 C 34.546875 75.996094 30.625 77.707031 28.339844 78.296875 C 25.699219 78.984375 22.484375 78.953125 19.839844 78.230469 C 22.0625 75.71875 24.960938 75.535156 27.929688 75.203125 C 29.636719 75.011719 31.402344 74.617188 33.105469 74.351562 C 33.40625 74.304688 36.476562 73.71875 36.09375 74.167969 Z M 38.679688 70.546875 C 37.941406 71.429688 38.140625 72.632812 38.039062 73.390625 C 37.851562 73.371094 37.550781 73.371094 37.359375 73.390625 C 37.246094 72.546875 37.378906 71.535156 36.71875 70.546875 C 36.058594 69.554688 34.65625 68.550781 33.839844 67.703125 C 31.554688 65.34375 29.628906 63.59375 29.117188 60.125 C 27.878906 51.703125 33.570312 45.550781 37.699219 38.921875 C 41.167969 44.492188 45.976562 49.722656 46.332031 56.542969 C 46.511719 59.984375 46.0625 63.015625 43.714844 65.617188 C 42.144531 67.355469 40.179688 68.757812 38.679688 70.546875 Z M 55.558594 78.230469 C 52.777344 78.988281 49.511719 78.949219 46.753906 78.199219 C 45.859375 77.953125 38.875 74.617188 39.238281 73.941406 C 39.589844 73.285156 46.941406 75.15625 47.820312 75.246094 C 50.660156 75.539062 53.425781 75.820312 55.558594 78.230469 Z M 67.015625 68.515625 C 64.78125 70.789062 59.605469 71.894531 56.707031 72.679688 C 51.949219 73.960938 47.8125 73.398438 43.058594 72.699219 C 43.109375 72.109375 47.378906 71.105469 47.792969 71.019531 C 49.382812 70.675781 50.859375 70.664062 52.476562 70.703125 C 54.507812 70.757812 63.601562 71.421875 63.785156 68.769531 C 63.871094 67.535156 60.074219 68.828125 59.339844 68.882812 C 56.929688 69.046875 54.453125 69.019531 52.035156 68.980469 C 49.613281 68.945312 47.449219 69.371094 45.132812 70.019531 C 44.375 70.230469 43.257812 70.34375 42.5625 70.746094 C 41.410156 71.40625 41.585938 72.488281 40.382812 72.363281 C 40.25 70.914062 43.59375 69.023438 44.75 68.375 C 47.40625 66.886719 50.578125 65.992188 53.640625 65.886719 C 56.300781 65.796875 58.988281 66.730469 61.550781 67.332031 C 62.351562 67.511719 66.816406 68.71875 67.015625 68.515625 Z M 67.015625 68.515625 " fill-opacity="1" fill-rule="nonzero"/><path fill="#111111" d="M 36.492188 34.175781 C 37.019531 32.742188 37.382812 29.027344 38.492188 32.597656 C 38.730469 33.367188 39.234375 34.648438 38.421875 35.277344 C 37.535156 35.964844 36.515625 35.308594 36.492188 34.175781 Z M 36.492188 34.175781 " fill-opacity="1" fill-rule="nonzero"/><path fill="#111111" d="M 38.691406 77.871094 C 38.691406 78.121094 38.605469 78.335938 38.425781 78.515625 C 38.25 78.691406 38.035156 78.78125 37.78125 78.78125 C 37.53125 78.78125 37.316406 78.691406 37.136719 78.515625 C 36.960938 78.335938 36.871094 78.121094 36.871094 77.871094 C 36.871094 77.621094 36.960938 77.40625 37.136719 77.226562 C 37.316406 77.050781 37.53125 76.960938 37.78125 76.960938 C 38.035156 76.960938 38.25 77.050781 38.425781 77.226562 C 38.605469 77.40625 38.691406 77.621094 38.691406 77.871094 Z M 38.691406 77.871094 " fill-opacity="1" fill-rule="nonzero"/><path fill="#111111" d="M 38.933594 80.957031 C 38.933594 81.109375 38.90625 81.253906 38.847656 81.398438 C 38.789062 81.539062 38.703125 81.664062 38.597656 81.769531 C 38.488281 81.878906 38.363281 81.960938 38.222656 82.019531 C 38.082031 82.078125 37.933594 82.109375 37.78125 82.109375 C 37.628906 82.109375 37.484375 82.078125 37.339844 82.019531 C 37.199219 81.960938 37.074219 81.878906 36.96875 81.769531 C 36.859375 81.664062 36.777344 81.539062 36.71875 81.398438 C 36.660156 81.253906 36.628906 81.109375 36.628906 80.957031 C 36.628906 80.804688 36.660156 80.65625 36.71875 80.515625 C 36.777344 80.375 36.859375 80.25 36.96875 80.140625 C 37.074219 80.035156 37.199219 79.949219 37.339844 79.890625 C 37.484375 79.832031 37.628906 79.804688 37.78125 79.804688 C 37.933594 79.804688 38.082031 79.832031 38.222656 79.890625 C 38.363281 79.949219 38.488281 80.035156 38.597656 80.140625 C 38.703125 80.25 38.789062 80.375 38.847656 80.515625 C 38.90625 80.65625 38.933594 80.804688 38.933594 80.957031 Z M 38.933594 80.957031 " fill-opacity="1" fill-rule="nonzero"/><g fill="#111111" fill-opacity="1"><g transform="translate(84.333871, 55.792234)"><g><path d="M 9.484375 -13.625 L 12.40625 -13.625 L 7.78125 0 L 4.625 0 L 0 -13.625 L 2.921875 -13.625 L 5.484375 -5.515625 C 5.628906 -5.035156 5.773438 -4.476562 5.921875 -3.84375 C 6.078125 -3.207031 6.171875 -2.765625 6.203125 -2.515625 C 6.273438 -3.085938 6.507812 -4.085938 6.90625 -5.515625 Z M 9.484375 -13.625 "/></g></g></g><g fill="#111111" fill-opacity="1"><g transform="translate(96.738886, 55.792234)"><g><path d="M 1.375 -13.125 C 1.375 -14.039062 1.890625 -14.5 2.921875 -14.5 C 3.953125 -14.5 4.46875 -14.039062 4.46875 -13.125 C 4.46875 -12.675781 4.335938 -12.328125 4.078125 -12.078125 C 3.816406 -11.835938 3.429688 -11.71875 2.921875 -11.71875 C 1.890625 -11.71875 1.375 -12.1875 1.375 -13.125 Z M 4.328125 0 L 1.484375 0 L 1.484375 -10.421875 L 4.328125 -10.421875 Z M 4.328125 0 "/></g></g></g><g fill="#111111" fill-opacity="1"><g transform="translate(102.563933, 55.792234)"><g><path d="M 3.75 -5.234375 C 3.75 -4.203125 3.921875 -3.421875 4.265625 -2.890625 C 4.609375 -2.359375 5.160156 -2.09375 5.921875 -2.09375 C 6.679688 -2.09375 7.226562 -2.351562 7.5625 -2.875 C 7.894531 -3.40625 8.0625 -4.191406 8.0625 -5.234375 C 8.0625 -6.265625 7.890625 -7.035156 7.546875 -7.546875 C 7.210938 -8.066406 6.664062 -8.328125 5.90625 -8.328125 C 5.144531 -8.328125 4.59375 -8.066406 4.25 -7.546875 C 3.914062 -7.035156 3.75 -6.265625 3.75 -5.234375 Z M 10.96875 -5.234375 C 10.96875 -3.535156 10.519531 -2.207031 9.625 -1.25 C 8.726562 -0.289062 7.484375 0.1875 5.890625 0.1875 C 4.878906 0.1875 3.992188 -0.03125 3.234375 -0.46875 C 2.472656 -0.90625 1.882812 -1.535156 1.46875 -2.359375 C 1.0625 -3.179688 0.859375 -4.140625 0.859375 -5.234375 C 0.859375 -6.929688 1.300781 -8.253906 2.1875 -9.203125 C 3.082031 -10.148438 4.332031 -10.625 5.9375 -10.625 C 6.9375 -10.625 7.816406 -10.40625 8.578125 -9.96875 C 9.347656 -9.53125 9.9375 -8.90625 10.34375 -8.09375 C 10.757812 -7.28125 10.96875 -6.328125 10.96875 -5.234375 Z M 10.96875 -5.234375 "/></g></g></g><g fill="#111111" fill-opacity="1"><g transform="translate(114.381781, 55.792234)"><g><path d="M 10.828125 0 L 7.984375 0 L 7.984375 -6.09375 C 7.984375 -6.84375 7.851562 -7.40625 7.59375 -7.78125 C 7.34375 -8.15625 6.953125 -8.34375 6.421875 -8.34375 C 5.691406 -8.34375 5.160156 -8.070312 4.828125 -7.53125 C 4.492188 -7 4.328125 -6.125 4.328125 -4.90625 L 4.328125 0 L 1.484375 0 L 1.484375 -10.421875 L 3.65625 -10.421875 L 4.046875 -9.09375 L 4.203125 -9.09375 C 4.484375 -9.570312 4.882812 -9.945312 5.40625 -10.21875 C 5.9375 -10.488281 6.546875 -10.625 7.234375 -10.625 C 8.796875 -10.625 9.851562 -10.113281 10.40625 -9.09375 L 10.65625 -9.09375 C 10.9375 -9.570312 11.347656 -9.945312 11.890625 -10.21875 C 12.429688 -10.488281 13.046875 -10.625 13.734375 -10.625 C 14.910156 -10.625 15.800781 -10.316406 16.40625 -9.703125 C 17.019531 -9.097656 17.328125 -8.128906 17.328125 -6.796875 L 17.328125 0 L 14.46875 0 L 14.46875 -6.09375 C 14.46875 -6.84375 14.34375 -7.40625 14.09375 -7.78125 C 13.84375 -8.15625 13.445312 -8.34375 12.90625 -8.34375 C 12.207031 -8.34375 11.6875 -8.09375 11.34375 -7.59375 C 11 -7.101562 10.828125 -6.316406 10.828125 -5.234375 Z M 10.828125 0 "/></g></g></g><g fill="#111111" fill-opacity="1"><g transform="translate(133.124443, 55.792234)"><g/></g></g><g fill="#111111" fill-opacity="1"><g transform="translate(138.08272, 55.792234)"><g><path d="M 9.765625 -3.78125 C 9.765625 -2.550781 9.320312 -1.582031 8.4375 -0.875 C 7.550781 -0.164062 6.316406 0.1875 4.734375 0.1875 C 3.273438 0.1875 1.988281 -0.0859375 0.875 -0.640625 L 0.875 -3.3125 C 1.789062 -2.90625 2.566406 -2.617188 3.203125 -2.453125 C 3.847656 -2.285156 4.429688 -2.203125 4.953125 -2.203125 C 5.585938 -2.203125 6.070312 -2.320312 6.40625 -2.5625 C 6.75 -2.800781 6.921875 -3.160156 6.921875 -3.640625 C 6.921875 -3.910156 6.847656 -4.148438 6.703125 -4.359375 C 6.554688 -4.566406 6.335938 -4.765625 6.046875 -4.953125 C 5.753906 -5.148438 5.164062 -5.460938 4.28125 -5.890625 C 3.445312 -6.273438 2.820312 -6.644531 2.40625 -7 C 1.988281 -7.363281 1.65625 -7.785156 1.40625 -8.265625 C 1.15625 -8.742188 1.03125 -9.304688 1.03125 -9.953125 C 1.03125 -11.148438 1.4375 -12.09375 2.25 -12.78125 C 3.070312 -13.476562 4.207031 -13.828125 5.65625 -13.828125 C 6.363281 -13.828125 7.035156 -13.742188 7.671875 -13.578125 C 8.316406 -13.410156 8.992188 -13.171875 9.703125 -12.859375 L 8.765625 -10.625 C 8.035156 -10.914062 7.429688 -11.117188 6.953125 -11.234375 C 6.484375 -11.359375 6.019531 -11.421875 5.5625 -11.421875 C 5.007812 -11.421875 4.585938 -11.289062 4.296875 -11.03125 C 4.003906 -10.78125 3.859375 -10.453125 3.859375 -10.046875 C 3.859375 -9.785156 3.914062 -9.5625 4.03125 -9.375 C 4.15625 -9.1875 4.34375 -9.003906 4.59375 -8.828125 C 4.851562 -8.648438 5.46875 -8.332031 6.4375 -7.875 C 7.707031 -7.257812 8.578125 -6.644531 9.046875 -6.03125 C 9.523438 -5.425781 9.765625 -4.675781 9.765625 -3.78125 Z M 9.765625 -3.78125 "/></g></g></g><g fill="#111111" fill-opacity="1"><g transform="translate(148.595758, 55.792234)"><g><path d="M 7.21875 0.1875 C 5.988281 0.1875 5.023438 -0.253906 4.328125 -1.140625 L 4.1875 -1.140625 C 4.28125 -0.273438 4.328125 0.222656 4.328125 0.359375 L 4.328125 4.59375 L 1.484375 4.59375 L 1.484375 -10.421875 L 3.796875 -10.421875 L 4.203125 -9.078125 L 4.328125 -9.078125 C 4.992188 -10.109375 5.984375 -10.625 7.296875 -10.625 C 8.523438 -10.625 9.484375 -10.144531 10.171875 -9.1875 C 10.867188 -8.238281 11.21875 -6.921875 11.21875 -5.234375 C 11.21875 -4.117188 11.054688 -3.148438 10.734375 -2.328125 C 10.410156 -1.503906 9.945312 -0.878906 9.34375 -0.453125 C 8.738281 -0.0234375 8.03125 0.1875 7.21875 0.1875 Z M 6.375 -8.34375 C 5.675781 -8.34375 5.164062 -8.125 4.84375 -7.6875 C 4.519531 -7.257812 4.347656 -6.550781 4.328125 -5.5625 L 4.328125 -5.25 C 4.328125 -4.132812 4.492188 -3.332031 4.828125 -2.84375 C 5.160156 -2.351562 5.691406 -2.109375 6.421875 -2.109375 C 7.691406 -2.109375 8.328125 -3.160156 8.328125 -5.265625 C 8.328125 -6.296875 8.171875 -7.066406 7.859375 -7.578125 C 7.546875 -8.085938 7.050781 -8.34375 6.375 -8.34375 Z M 6.375 -8.34375 "/></g></g></g><g fill="#111111" fill-opacity="1"><g transform="translate(160.674568, 55.792234)"><g><path d="M 8.109375 0 L 7.5625 -1.421875 L 7.484375 -1.421875 C 7.003906 -0.816406 6.507812 -0.394531 6 -0.15625 C 5.5 0.0703125 4.84375 0.1875 4.03125 0.1875 C 3.03125 0.1875 2.238281 -0.0976562 1.65625 -0.671875 C 1.082031 -1.242188 0.796875 -2.054688 0.796875 -3.109375 C 0.796875 -4.222656 1.179688 -5.039062 1.953125 -5.5625 C 2.734375 -6.082031 3.90625 -6.375 5.46875 -6.4375 L 7.265625 -6.484375 L 7.265625 -6.953125 C 7.265625 -8.003906 6.726562 -8.53125 5.65625 -8.53125 C 4.820312 -8.53125 3.84375 -8.28125 2.71875 -7.78125 L 1.765625 -9.703125 C 2.972656 -10.328125 4.304688 -10.640625 5.765625 -10.640625 C 7.160156 -10.640625 8.226562 -10.332031 8.96875 -9.71875 C 9.71875 -9.113281 10.09375 -8.191406 10.09375 -6.953125 L 10.09375 0 Z M 7.265625 -4.828125 L 6.171875 -4.796875 C 5.347656 -4.765625 4.734375 -4.613281 4.328125 -4.34375 C 3.921875 -4.070312 3.71875 -3.65625 3.71875 -3.09375 C 3.71875 -2.289062 4.175781 -1.890625 5.09375 -1.890625 C 5.757812 -1.890625 6.285156 -2.078125 6.671875 -2.453125 C 7.066406 -2.835938 7.265625 -3.34375 7.265625 -3.96875 Z M 7.265625 -4.828125 "/></g></g></g><g fill="#111111" fill-opacity="1"><g transform="translate(172.203497, 55.792234)"><g/></g></g><g fill="#111111" fill-opacity="1"><g transform="translate(177.161774, 55.792234)"><g><path d="M 8.109375 0 L 7.5625 -1.421875 L 7.484375 -1.421875 C 7.003906 -0.816406 6.507812 -0.394531 6 -0.15625 C 5.5 0.0703125 4.84375 0.1875 4.03125 0.1875 C 3.03125 0.1875 2.238281 -0.0976562 1.65625 -0.671875 C 1.082031 -1.242188 0.796875 -2.054688 0.796875 -3.109375 C 0.796875 -4.222656 1.179688 -5.039062 1.953125 -5.5625 C 2.734375 -6.082031 3.90625 -6.375 5.46875 -6.4375 L 7.265625 -6.484375 L 7.265625 -6.953125 C 7.265625 -8.003906 6.726562 -8.53125 5.65625 -8.53125 C 4.820312 -8.53125 3.84375 -8.28125 2.71875 -7.78125 L 1.765625 -9.703125 C 2.972656 -10.328125 4.304688 -10.640625 5.765625 -10.640625 C 7.160156 -10.640625 8.226562 -10.332031 8.96875 -9.71875 C 9.71875 -9.113281 10.09375 -8.191406 10.09375 -6.953125 L 10.09375 0 Z M 7.265625 -4.828125 L 6.171875 -4.796875 C 5.347656 -4.765625 4.734375 -4.613281 4.328125 -4.34375 C 3.921875 -4.070312 3.71875 -3.65625 3.71875 -3.09375 C 3.71875 -2.289062 4.175781 -1.890625 5.09375 -1.890625 C 5.757812 -1.890625 6.285156 -2.078125 6.671875 -2.453125 C 7.066406 -2.835938 7.265625 -3.34375 7.265625 -3.96875 Z M 7.265625 -4.828125 "/></g></g></g><g fill="#111111" fill-opacity="1"><g transform="translate(188.690703, 55.792234)"><g><path d="M 11.109375 0 L 8.265625 0 L 8.265625 -6.09375 C 8.265625 -6.84375 8.128906 -7.40625 7.859375 -7.78125 C 7.597656 -8.15625 7.175781 -8.34375 6.59375 -8.34375 C 5.789062 -8.34375 5.210938 -8.078125 4.859375 -7.546875 C 4.503906 -7.015625 4.328125 -6.132812 4.328125 -4.90625 L 4.328125 0 L 1.484375 0 L 1.484375 -10.421875 L 3.65625 -10.421875 L 4.046875 -9.09375 L 4.203125 -9.09375 C 4.523438 -9.59375 4.960938 -9.972656 5.515625 -10.234375 C 6.066406 -10.492188 6.695312 -10.625 7.40625 -10.625 C 8.625 -10.625 9.546875 -10.296875 10.171875 -9.640625 C 10.796875 -8.984375 11.109375 -8.035156 11.109375 -6.796875 Z M 11.109375 0 "/></g></g></g><g fill="#111111" fill-opacity="1"><g transform="translate(201.235516, 55.792234)"><g><path d="M 4.796875 0.1875 C 3.566406 0.1875 2.601562 -0.285156 1.90625 -1.234375 C 1.207031 -2.191406 0.859375 -3.507812 0.859375 -5.1875 C 0.859375 -6.894531 1.210938 -8.226562 1.921875 -9.1875 C 2.640625 -10.144531 3.617188 -10.625 4.859375 -10.625 C 6.171875 -10.625 7.175781 -10.113281 7.875 -9.09375 L 7.96875 -9.09375 C 7.820312 -9.863281 7.75 -10.554688 7.75 -11.171875 L 7.75 -14.5 L 10.59375 -14.5 L 10.59375 0 L 8.421875 0 L 7.875 -1.359375 L 7.75 -1.359375 C 7.101562 -0.328125 6.117188 0.1875 4.796875 0.1875 Z M 5.796875 -2.078125 C 6.515625 -2.078125 7.039062 -2.285156 7.375 -2.703125 C 7.71875 -3.128906 7.90625 -3.847656 7.9375 -4.859375 L 7.9375 -5.171875 C 7.9375 -6.296875 7.765625 -7.097656 7.421875 -7.578125 C 7.078125 -8.066406 6.519531 -8.3125 5.75 -8.3125 C 5.113281 -8.3125 4.617188 -8.039062 4.265625 -7.5 C 3.910156 -6.957031 3.734375 -6.175781 3.734375 -5.15625 C 3.734375 -4.132812 3.910156 -3.363281 4.265625 -2.84375 C 4.617188 -2.332031 5.128906 -2.078125 5.796875 -2.078125 Z M 5.796875 -2.078125 "/></g></g></g><g fill="#111111" fill-opacity="1"><g transform="translate(101.881938, 76.633802)"><g><path d="M 12.890625 0 L 10 0 L 10 -5.890625 L 4.609375 -5.890625 L 4.609375 0 L 1.71875 0 L 1.71875 -13.625 L 4.609375 -13.625 L 4.609375 -8.28125 L 10 -8.28125 L 10 -13.625 L 12.890625 -13.625 Z M 12.890625 0 "/></g></g></g><g fill="#111111" fill-opacity="1"><g transform="translate(116.48649, 76.633802)"><g><path d="M 8.109375 0 L 7.5625 -1.421875 L 7.484375 -1.421875 C 7.003906 -0.816406 6.507812 -0.394531 6 -0.15625 C 5.5 0.0703125 4.84375 0.1875 4.03125 0.1875 C 3.03125 0.1875 2.238281 -0.0976562 1.65625 -0.671875 C 1.082031 -1.242188 0.796875 -2.054688 0.796875 -3.109375 C 0.796875 -4.222656 1.179688 -5.039062 1.953125 -5.5625 C 2.734375 -6.082031 3.90625 -6.375 5.46875 -6.4375 L 7.265625 -6.484375 L 7.265625 -6.953125 C 7.265625 -8.003906 6.726562 -8.53125 5.65625 -8.53125 C 4.820312 -8.53125 3.84375 -8.28125 2.71875 -7.78125 L 1.765625 -9.703125 C 2.972656 -10.328125 4.304688 -10.640625 5.765625 -10.640625 C 7.160156 -10.640625 8.226562 -10.332031 8.96875 -9.71875 C 9.71875 -9.113281 10.09375 -8.191406 10.09375 -6.953125 L 10.09375 0 Z M 7.265625 -4.828125 L 6.171875 -4.796875 C 5.347656 -4.765625 4.734375 -4.613281 4.328125 -4.34375 C 3.921875 -4.070312 3.71875 -3.65625 3.71875 -3.09375 C 3.71875 -2.289062 4.175781 -1.890625 5.09375 -1.890625 C 5.757812 -1.890625 6.285156 -2.078125 6.671875 -2.453125 C 7.066406 -2.835938 7.265625 -3.34375 7.265625 -3.96875 Z M 7.265625 -4.828125 "/></g></g></g><g fill="#111111" fill-opacity="1"><g transform="translate(128.01542, 76.633802)"><g><path d="M 10.828125 0 L 7.984375 0 L 7.984375 -6.09375 C 7.984375 -6.84375 7.851562 -7.40625 7.59375 -7.78125 C 7.34375 -8.15625 6.953125 -8.34375 6.421875 -8.34375 C 5.691406 -8.34375 5.160156 -8.070312 4.828125 -7.53125 C 4.492188 -7 4.328125 -6.125 4.328125 -4.90625 L 4.328125 0 L 1.484375 0 L 1.484375 -10.421875 L 3.65625 -10.421875 L 4.046875 -9.09375 L 4.203125 -9.09375 C 4.484375 -9.570312 4.882812 -9.945312 5.40625 -10.21875 C 5.9375 -10.488281 6.546875 -10.625 7.234375 -10.625 C 8.796875 -10.625 9.851562 -10.113281 10.40625 -9.09375 L 10.65625 -9.09375 C 10.9375 -9.570312 11.347656 -9.945312 11.890625 -10.21875 C 12.429688 -10.488281 13.046875 -10.625 13.734375 -10.625 C 14.910156 -10.625 15.800781 -10.316406 16.40625 -9.703125 C 17.019531 -9.097656 17.328125 -8.128906 17.328125 -6.796875 L 17.328125 0 L 14.46875 0 L 14.46875 -6.09375 C 14.46875 -6.84375 14.34375 -7.40625 14.09375 -7.78125 C 13.84375 -8.15625 13.445312 -8.34375 12.90625 -8.34375 C 12.207031 -8.34375 11.6875 -8.09375 11.34375 -7.59375 C 11 -7.101562 10.828125 -6.316406 10.828125 -5.234375 Z M 10.828125 0 "/></g></g></g><g fill="#111111" fill-opacity="1"><g transform="translate(146.758082, 76.633802)"><g><path d="M 10.828125 0 L 7.984375 0 L 7.984375 -6.09375 C 7.984375 -6.84375 7.851562 -7.40625 7.59375 -7.78125 C 7.34375 -8.15625 6.953125 -8.34375 6.421875 -8.34375 C 5.691406 -8.34375 5.160156 -8.070312 4.828125 -7.53125 C 4.492188 -7 4.328125 -6.125 4.328125 -4.90625 L 4.328125 0 L 1.484375 0 L 1.484375 -10.421875 L 3.65625 -10.421875 L 4.046875 -9.09375 L 4.203125 -9.09375 C 4.484375 -9.570312 4.882812 -9.945312 5.40625 -10.21875 C 5.9375 -10.488281 6.546875 -10.625 7.234375 -10.625 C 8.796875 -10.625 9.851562 -10.113281 10.40625 -9.09375 L 10.65625 -9.09375 C 10.9375 -9.570312 11.347656 -9.945312 11.890625 -10.21875 C 12.429688 -10.488281 13.046875 -10.625 13.734375 -10.625 C 14.910156 -10.625 15.800781 -10.316406 16.40625 -9.703125 C 17.019531 -9.097656 17.328125 -8.128906 17.328125 -6.796875 L 17.328125 0 L 14.46875 0 L 14.46875 -6.09375 C 14.46875 -6.84375 14.34375 -7.40625 14.09375 -7.78125 C 13.84375 -8.15625 13.445312 -8.34375 12.90625 -8.34375 C 12.207031 -8.34375 11.6875 -8.09375 11.34375 -7.59375 C 11 -7.101562 10.828125 -6.316406 10.828125 -5.234375 Z M 10.828125 0 "/></g></g></g><g fill="#111111" fill-opacity="1"><g transform="translate(165.500745, 76.633802)"><g><path d="M 8.109375 0 L 7.5625 -1.421875 L 7.484375 -1.421875 C 7.003906 -0.816406 6.507812 -0.394531 6 -0.15625 C 5.5 0.0703125 4.84375 0.1875 4.03125 0.1875 C 3.03125 0.1875 2.238281 -0.0976562 1.65625 -0.671875 C 1.082031 -1.242188 0.796875 -2.054688 0.796875 -3.109375 C 0.796875 -4.222656 1.179688 -5.039062 1.953125 -5.5625 C 2.734375 -6.082031 3.90625 -6.375 5.46875 -6.4375 L 7.265625 -6.484375 L 7.265625 -6.953125 C 7.265625 -8.003906 6.726562 -8.53125 5.65625 -8.53125 C 4.820312 -8.53125 3.84375 -8.28125 2.71875 -7.78125 L 1.765625 -9.703125 C 2.972656 -10.328125 4.304688 -10.640625 5.765625 -10.640625 C 7.160156 -10.640625 8.226562 -10.332031 8.96875 -9.71875 C 9.71875 -9.113281 10.09375 -8.191406 10.09375 -6.953125 L 10.09375 0 Z M 7.265625 -4.828125 L 6.171875 -4.796875 C 5.347656 -4.765625 4.734375 -4.613281 4.328125 -4.34375 C 3.921875 -4.070312 3.71875 -3.65625 3.71875 -3.09375 C 3.71875 -2.289062 4.175781 -1.890625 5.09375 -1.890625 C 5.757812 -1.890625 6.285156 -2.078125 6.671875 -2.453125 C 7.066406 -2.835938 7.265625 -3.34375 7.265625 -3.96875 Z M 7.265625 -4.828125 "/></g></g></g><g fill="#111111" fill-opacity="1"><g transform="translate(177.029674, 76.633802)"><g><path d="M 10.828125 0 L 7.984375 0 L 7.984375 -6.09375 C 7.984375 -6.84375 7.851562 -7.40625 7.59375 -7.78125 C 7.34375 -8.15625 6.953125 -8.34375 6.421875 -8.34375 C 5.691406 -8.34375 5.160156 -8.070312 4.828125 -7.53125 C 4.492188 -7 4.328125 -6.125 4.328125 -4.90625 L 4.328125 0 L 1.484375 0 L 1.484375 -10.421875 L 3.65625 -10.421875 L 4.046875 -9.09375 L 4.203125 -9.09375 C 4.484375 -9.570312 4.882812 -9.945312 5.40625 -10.21875 C 5.9375 -10.488281 6.546875 -10.625 7.234375 -10.625 C 8.796875 -10.625 9.851562 -10.113281 10.40625 -9.09375 L 10.65625 -9.09375 C 10.9375 -9.570312 11.347656 -9.945312 11.890625 -10.21875 C 12.429688 -10.488281 13.046875 -10.625 13.734375 -10.625 C 14.910156 -10.625 15.800781 -10.316406 16.40625 -9.703125 C 17.019531 -9.097656 17.328125 -8.128906 17.328125 -6.796875 L 17.328125 0 L 14.46875 0 L 14.46875 -6.09375 C 14.46875 -6.84375 14.34375 -7.40625 14.09375 -7.78125 C 13.84375 -8.15625 13.445312 -8.34375 12.90625 -8.34375 C 12.207031 -8.34375 11.6875 -8.09375 11.34375 -7.59375 C 11 -7.101562 10.828125 -6.316406 10.828125 -5.234375 Z M 10.828125 0 "/></g></g></g></svg>