<svg width="25" height="25" viewBox="0 0 25 25" fill="none" xmlns="http://www.w3.org/2000/svg">
<path d="M12.5 17.0673L17.0673 12.5L12.5 7.93267L11.5438 8.88889L14.4605 11.8056H7.63889V13.1944H14.4605L11.5438 16.1111L12.5 17.0673ZM12.5047 25C10.7761 25 9.151 24.672 7.62931 24.016C6.10762 23.36 4.78395 22.4697 3.6583 21.3451C2.53267 20.2205 1.64155 18.8981 0.98493 17.3778C0.32831 15.8576 0 14.2332 0 12.5047C0 10.7761 0.327998 9.151 0.983993 7.62931C1.64001 6.10762 2.53031 4.78395 3.6549 3.6583C4.77948 2.53267 6.1019 1.64155 7.62215 0.984932C9.14243 0.328311 10.7668 0 12.4953 0C14.2239 0 15.849 0.327997 17.3707 0.983993C18.8924 1.64001 20.2161 2.53031 21.3417 3.6549C22.4673 4.77948 23.3584 6.1019 24.0151 7.62215C24.6717 9.14243 25 10.7668 25 12.4953C25 14.2239 24.672 15.849 24.016 17.3707C23.36 18.8924 22.4697 20.2161 21.3451 21.3417C20.2205 22.4673 18.8981 23.3584 17.3778 24.0151C15.8576 24.6717 14.2332 25 12.5047 25ZM12.5 23.6111C15.6019 23.6111 18.2292 22.5347 20.3819 20.3819C22.5347 18.2292 23.6111 15.6019 23.6111 12.5C23.6111 9.39815 22.5347 6.77083 20.3819 4.61806C18.2292 2.46528 15.6019 1.38889 12.5 1.38889C9.39815 1.38889 6.77083 2.46528 4.61806 4.61806C2.46528 6.77083 1.38889 9.39815 1.38889 12.5C1.38889 15.6019 2.46528 18.2292 4.61806 20.3819C6.77083 22.5347 9.39815 23.6111 12.5 23.6111Z" fill="#1C1B1F"/>
</svg>
