<svg width="34" height="17" viewBox="0 0 34 17" fill="none" xmlns="http://www.w3.org/2000/svg">
<path d="M14.335 11.8165L13.3199 10.5419C13.4937 10.1692 13.6162 9.75591 13.6874 9.30193C13.7587 8.84794 13.7937 8.3777 13.7927 7.89119C13.7916 7.40468 13.7511 6.93511 13.6712 6.48248C13.5914 6.02985 13.464 5.63279 13.2891 5.29128L14.3043 4.00658C14.6108 4.52019 14.8413 5.12053 14.9956 5.80761C15.1489 6.49603 15.2255 7.19056 15.2255 7.89119C15.2255 8.59317 15.1537 9.29244 15.0102 9.989C14.8666 10.6856 14.6416 11.2947 14.335 11.8165ZM17.4954 15.7559L16.4706 14.4712C17.1042 13.4955 17.5683 12.4453 17.8629 11.3205C18.1576 10.1957 18.3066 9.0397 18.3098 7.85257C18.313 6.66543 18.1652 5.5115 17.8662 4.39077C17.5672 3.27004 17.1031 2.23468 16.4738 1.28471L17.497 0C18.2483 1.12209 18.8101 2.35936 19.1825 3.71183C19.5549 5.06294 19.741 6.44318 19.741 7.85257C19.741 9.26195 19.5549 10.6442 19.1825 11.9994C18.8101 13.3546 18.2483 14.6068 17.497 15.7559M5.66667 8.86895C4.98343 8.86895 4.40813 8.57487 3.94076 7.98673C3.4734 7.39858 3.23917 6.67627 3.23809 5.8198C3.23702 4.96333 3.47124 4.24102 3.94076 3.65288C4.41028 3.06473 4.98559 2.77066 5.66667 2.77066C6.34774 2.77066 6.92305 3.06473 7.39257 3.65288C7.86209 4.24102 8.09632 4.96333 8.09524 5.8198C8.09416 6.67627 7.85993 7.39858 7.39257 7.98673C6.92521 8.57487 6.3499 8.86895 5.66667 8.86895ZM0 17V16.6524C0 16.0737 0.133841 15.5561 0.401524 15.0994C0.669206 14.6427 1.03079 14.2849 1.48629 14.0261C2.12527 13.6534 2.79448 13.3783 3.4939 13.2008C4.19657 13.0232 4.92082 12.9345 5.66667 12.9345C6.41251 12.9345 7.13622 13.0226 7.83781 13.1987C8.5394 13.3749 9.20968 13.6507 9.84867 14.0261C10.302 14.2863 10.663 14.644 10.9318 15.0994C11.2006 15.5547 11.3344 16.0724 11.3333 16.6524V17H0ZM28.3333 8.86895C27.6501 8.86895 27.0748 8.57487 26.6074 7.98673C26.1401 7.39858 25.9058 6.67627 25.9048 5.8198C25.9037 4.96333 26.1379 4.24102 26.6074 3.65288C27.0769 3.06473 27.6522 2.77066 28.3333 2.77066C29.0144 2.77066 29.5897 3.06473 30.0592 3.65288C30.5288 4.24102 30.763 4.96333 30.7619 5.8198C30.7608 6.67627 30.5266 7.39858 30.0592 7.98673C29.5919 8.57487 29.0166 8.86895 28.3333 8.86895ZM22.6667 17V16.6524C22.6667 16.0737 22.8005 15.5561 23.0682 15.0994C23.3359 14.6427 23.6975 14.2849 24.1529 14.0261C24.7919 13.6534 25.4611 13.3783 26.1606 13.2008C26.86 13.0232 27.5842 12.9345 28.3333 12.9345C29.0824 12.9345 29.8061 13.0226 30.5045 13.1987C31.2061 13.3776 31.8763 13.6534 32.5153 14.0261C32.9687 14.2863 33.3297 14.644 33.5985 15.0994C33.8672 15.5547 34.0011 16.0724 34 16.6524V17H22.6667Z" fill="black"/>
</svg>
