<svg width="30" height="33" viewBox="0 0 30 33" fill="none" xmlns="http://www.w3.org/2000/svg">
<path d="M25.3845 20.7696H18.4614V18.4619H25.3845V20.7696ZM29.9999 30.0004H23.0768V27.6927H29.9999V30.0004ZM27.6922 25.385H20.7691V23.0773H27.6922V25.385Z" fill="black"/>
<path d="M15.0039 20.7692C14.9958 19.7956 14.7361 18.8407 14.2501 17.997C13.7641 17.1534 13.0682 16.4497 12.2301 15.9542L20.7697 1.15385L18.7735 0L10.0308 15.1454C8.95786 14.9057 7.84193 14.9388 6.78508 15.2418C5.72824 15.5448 4.76423 16.1079 3.98121 16.8796C-0.338788 21.0462 -0.0041725 30.7869 0.0119813 31.2C0.0239088 31.4979 0.15072 31.7797 0.365829 31.9862C0.580938 32.1927 0.86764 32.3079 1.16583 32.3077H18.4631C18.7053 32.3077 18.9413 32.2315 19.1378 32.0899C19.3343 31.9483 19.4812 31.7485 19.5578 31.5187C19.6344 31.289 19.6367 31.041 19.5645 30.8098C19.4923 30.5786 19.3492 30.3761 19.1554 30.2308C15.0708 27.1662 15.0039 20.8315 15.0039 20.7692ZM9.15044 17.3042C10.0739 17.3144 10.958 17.6802 11.6186 18.3256C12.2793 18.971 12.6656 19.8462 12.6974 20.7692C12.6974 20.8131 12.6997 21.0092 12.717 21.3104L5.90929 18.2827C6.35772 17.9129 6.87519 17.636 7.43161 17.468C7.98804 17.3 8.57231 17.2444 9.15044 17.3042ZM13.212 30C12.2897 29.0609 11.7018 27.8446 11.5389 26.5385H9.23121C9.31385 27.7665 9.69744 28.9553 10.3481 30H7.78313C7.30862 28.5026 7.01991 26.9525 6.92352 25.3846H4.61583C4.69024 26.9478 4.94777 28.4968 5.38313 30H2.30814C2.3439 27.8815 2.64275 23.2015 4.38852 20.1312L13.0804 23.9965C13.4981 26.165 14.3884 28.2147 15.6881 30H13.212Z" fill="black"/>
</svg>
