<svg width="37" height="30" viewBox="0 0 37 30" fill="none" xmlns="http://www.w3.org/2000/svg">
<path fill-rule="evenodd" clip-rule="evenodd" d="M18.4879 3.27619C14.7179 -0.161482 8.82158 -0.980528 4.31707 2.44058C-0.39368 6.01833 -1.09654 12.0827 2.64768 16.3654C2.67113 16.3923 2.69646 16.4174 2.72348 16.4406L17.9991 29.5689C18.2803 29.8105 18.6957 29.8105 18.9768 29.5689L34.2525 16.4406C34.2795 16.4174 34.3048 16.3923 34.3283 16.3654C38.0648 12.0916 37.4564 5.98488 32.651 2.43462C28.0821 -0.94082 22.2556 -0.16257 18.4879 3.27619ZM17.9476 4.84247C14.6768 1.44353 9.26587 0.565608 5.22431 3.63512C1.18226 6.705 0.63983 11.7482 3.74255 15.3386L18.488 28.0111L33.2334 15.3385C36.3443 11.7392 35.8575 6.66859 31.7596 3.64108C27.6346 0.593553 22.294 1.44893 19.0284 4.84247C18.887 4.9894 18.6919 5.07243 18.488 5.07243C18.2841 5.07243 18.089 4.9894 17.9476 4.84247Z" fill="#374151"/>
</svg>
