<svg width="23" height="23" viewBox="0 0 23 23" fill="none" xmlns="http://www.w3.org/2000/svg">
<path d="M19.0028 8.28884V3.8402H14.5636L11.409 0.713867L8.30153 3.8402H3.85289V8.28884L0.726562 11.3963L3.85289 14.5509V18.9901H8.30153L11.409 22.1165L14.5636 18.9901H19.0028V14.5509L22.1292 11.3963L19.0028 8.28884ZM8.41487 6.72095C9.34049 6.72095 10.0867 7.46711 10.0867 8.40218C10.0867 8.84556 9.91052 9.27079 9.597 9.58431C9.28348 9.89783 8.85826 10.074 8.41487 10.074C7.47981 10.074 6.73365 9.3278 6.73365 8.40218C6.73365 7.46711 7.47981 6.72095 8.41487 6.72095ZM14.4503 16.1188C13.5247 16.1188 12.7785 15.3632 12.7785 14.4376C12.7785 13.9942 12.9546 13.569 13.2682 13.2555C13.5817 12.9419 14.0069 12.7658 14.4503 12.7658C15.3759 12.7658 16.1315 13.512 16.1315 14.4376C16.1315 14.8835 15.9544 15.3111 15.6391 15.6264C15.3238 15.9417 14.8962 16.1188 14.4503 16.1188ZM8.10319 16.1472L6.68642 14.7304L14.7431 6.67373L16.1599 8.09049L8.10319 16.1472Z" fill="#512DC8"/>
</svg>
