<svg width="10" height="9" viewBox="0 0 10 9" fill="none" xmlns="http://www.w3.org/2000/svg">
<path d="M9.30616 8.45237C8.62153 7.26876 7.56649 6.42005 6.33523 6.01772C6.94426 5.65515 7.41745 5.10269 7.68211 4.44517C7.94677 3.78765 7.98829 3.06144 7.80027 2.37804C7.61225 1.69465 7.2051 1.09187 6.64134 0.662266C6.07759 0.232665 5.3884 0 4.67961 0C3.97083 0 3.28164 0.232665 2.71788 0.662266C2.15412 1.09187 1.74697 1.69465 1.55896 2.37804C1.37094 3.06144 1.41245 3.78765 1.67711 4.44517C1.94178 5.10269 2.41496 5.65515 3.024 6.01772C1.79274 6.4196 0.737693 7.26831 0.0530608 8.45237C0.0279541 8.4933 0.011301 8.53886 0.00408405 8.58633C-0.00313288 8.63381 -0.000767467 8.68225 0.0110407 8.7288C0.0228489 8.77535 0.0438607 8.81907 0.0728364 8.85736C0.101812 8.89566 0.138165 8.92776 0.179749 8.95178C0.221334 8.9758 0.267308 8.99125 0.31496 8.99722C0.362611 9.00318 0.410975 8.99954 0.457197 8.98651C0.503419 8.97348 0.546563 8.95133 0.584084 8.92135C0.621604 8.89138 0.652742 8.85419 0.675658 8.81199C1.52257 7.34832 3.0195 6.47444 4.67961 6.47444C6.33972 6.47444 7.83665 7.34832 8.68357 8.81199C8.70648 8.85419 8.73762 8.89138 8.77514 8.92135C8.81266 8.95133 8.8558 8.97348 8.90203 8.98651C8.94825 8.99954 8.99661 9.00318 9.04426 8.99722C9.09192 8.99125 9.13789 8.9758 9.17947 8.95178C9.22106 8.92776 9.25741 8.89566 9.28639 8.85736C9.31536 8.81907 9.33637 8.77535 9.34818 8.7288C9.35999 8.68225 9.36236 8.63381 9.35514 8.58633C9.34792 8.53886 9.33127 8.4933 9.30616 8.45237ZM2.16225 3.23783C2.16225 2.73994 2.30989 2.25324 2.5865 1.83926C2.86311 1.42528 3.25627 1.10263 3.71626 0.912092C4.17625 0.721559 4.6824 0.671706 5.17073 0.768839C5.65905 0.865972 6.1076 1.10573 6.45966 1.45779C6.81171 1.80985 7.05147 2.2584 7.1486 2.74672C7.24574 3.23504 7.19588 3.7412 7.00535 4.20118C6.81482 4.66117 6.49216 5.05433 6.07818 5.33094C5.66421 5.60755 5.1775 5.75519 4.67961 5.75519C4.01219 5.75448 3.3723 5.48903 2.90036 5.01709C2.42841 4.54514 2.16296 3.90526 2.16225 3.23783Z" fill="black"/>
</svg>
