<svg width="29" height="24" viewBox="0 0 29 24" fill="none" xmlns="http://www.w3.org/2000/svg">
<path fill-rule="evenodd" clip-rule="evenodd" d="M6.00675 8.58303C6.91729 8.58303 7.79054 8.22131 8.4344 7.57746C9.07825 6.93361 9.43996 6.06036 9.43996 5.14982C9.43996 4.23927 9.07825 3.36602 8.4344 2.72217C7.79054 2.07832 6.91729 1.71661 6.00675 1.71661C5.09621 1.71661 4.22295 2.07832 3.5791 2.72217C2.93525 3.36602 2.57354 4.23927 2.57354 5.14982C2.57354 6.06036 2.93525 6.93361 3.5791 7.57746C4.22295 8.22131 5.09621 8.58303 6.00675 8.58303ZM6.00675 10.2996C6.68303 10.2996 7.35269 10.1664 7.9775 9.90763C8.6023 9.64882 9.17001 9.26949 9.64822 8.79129C10.1264 8.31308 10.5058 7.74537 10.7646 7.12056C11.0234 6.49576 11.1566 5.8261 11.1566 5.14982C11.1566 4.47353 11.0234 3.80387 10.7646 3.17907C10.5058 2.55426 10.1264 1.98655 9.64822 1.50835C9.17001 1.03014 8.6023 0.650809 7.9775 0.392007C7.35269 0.133204 6.68303 -1.00774e-08 6.00675 0C4.64093 2.03522e-08 3.33106 0.542568 2.36528 1.50835C1.3995 2.47412 0.856934 3.784 0.856934 5.14982C0.856934 6.51563 1.3995 7.82551 2.36528 8.79129C3.33106 9.75706 4.64093 10.2996 6.00675 10.2996Z" fill="black"/>
<path fill-rule="evenodd" clip-rule="evenodd" d="M4.04089 8.40386C4.12082 8.48359 4.18424 8.5783 4.22751 8.68258C4.27077 8.78685 4.29305 8.89864 4.29305 9.01154C4.29305 9.12443 4.27077 9.23622 4.22751 9.3405C4.18424 9.44477 4.12082 9.53949 4.04089 9.61922L3.46068 10.1977C2.34408 11.3146 1.71675 12.8292 1.71661 14.4085V17.5946C1.71661 17.8222 1.62618 18.0405 1.46521 18.2015C1.30425 18.3624 1.08594 18.4529 0.858303 18.4529C0.630667 18.4529 0.412354 18.3624 0.251391 18.2015C0.090428 18.0405 0 17.8222 0 17.5946V14.4085C0.000243345 12.374 0.808497 10.4228 2.24704 8.98407L2.82553 8.40386C2.90526 8.32393 2.99998 8.26051 3.10425 8.21724C3.20853 8.17397 3.32031 8.1517 3.43321 8.1517C3.54611 8.1517 3.65789 8.17397 3.76217 8.21724C3.86645 8.26051 3.96116 8.32393 4.04089 8.40386ZM24.2831 7.88888C24.2032 7.96861 24.1397 8.06332 24.0965 8.1676C24.0532 8.27187 24.0309 8.38366 24.0309 8.49656C24.0309 8.60945 24.0532 8.72124 24.0965 8.82552C24.1397 8.92979 24.2032 9.0245 24.2831 9.10423L24.8633 9.68273C25.4163 10.2357 25.8549 10.8922 26.1541 11.6147C26.4534 12.3372 26.6074 13.1115 26.6074 13.8936V17.5946C26.6074 17.8222 26.6978 18.0405 26.8588 18.2015C27.0197 18.3624 27.238 18.4529 27.4657 18.4529C27.6933 18.4529 27.9116 18.3624 28.0726 18.2015C28.2336 18.0405 28.324 17.8222 28.324 17.5946V13.8936C28.3237 11.859 27.5155 9.90784 26.077 8.46909L25.4985 7.88888C25.4187 7.80895 25.324 7.74553 25.2197 7.70226C25.1155 7.65899 25.0037 7.63672 24.8908 7.63672C24.7779 7.63672 24.6661 7.65899 24.5618 7.70226C24.4575 7.74553 24.3628 7.80895 24.2831 7.88888Z" fill="black"/>
<path fill-rule="evenodd" clip-rule="evenodd" d="M21.4577 8.58303C20.5472 8.58303 19.6739 8.22131 19.0301 7.57746C18.3862 6.93361 18.0245 6.06036 18.0245 5.14982C18.0245 4.23927 18.3862 3.36602 19.0301 2.72217C19.6739 2.07832 20.5472 1.71661 21.4577 1.71661C22.3682 1.71661 23.2415 2.07832 23.8853 2.72217C24.5292 3.36602 24.8909 4.23927 24.8909 5.14982C24.8909 6.06036 24.5292 6.93361 23.8853 7.57746C23.2415 8.22131 22.3682 8.58303 21.4577 8.58303ZM21.4577 10.2996C20.7814 10.2996 20.1118 10.1664 19.4869 9.90763C18.8621 9.64882 18.2944 9.26949 17.8162 8.79129C17.338 8.31308 16.9587 7.74537 16.6999 7.12056C16.4411 6.49576 16.3079 5.8261 16.3079 5.14982C16.3079 4.47353 16.4411 3.80387 16.6999 3.17907C16.9587 2.55426 17.338 1.98655 17.8162 1.50835C18.2944 1.03014 18.8621 0.650809 19.4869 0.392007C20.1118 0.133204 20.7814 -1.00774e-08 21.4577 0C22.8235 2.03522e-08 24.1334 0.542568 25.0992 1.50835C26.0649 2.47412 26.6075 3.784 26.6075 5.14982C26.6075 6.51563 26.0649 7.82551 25.0992 8.79129C24.1334 9.75706 22.8235 10.2996 21.4577 10.2996ZM13.733 15.8786C12.5948 15.8786 11.5032 16.3307 10.6984 17.1356C9.8936 17.9404 9.44146 19.0319 9.44146 20.1701V22.4017C9.44146 22.6293 9.35103 22.8476 9.19007 23.0086C9.0291 23.1696 8.81079 23.26 8.58316 23.26C8.35552 23.26 8.13721 23.1696 7.97624 23.0086C7.81528 22.8476 7.72485 22.6293 7.72485 22.4017V20.1701C7.72485 18.5767 8.35785 17.0485 9.48459 15.9217C10.6113 14.795 12.1395 14.162 13.733 14.162C15.3264 14.162 16.8546 14.795 17.9814 15.9217C19.1081 17.0485 19.7411 18.5767 19.7411 20.1701V22.4017C19.7411 22.6293 19.6507 22.8476 19.4897 23.0086C19.3287 23.1696 19.1104 23.26 18.8828 23.26C18.6552 23.26 18.4368 23.1696 18.2759 23.0086C18.1149 22.8476 18.0245 22.6293 18.0245 22.4017V20.1701C18.0245 19.6065 17.9135 19.0485 17.6978 18.5278C17.4821 18.0071 17.166 17.5341 16.7675 17.1356C16.369 16.737 15.8959 16.4209 15.3753 16.2053C14.8546 15.9896 14.2965 15.8786 13.733 15.8786Z" fill="black"/>
<path fill-rule="evenodd" clip-rule="evenodd" d="M13.7336 13.3037C14.6441 13.3037 15.5173 12.942 16.1612 12.2982C16.8051 11.6543 17.1668 10.7811 17.1668 9.87052C17.1668 8.95997 16.8051 8.08672 16.1612 7.44287C15.5173 6.79902 14.6441 6.43731 13.7336 6.43731C12.823 6.43731 11.9498 6.79902 11.3059 7.44287C10.6621 8.08672 10.3003 8.95997 10.3003 9.87052C10.3003 10.7811 10.6621 11.6543 11.3059 12.2982C11.9498 12.942 12.823 13.3037 13.7336 13.3037ZM13.7336 15.0203C15.0994 15.0203 16.4092 14.4778 17.375 13.512C18.3408 12.5462 18.8834 11.2363 18.8834 9.87052C18.8834 8.5047 18.3408 7.19483 17.375 6.22905C16.4092 5.26327 15.0994 4.7207 13.7336 4.7207C12.3677 4.7207 11.0579 5.26327 10.0921 6.22905C9.12631 7.19483 8.58374 8.5047 8.58374 9.87052C8.58374 11.2363 9.12631 12.5462 10.0921 13.512C11.0579 14.4778 12.3677 15.0203 13.7336 15.0203Z" fill="black"/>
</svg>
