<svg width="27" height="24" viewBox="0 0 27 24" fill="none" xmlns="http://www.w3.org/2000/svg">
<path d="M23.3531 3.16798L23.3521 3.16704C22.719 2.55565 21.9717 2.06891 21.1503 1.73409L21.1487 1.73346C20.2965 1.38466 19.3817 1.2059 18.4578 1.208L18.455 1.208C17.1552 1.208 15.8904 1.55861 14.7936 2.21779L14.7936 2.21781C14.5312 2.37549 14.2829 2.54806 14.0484 2.7355L13.2943 3.33809L12.5402 2.7355C12.3056 2.54806 12.0574 2.37549 11.795 2.21781L11.7949 2.21779C10.6982 1.55861 9.43334 1.208 8.13351 1.208C7.19551 1.208 6.29249 1.38451 5.43979 1.73346L5.43849 1.73399C4.61383 2.07035 3.8729 2.5529 3.23606 3.1674L3.23441 3.169L3.2344 3.169C2.60359 3.77537 2.10065 4.49682 1.75323 5.29198L23.3531 3.16798ZM23.3531 3.16798C23.9835 3.77542 24.4867 4.49713 24.8354 5.29225L23.3531 3.16798ZM7.0414 17.4912L7.04154 17.4913C8.42739 18.7522 9.81131 19.8222 10.8657 20.5869C11.392 20.9686 11.8338 21.2725 12.1496 21.4843C12.3074 21.5902 12.4334 21.6728 12.5223 21.7304C12.6053 21.7842 12.6495 21.8119 12.6575 21.8169C12.6586 21.8175 12.659 21.8178 12.6588 21.8177L12.6684 21.8235L12.6778 21.8294L13.2927 22.218L13.9077 21.8294L13.9079 21.8293C14.0042 21.7685 16.7615 20.0201 19.5444 17.4909L7.0414 17.4912ZM7.0414 17.4912C5.36817 15.9693 4.04951 14.4937 3.10692 13.1094L7.0414 17.4912ZM1.20798 7.89784C1.20798 6.99492 1.39173 6.1196 1.75319 5.29207L1.75058 10.5919C1.38231 9.64304 1.20798 8.73929 1.20798 7.89784ZM3.10682 13.1092C2.5124 12.235 2.06007 11.3879 1.75062 10.592L3.10682 13.1092Z" stroke="#656567" stroke-width="2.41595"/>
</svg>
