<svg width="32" height="32" viewBox="0 0 32 32" fill="none" xmlns="http://www.w3.org/2000/svg">
<path d="M22.9724 9.02782L22.2313 8.91268C22.1945 9.14914 22.2729 9.38894 22.4421 9.55815C22.6113 9.72736 22.8511 9.80566 23.0875 9.76892L22.9724 9.02782ZM21.5905 12.8846L22.1505 12.3858C22.0132 12.2317 21.8185 12.1409 21.6121 12.1349C21.4058 12.129 21.2061 12.2083 21.0601 12.3543L21.5905 12.8846ZM12.8847 21.5903L12.3544 21.06C12.2084 21.206 12.1291 21.4057 12.1351 21.612C12.141 21.8184 12.2318 22.0131 12.3859 22.1504L12.8847 21.5903ZM9.02794 22.9723L9.76905 23.0874C9.80578 22.8509 9.72748 22.6111 9.55827 22.4419C9.38906 22.2727 9.14926 22.1944 8.9128 22.2312L9.02794 22.9723ZM10.4099 19.1155L9.84979 19.6143C9.98708 19.7684 10.1818 19.8592 10.3882 19.8651C10.5945 19.8711 10.7942 19.7918 10.9402 19.6458L10.4099 19.1155ZM19.1156 10.4097L19.6459 10.9401C19.7919 10.7941 19.8712 10.5944 19.8653 10.3881C19.8593 10.1817 19.7685 9.98696 19.6144 9.84967L19.1156 10.4097ZM23.7135 9.14295C23.7377 8.9873 23.7502 8.82821 23.7502 8.66671H22.2502C22.2502 8.75084 22.2437 8.83294 22.2313 8.91268L23.7135 9.14295ZM23.3335 8.25004C23.172 8.25004 23.0129 8.26253 22.8573 8.28671L23.0875 9.76892C23.1673 9.75654 23.2494 9.75004 23.3335 9.75004V8.25004ZM26.4168 11.3334C26.4168 9.6305 25.0364 8.25004 23.3335 8.25004V9.75004C24.2079 9.75004 24.9168 10.4589 24.9168 11.3334H26.4168ZM23.3335 14.4167C25.0364 14.4167 26.4168 13.0363 26.4168 11.3334H24.9168C24.9168 12.2078 24.2079 12.9167 23.3335 12.9167V14.4167ZM21.0304 13.3834C21.594 14.0163 22.4175 14.4167 23.3335 14.4167V12.9167C22.8632 12.9167 22.4416 12.7126 22.1505 12.3858L21.0304 13.3834ZM13.4151 22.1207L22.1208 13.415L21.0601 12.3543L12.3544 21.06L13.4151 22.1207ZM14.4168 23.3334C14.4168 22.4174 14.0164 21.5939 13.3836 21.0303L12.3859 22.1504C12.7128 22.4415 12.9168 22.8631 12.9168 23.3334H14.4168ZM11.3335 26.4167C13.0364 26.4167 14.4168 25.0363 14.4168 23.3334H12.9168C12.9168 24.2078 12.2079 24.9167 11.3335 24.9167V26.4167ZM8.25016 23.3334C8.25016 25.0363 9.63062 26.4167 11.3335 26.4167V24.9167C10.459 24.9167 9.75016 24.2078 9.75016 23.3334H8.25016ZM8.28683 22.8571C8.26265 23.0128 8.25016 23.1719 8.25016 23.3334H9.75016C9.75016 23.2493 9.75666 23.1671 9.76905 23.0874L8.28683 22.8571ZM8.66683 23.75C8.82833 23.75 8.98743 23.7376 9.14307 23.7134L8.9128 22.2312C8.83307 22.2435 8.75096 22.25 8.66683 22.25V23.75ZM5.5835 20.6667C5.5835 22.3696 6.96395 23.75 8.66683 23.75V22.25C7.79238 22.25 7.0835 21.5412 7.0835 20.6667H5.5835ZM8.66683 17.5834C6.96395 17.5834 5.5835 18.9638 5.5835 20.6667H7.0835C7.0835 19.7923 7.79238 19.0834 8.66683 19.0834V17.5834ZM10.9699 18.6167C10.4063 17.9838 9.58284 17.5834 8.66683 17.5834V19.0834C9.13709 19.0834 9.55871 19.2874 9.84979 19.6143L10.9699 18.6167ZM18.5853 9.87942L9.87954 18.5851L10.9402 19.6458L19.6459 10.9401L18.5853 9.87942ZM17.5835 8.66671C17.5835 9.58271 17.9839 10.4062 18.6168 10.9698L19.6144 9.84967C19.2876 9.55859 19.0835 9.13696 19.0835 8.66671H17.5835ZM20.6668 5.58337C18.964 5.58337 17.5835 6.96383 17.5835 8.66671H19.0835C19.0835 7.79226 19.7924 7.08337 20.6668 7.08337V5.58337ZM23.7502 8.66671C23.7502 6.96383 22.3697 5.58337 20.6668 5.58337V7.08337C21.5413 7.08337 22.2502 7.79226 22.2502 8.66671H23.7502Z" fill="#141414"/>
</svg>
