<svg width="21" height="23" viewBox="0 0 21 23" fill="none" xmlns="http://www.w3.org/2000/svg">
<path d="M16.875 15.84C16.02 15.84 15.255 16.1775 14.67 16.7063L6.64875 12.0375C6.705 11.7787 6.75 11.52 6.75 11.25C6.75 10.98 6.705 10.7213 6.64875 10.4625L14.58 5.83875C15.1875 6.40125 15.9862 6.75 16.875 6.75C18.7425 6.75 20.25 5.2425 20.25 3.375C20.25 1.5075 18.7425 0 16.875 0C15.0075 0 13.5 1.5075 13.5 3.375C13.5 3.645 13.545 3.90375 13.6012 4.1625L5.67 8.78625C5.0625 8.22375 4.26375 7.875 3.375 7.875C1.5075 7.875 0 9.3825 0 11.25C0 13.1175 1.5075 14.625 3.375 14.625C4.26375 14.625 5.0625 14.2762 5.67 13.7137L13.68 18.3938C13.6237 18.63 13.59 18.8775 13.59 19.125C13.59 20.9363 15.0638 22.41 16.875 22.41C18.6863 22.41 20.16 20.9363 20.16 19.125C20.16 17.3137 18.6863 15.84 16.875 15.84ZM16.875 2.25C17.4937 2.25 18 2.75625 18 3.375C18 3.99375 17.4937 4.5 16.875 4.5C16.2563 4.5 15.75 3.99375 15.75 3.375C15.75 2.75625 16.2563 2.25 16.875 2.25ZM3.375 12.375C2.75625 12.375 2.25 11.8687 2.25 11.25C2.25 10.6313 2.75625 10.125 3.375 10.125C3.99375 10.125 4.5 10.6313 4.5 11.25C4.5 11.8687 3.99375 12.375 3.375 12.375ZM16.875 20.2725C16.2563 20.2725 15.75 19.7663 15.75 19.1475C15.75 18.5288 16.2563 18.0225 16.875 18.0225C17.4937 18.0225 18 18.5288 18 19.1475C18 19.7663 17.4937 20.2725 16.875 20.2725Z" fill="#656567"/>
</svg>
